#N canvas 0 43 638 555 10;
#X declare -path ./lib/sssad;
#X declare -path ./lib/sssad;
#X declare -path ./lib/sssad;
#X declare -path ./lib/sssad;
#X declare -lib GEM;
#X declare -path ./lib/sssad;
#X declare -lib mrpeach;
#X declare -path ./lib/sssad;
#X declare -path ./lib/sssad;
#X declare -path ./lib/sssad;
#X declare -path ./lib/sssad;
#X declare -path ./lib/sssad;
#X declare -path ./lib/sssad;
#X declare -path ./lib/sssad;
#X declare -path ./lib/sssad;
#X declare -path ./lib/sssad;
#X declare -path ./lib/sssad;
#X declare -path ./lib/sssad;
#X declare -path ./lib/sssad;
#X declare -path ./lib/sssad;
#X declare -path ./lib/sssad;
#X declare -path ./lib/sssad;
#X declare -path ./lib/sssad;
#X declare -path ./lib/sssad;
#X declare -path ./lib/sssad;
#X declare -path ./lib/sssad;
#X declare -path ./lib/sssad;
#X declare -path ./lib/sssad;
#N canvas 667 121 958 837 videos--------------- 0;
#X obj 10 3 zac.animation /plebiscite;
#X msg 22 441 /plebiscite/Contrast 1 \, /plebiscite/Gain 1;
#X obj 10 218 zac.animation /criA;
#X obj 220 218 zac.animation /criB;
#X obj 218 3 zac.lumiere /flash-rouge;
#X msg 110 490 /flash-rouge/Activate \$1;
#X obj 110 468 expr if(($i1>3593) && ($i1<3659) \, 1 \, 0);
#X obj 111 528 s OSC_MESSAGES;
#X connect 0 0 6 0;
#X connect 5 0 7 0;
#X connect 6 0 5 0;
#X restore 163 -30 pd videos---------------;
#N canvas 962 43 476 1157 controlleurs--------- 0;
#X obj 5 5 zac.controleurMIDI 1 1 /p/[TA]*pha;
#X obj 5 25 zac.controleurMIDI 11 1 /p/Rotate 360;
#X restore 163 8 pd controlleurs---------;
#N canvas 1281 70 318 1130 init 0;
#X obj 13 10 loadbang;
#X msg 13 37 100;
#X obj 13 63 s metro-intervalle;
#X obj 14 97 import GEM;
#X obj 14 116 declare -path ./lib/sssad;
#X text 145 28 pour le controle des objets par la souris;
#X obj 145 10 zac.mouse;
#X obj 96 97 import mrpeach;
#X connect 0 0 1 0;
#X connect 1 0 2 0;
#X restore 186 -76 pd init;
#N canvas 962 43 476 1157 MIDI 0;
#X obj -45 16 zac.moniteurMIDI;
#X restore 255 -76 pd MIDI;
#X obj 298 86 image data/logo_vsl.gif;
#X obj 3 -104 zac.videoprojecteur /vp;
#X obj 13 105 zac.copyright;
#X obj 3 -190 zac.sauvegarde /file;
#X obj 26 142 loadbang;
#X obj 19 235 s OSC_MESSAGES;
#N canvas 642 43 636 555 generique------------ 1;
#X obj 217 179 zac.text /generiqueA-titre2-gregory;
#X obj 13 179 zac.text /generiqueA-titre-gregory;
#X obj 13 293 zac.text /generiqueA-nom-gregory;
#X obj 13 64 zac.text /generiqueA-nom-sandra;
#X obj 13 -50 zac.text /generiqueA-titre-sandra;
#X obj 13 412 zac.text /generiqueB;
#X obj 223 412 zac.text /generiqueB-sous-titre;
#X restore 345 -5 pd generique------------;
#N canvas 962 43 476 1157 masques-------------- 0;
#X obj 8 281 zac.lumiere /mask1;
#X obj 8 436 zac.lumiere /mask2;
#X obj 214 281 zac.lumiere /mask3;
#X obj 214 436 zac.lumiere /mask4;
#X obj 421 280 zac.lumiere /mask41;
#X obj 422 435 zac.lumiere /mask42;
#X obj 42 608 zac.lumiere /mask43;
#X obj 256 595 zac.lumiere /mask44;
#X obj 469 593 zac.lumiere /maskA;
#X obj 651 -166 zac.lumiere /mask5;
#X obj 652 -7 zac.lumiere /mask6;
#X obj 653 149 zac.lumiere /mask7;
#X obj 658 312 zac.lumiere /maskB;
#X obj 885 79 zac.lumiere /mask8;
#X restore 345 -32 pd masques--------------;
#N canvas 0 643 1920 557 network-------------- 1;
#X obj 85 312 s OSC_MESSAGES;
#X obj 57 22 netreceive 1234 1;
#X obj 189 22 print NET:;
#X obj 236 78 t b;
#X obj 500 164 tgl 15 0 empty empty empty 17 7 0 10 -262144 -1 -1 0
127;
#X msg 500 184 /criA/Activate \$1;
#X obj 559 87 route CRIA CRIAA CRIB CRIBA;
#X obj 522 113 tgl 15 0 empty empty empty 17 7 0 10 -262144 -1 -1 0
127;
#X msg 498 138 /criA/VideoPos 10 \, /criA/Activate \$1;
#X obj 786 165 tgl 15 0 empty empty empty 17 7 0 10 -262144 -1 -1 0
127;
#X obj 784 119 tgl 15 0 empty empty empty 17 7 0 10 -262144 -1 -1 0
127;
#X msg 786 185 /criB/Activate \$1;
#X msg 784 139 /criB/VideoPos 10 \, /criB/Activate \$1;
#X obj 55 100 select 1 0;
#X obj 667 266 s OSC_MESSAGES;
#X obj 57 46 route START NOUVOITOU MOSTAR STOP;
#X obj 83 71 select 1 0;
#X obj 160 90 select 1 0;
#X msg 73 192 /plebiscite/VideoPos 1609 \, /plebiscite/VideoPos 4270
267000 \, /plebiscite/Alpha 1;
#X msg 43 234 /plebiscite/VideoPos 100 \, /plebiscite/VideoPos 1608
153600 \, /plebiscite/Alpha 1;
#X msg 118 152 /plebiscite/VideoPos 4972 \, /plebiscite/VideoPos 8899
376000 \, /plebiscite/Alpha 1;
#X msg 167 124 /plebiscite/Alpha 0 250;
#X obj 1068 88 route GENERIQUEA GENERIQUEB;
#X obj 1075 234 s OSC_MESSAGES;
#X obj 1046 123 tgl 15 0 empty empty empty 17 7 0 10 -262144 -1 -1
0 1;
#X msg 1076 152 /generiqueA-titre*/Activate 1 \, /generiqueA-titre*/Alpha
\$1 500;
#X msg 1045 190 /generiqueA-nom*/Activate 1 \, /generiqueA-nom*/Alpha
\$1 2500;
#X obj 1139 117 tgl 15 0 empty empty empty 17 7 0 10 -262144 -1 -1
0 1;
#X msg 1177 116 /generiqueB*/Activate 1 \, /generiqueB*/Alpha \$1 1000
;
#X connect 1 0 2 0;
#X connect 1 0 15 0;
#X connect 3 0 21 0;
#X connect 4 0 5 0;
#X connect 5 0 14 0;
#X connect 6 0 4 0;
#X connect 6 1 7 0;
#X connect 6 2 9 0;
#X connect 6 3 10 0;
#X connect 6 4 22 0;
#X connect 7 0 8 0;
#X connect 8 0 14 0;
#X connect 9 0 11 0;
#X connect 10 0 12 0;
#X connect 11 0 14 0;
#X connect 12 0 14 0;
#X connect 13 0 19 0;
#X connect 13 1 21 0;
#X connect 15 0 13 0;
#X connect 15 1 16 0;
#X connect 15 2 17 0;
#X connect 15 3 3 0;
#X connect 15 4 6 0;
#X connect 16 0 18 0;
#X connect 16 1 21 0;
#X connect 17 0 20 0;
#X connect 17 1 21 0;
#X connect 18 0 0 0;
#X connect 19 0 0 0;
#X connect 20 0 0 0;
#X connect 21 0 0 0;
#X connect 22 0 24 0;
#X connect 22 1 27 0;
#X connect 24 0 25 0;
#X connect 24 0 26 0;
#X connect 25 0 23 0;
#X connect 26 0 23 0;
#X connect 27 0 28 0;
#X connect 28 0 23 0;
#X restore 345 21 pd network--------------;
#X msg 22 177 /file/Load ./plebiscite.sssad;
#X msg 40 205 /file/Save ./plebiscite.sssad;
#X connect 8 0 13 0;
#X connect 13 0 9 0;
#X connect 14 0 9 0;
