#N canvas 0 643 1920 557 10;
#X declare -path ./lib/sssad;
#X declare -path ./lib/sssad;
#X declare -path ./lib/sssad;
#X declare -path ./lib/sssad;
#X declare -lib GEM;
#X declare -path ./lib/sssad;
#X declare -lib mrpeach;
#X declare -path ./lib/sssad;
#X declare -path ./lib/sssad;
#X declare -path ./lib/sssad;
#X declare -path ./lib/sssad;
#X declare -path ./lib/sssad;
#X declare -path ./lib/sssad;
#X declare -path ./lib/sssad;
#X declare -path ./lib/sssad;
#X declare -path ./lib/sssad;
#X declare -path ./lib/sssad;
#X declare -path ./lib/sssad;
#X declare -path ./lib/sssad;
#X declare -path ./lib/sssad;
#X declare -path ./lib/sssad;
#N canvas 962 43 958 1157 videos--------------- 0;
#X obj 75 765 s OSC_MESSAGES;
#X obj 10 3 zac.animation /plebiscite;
#X msg 22 441 /plebiscite/Contrast 1 \, /plebiscite/Gain 1;
#X obj 47 475 netreceive 1234 1;
#X obj 179 475 print NET:;
#X obj 226 531 t b;
#X obj 10 218 zac.animation /criA;
#X obj 220 218 zac.animation /criB;
#X obj 218 3 zac.lumiere /flash-rouge;
#X msg 312 490 /flash-rouge/Activate \$1;
#X obj 312 468 expr if(($i1>3593) && ($i1<3659) \, 1 \, 0);
#X obj 542 629 tgl 15 0 empty empty empty 17 7 0 10 -262144 -1 -1 0
127;
#X msg 542 649 /criA/Activate \$1;
#X obj 601 552 route CRIA CRIAA CRIB CRIBA;
#X obj 564 578 tgl 15 0 empty empty empty 17 7 0 10 -262144 -1 -1 0
127;
#X msg 540 603 /criA/VideoPos 10 \, /criA/Activate \$1;
#X obj 828 630 tgl 15 0 empty empty empty 17 7 0 10 -262144 -1 -1 0
127;
#X obj 826 584 tgl 15 0 empty empty empty 17 7 0 10 -262144 -1 -1 0
127;
#X msg 828 650 /criB/Activate \$1;
#X msg 826 604 /criB/VideoPos 10 \, /criB/Activate \$1;
#X obj 45 553 select 1 0;
#X obj 709 731 s OSC_MESSAGES;
#X obj 47 499 route START NOUVOITOU MOSTAR STOP;
#X obj 73 524 select 1 0;
#X obj 150 543 select 1 0;
#X msg 63 645 /plebiscite/VideoPos 1609 \, /plebiscite/VideoPos 4270
267000 \, /plebiscite/Alpha 1;
#X msg 33 687 /plebiscite/VideoPos 100 \, /plebiscite/VideoPos 1608
153600 \, /plebiscite/Alpha 1;
#X msg 108 605 /plebiscite/VideoPos 4972 \, /plebiscite/VideoPos 8899
376000 \, /plebiscite/Alpha 1;
#X msg 157 577 /plebiscite/Alpha 0 250;
#X connect 1 0 10 0;
#X connect 3 0 4 0;
#X connect 3 0 22 0;
#X connect 5 0 28 0;
#X connect 9 0 0 0;
#X connect 10 0 9 0;
#X connect 11 0 12 0;
#X connect 12 0 21 0;
#X connect 13 0 11 0;
#X connect 13 1 14 0;
#X connect 13 2 16 0;
#X connect 13 3 17 0;
#X connect 14 0 15 0;
#X connect 15 0 21 0;
#X connect 16 0 18 0;
#X connect 17 0 19 0;
#X connect 18 0 21 0;
#X connect 19 0 21 0;
#X connect 20 0 26 0;
#X connect 20 1 28 0;
#X connect 22 0 20 0;
#X connect 22 1 23 0;
#X connect 22 2 24 0;
#X connect 22 3 5 0;
#X connect 22 4 13 0;
#X connect 23 0 25 0;
#X connect 23 1 28 0;
#X connect 24 0 27 0;
#X connect 24 1 28 0;
#X connect 25 0 0 0;
#X connect 26 0 0 0;
#X connect 27 0 0 0;
#X connect 28 0 0 0;
#X restore 163 -30 pd videos---------------;
#N canvas 322 1098 316 929 controlleurs--------- 0;
#X obj 5 5 zac.controleurMIDI 1 1 /p/[TA]*pha;
#X obj 5 25 zac.controleurMIDI 11 1 /p/Rotate 360;
#X restore 163 8 pd controlleurs---------;
#N canvas 1281 70 318 1130 init 0;
#X obj 13 10 loadbang;
#X msg 13 37 100;
#X obj 13 63 s metro-intervalle;
#X obj 14 97 import GEM;
#X obj 14 116 declare -path ./lib/sssad;
#X text 145 28 pour le controle des objets par la souris;
#X obj 145 10 zac.mouse;
#X obj 96 97 import mrpeach;
#X connect 0 0 1 0;
#X connect 1 0 2 0;
#X restore 186 -76 pd init;
#N canvas 322 1098 316 929 MIDI 0;
#X obj -45 16 zac.moniteurMIDI;
#X restore 255 -76 pd MIDI;
#X obj 298 86 image data/logo_vsl.gif;
#X obj 3 -104 zac.videoprojecteur /vp;
#X obj 13 105 zac.copyright;
#X obj 3 -190 zac.sauvegarde /file;
#X obj 26 142 loadbang;
#X obj 19 235 s OSC_MESSAGES;
#X obj 8 281 zac.lumiere /mask1;
#X obj 8 436 zac.lumiere /mask2;
#X obj 214 281 zac.lumiere /mask3;
#X obj 214 436 zac.lumiere /mask4;
#X obj 651 -166 zac.lumiere /mask5;
#X obj 652 -7 zac.lumiere /mask6;
#X obj 653 149 zac.lumiere /mask7;
#X obj 421 280 zac.lumiere /mask41;
#X obj 422 435 zac.lumiere /mask42;
#X obj 42 608 zac.lumiere /mask43;
#X obj 256 595 zac.lumiere /mask44;
#X obj 469 593 zac.lumiere /maskA;
#X obj 658 312 zac.lumiere /maskB;
#X obj 885 79 zac.lumiere /mask8;
#X msg 22 177 /file/Load /home/groolot/Documents/Developpement/virtualslight/plebiscite.sssad
;
#X connect 8 0 24 0;
#X connect 24 0 9 0;
