#N canvas 161 22 556 639 8;
#X declare -path ./lib/sssad;
#N canvas 372 312 266 140 init 0;
#X obj 6 10 loadbang;
#X msg 6 51 1;
#X obj 84 13 declare -path ./lib/sssad;
#X obj 6 73 s \$0-Activate;
#X msg 85 61 \; pd dsp 1;
#X connect 0 0 1 0;
#X connect 0 0 4 0;
#X connect 1 0 3 0;
#X restore 209 1 pd init;
#X obj 11 190 r OSC_MESSAGES;
#X obj 11 208 routeOSC \$1;
#X obj 45 590 image data/logo_vsl.gif;
#X obj 31 337 s \$0-Activate;
#X obj 5 12 tgl 10 1 \$0-Activate \$0-Activate Activate 12 5 0 8 -4034
-1 -1 1 1;
#X obj 81 606 zac.copyright;
#X msg 132 262 bang;
#X msg 82 297 bang;
#X obj 162 14 tgl 8 0 \$0-DEBUG empty DEBUG 12 5 0 8 -262144 -1 -1
0 1;
#X obj 70 371 adc~ \$2;
#N canvas 265 152 633 440 (subpatch) 0;
#X array \$0-sampler 4410 float 2;
#X coords 0 1 4410 -1 185 95 1;
#X restore 3 78 graph;
#X obj 82 316 s \$0-Play;
#X obj 132 281 s \$0-Stop;
#X msg 178 463 stop;
#X obj 178 445 r \$0-Stop;
#X msg 222 260 bang;
#X obj 222 278 s \$0-Record;
#X obj 168 363 r \$0-Record;
#X obj 326 7 cnv 15 200 230 empty empty PlaySample 20 12 0 14 -228856
-262144 0;
#X obj 333 210 outlet~;
#X obj 401 210 dac~;
#X obj 405 160 tgl 15 0 empty \$0-DEBUG DEBUG 17 7 0 10 -262144 -1
-1 0 1;
#X obj 373 179 spigot~;
#X msg 461 41 stop;
#X obj 333 31 r \$0-Play;
#X obj 461 23 r \$0-Stop;
#X obj 31 371 inlet~;
#X obj 84 392 spigot~;
#X obj 116 371 float \$2;
#X obj 31 392 spigot~;
#X obj 116 352 loadbang;
#X obj 190 55 vsl 8 115 0 100 0 0 empty \$0-vumeter empty 0 -9 0 10
-262144 -1 -1 11053 1;
#X obj 49 481 env~;
#X obj 49 515 spigot;
#X obj 76 497 r \$0-Activate;
#X obj 49 535 s \$0-vumeter;
#X obj 95 34 bng 15 250 50 0 \$0-Record empty Rec 17 7 0 10 -258113
-1 -1;
#X obj 5 34 bng 15 250 50 0 \$0-Play empty Play 17 7 0 10 -4034 -1
-1;
#X obj 5 51 bng 15 250 50 0 \$0-Stop empty Stop 17 7 0 10 -4160 -1
-1;
#X obj 88 478 writesf~;
#X obj 333 110 readsf~;
#X obj 316 269 tabwrite~ \$0-sampler;
#X obj 316 247 metro 100;
#X obj 95 51 tgl 15 0 empty empty Oscilloscope 17 7 0 10 -257985 -1
-1 1 1;
#X obj 168 402 makefilename /tmp%s.wav;
#X msg 168 423 open \$1 \, start;
#X obj 168 382 symbol \$1;
#X obj 333 66 makefilename /tmp%s.wav;
#X obj 333 48 symbol \$1;
#X msg 333 83 open \$1 \, start;
#X obj 232 445 r \$0-Play;
#X obj 135 40 bng 8 100 20 0 empty \$0-recording recording 10 4 0 7
-258113 -4034 -258113;
#X msg 337 394 1;
#X obj 321 416 tgl 15 0 empty empty empty 17 7 0 10 -262144 -1 -1 0
1;
#X msg 306 396 0;
#X obj 321 456 s \$0-recording;
#X obj 321 437 metro 250;
#X obj 11 227 routeOSC /Activate /Play /Start /Stop /Rec /Record;
#X connect 1 0 2 0;
#X connect 2 0 58 0;
#X connect 7 0 13 0;
#X connect 8 0 12 0;
#X connect 10 0 28 0;
#X connect 14 0 40 0;
#X connect 15 0 14 0;
#X connect 15 0 55 0;
#X connect 16 0 17 0;
#X connect 18 0 47 0;
#X connect 18 0 53 0;
#X connect 22 0 23 1;
#X connect 23 1 21 0;
#X connect 23 1 21 1;
#X connect 24 0 41 0;
#X connect 25 0 49 0;
#X connect 26 0 24 0;
#X connect 27 0 30 0;
#X connect 28 1 33 0;
#X connect 28 1 40 0;
#X connect 29 0 28 1;
#X connect 29 0 30 1;
#X connect 30 0 33 0;
#X connect 30 0 40 0;
#X connect 31 0 29 0;
#X connect 33 0 34 0;
#X connect 34 0 36 0;
#X connect 35 0 34 1;
#X connect 41 0 42 0;
#X connect 41 0 23 0;
#X connect 41 0 20 0;
#X connect 43 0 42 0;
#X connect 44 0 43 0;
#X connect 45 0 46 0;
#X connect 46 0 40 0;
#X connect 47 0 45 0;
#X connect 48 0 50 0;
#X connect 49 0 48 0;
#X connect 50 0 41 0;
#X connect 51 0 14 0;
#X connect 51 0 55 0;
#X connect 53 0 54 0;
#X connect 54 0 57 0;
#X connect 55 0 54 0;
#X connect 57 0 56 0;
#X connect 58 0 4 0;
#X connect 58 1 8 0;
#X connect 58 2 8 0;
#X connect 58 3 7 0;
#X connect 58 4 16 0;
#X connect 58 5 16 0;
#X coords 0 -1 1 1 200 175 1 0 0;
