#N canvas 0 43 425 467 8;
#X obj 5 146 vradio 10 1 1 5 select-GEM-position empty Gem_window_position
0 -5 0 8 -4032 -1 -13330 0;
#X obj 5 26 vradio 10 1 1 5 select-main-resolution empty main_window_size
0 -5 0 8 -4034 -1 -13381 2;
#X text 15 24 1024x768;
#X text 15 34 1280x1024;
#X text 15 44 1280x800;
#X msg 253 96 0 \, destroy;
#X msg 176 155 create \, 1;
#X obj 421 211 gemwin;
#X msg 176 177 color 0 0 0;
#X obj 5 86 vradio 10 1 1 4 select-GEM-dimension empty Gem_window_dimen
0 -5 0 8 -257985 -1 -83269 1;
#X text 15 84 800x600;
#X text 15 94 1024x768;
#X text 15 104 1280x1024;
#X text 15 114 2048x768 (splitter);
#N canvas 685 838 337 680 GEM.init 0;
#X msg 143 84 topmost 1;
#X obj 283 228 gemwin;
#X obj 14 7 inlet bang;
#X msg 101 137 frame 30;
#X msg 115 120 menubar 1;
#X msg 72 174 lighting 0;
#X obj 14 27 bng 15 250 50 0 empty empty empty 17 7 0 10 -262144 -1
-1;
#X obj 14 45 trigger b b b b b b b b b b;
#X msg 87 155 cursor 1;
#X msg 129 102 border 0;
#X connect 0 0 1 0;
#X connect 2 0 6 0;
#X connect 3 0 1 0;
#X connect 4 0 1 0;
#X connect 5 0 1 0;
#X connect 6 0 7 0;
#X connect 7 4 5 0;
#X connect 7 5 8 0;
#X connect 7 6 3 0;
#X connect 7 7 4 0;
#X connect 7 8 9 0;
#X connect 7 9 0 0;
#X connect 8 0 1 0;
#X connect 9 0 1 0;
#X restore 214 115 pd GEM.init;
#N canvas 0 643 958 255 GEM.dimensions 0;
#X obj 14 28 select 0 1 2 3;
#X obj 14 8 inlet selecteur;
#X obj 220 134 unpack f f;
#X obj 220 257 s globGEMWidth;
#X obj 267 240 s globGEMHeight;
#X msg 74 146 dimen \$1 \$2;
#X obj 74 209 outlet dimension;
#X msg 74 119 list 800 600;
#X msg 74 98 list 1024 768;
#X msg 74 77 list 1280 1024;
#X msg 74 56 list 2048 768;
#X obj 90 191 s retrigger-position;
#X obj 74 167 t a b b;
#X obj 267 182 float;
#X obj 220 182 float;
#X obj 351 197 t b a;
#X obj 351 215 /;
#X obj 351 233 * 8;
#X obj 351 277 value globGEMampXcoord;
#X obj 351 254 t b a;
#X connect 0 0 7 0;
#X connect 0 1 8 0;
#X connect 0 2 9 0;
#X connect 0 3 10 0;
#X connect 1 0 0 0;
#X connect 2 0 14 0;
#X connect 2 1 13 0;
#X connect 5 0 12 0;
#X connect 7 0 5 0;
#X connect 7 0 2 0;
#X connect 8 0 2 0;
#X connect 8 0 5 0;
#X connect 9 0 2 0;
#X connect 9 0 5 0;
#X connect 10 0 2 0;
#X connect 10 0 5 0;
#X connect 12 0 6 0;
#X connect 12 1 11 0;
#X connect 12 2 13 0;
#X connect 12 2 14 0;
#X connect 13 0 4 0;
#X connect 13 0 15 0;
#X connect 14 0 3 0;
#X connect 14 0 16 0;
#X connect 15 0 16 0;
#X connect 15 1 16 1;
#X connect 16 0 17 0;
#X connect 17 0 19 0;
#X connect 19 0 18 0;
#X connect 19 1 18 0;
#X restore 466 49 pd GEM.dimensions;
#X msg 531 110 print;
#N canvas 0 643 958 255 GEM.window_position 0;
#X obj 102 83 route 0 1 2 3;
#X obj 36 445 unpack f f;
#X obj 224 136 unpack f f;
#X msg 224 178 offset 0 \$1;
#X msg 282 118 offset 0 0;
#X obj 123 350 * -1;
#X obj 178 258 * -1;
#X msg 156 295 offset 0 \$1;
#X obj 101 350 t b;
#X obj 98 52 list append;
#X obj 12 9 inlet position;
#X obj 178 218 r globGEMHeight;
#X obj 123 330 r globGEMWidth;
#X obj 156 276 float;
#X obj 156 258 t b;
#X obj 101 369 float;
#X obj 198 483 outlet offset;
#X obj 254 10 inlet resolution_list;
#X obj 98 34 float;
#X obj 103 9 r retrigger-position;
#X obj 178 238 + 0;
#X msg 101 387 offset \$1 -0;
#X msg 36 467 offset \$1 -0;
#X connect 0 0 1 0;
#X connect 0 1 8 0;
#X connect 0 2 14 0;
#X connect 0 3 2 0;
#X connect 0 4 4 0;
#X connect 1 0 22 0;
#X connect 2 1 3 0;
#X connect 3 0 16 0;
#X connect 4 0 16 0;
#X connect 5 0 15 1;
#X connect 6 0 13 1;
#X connect 7 0 16 0;
#X connect 8 0 15 0;
#X connect 9 0 0 0;
#X connect 10 0 18 0;
#X connect 11 0 20 0;
#X connect 12 0 5 0;
#X connect 13 0 7 0;
#X connect 14 0 13 0;
#X connect 15 0 21 0;
#X connect 17 0 9 1;
#X connect 18 0 9 0;
#X connect 19 0 18 0;
#X connect 20 0 6 0;
#X connect 21 0 16 0;
#X connect 22 0 16 0;
#X restore 344 15 pd GEM.window_position;
#X obj 176 71 t bang bang bang;
#N canvas 322 70 316 440 GEM.mainscreen_____ 0;
#X obj 32 15 inlet selecteur_resolution_principale;
#X obj 92 150 t a b;
#X msg 92 85 list 1280 800;
#X msg 92 106 list 1280 1024;
#X msg 92 127 list 1024 768;
#X obj 92 190 outlet resolution_list;
#X obj 114 171 s retrigger-position;
#X msg 226 97 list 1920 1200;
#X obj 32 36 select 0 1 2 3 4;
#X msg 92 64 list 1280 1024;
#X connect 0 0 8 0;
#X connect 1 0 5 0;
#X connect 1 1 6 0;
#X connect 2 0 1 0;
#X connect 3 0 1 0;
#X connect 4 0 1 0;
#X connect 7 0 1 0;
#X connect 8 0 4 0;
#X connect 8 1 3 0;
#X connect 8 2 2 0;
#X connect 8 3 9 0;
#X connect 8 4 7 0;
#X connect 9 0 1 0;
#X restore 470 0 pd GEM.mainscreen_____;
#X msg 531 89 reset;
#X obj 470 -20 r select-main-resolution;
#X obj 466 29 r select-GEM-dimension;
#X obj 353 -4 r select-GEM-position;
#X obj 181 16 r select-main-resolution;
#X obj 192 34 r select-GEM-dimension;
#X obj 203 52 r select-GEM-position;
#X obj 174 -2 r retrigger-position;
#X obj 176 134 delay 500;
#X obj 133 82 vsl 10 100 0.1 2 1 1 GLOBALSCALING GLOBALSCALING empty
0 -9 0 10 -258113 -1 -258113 7609 1;
#X obj 106 187 nbx 5 8 0.1 2 1 0 GLOBALSCALING GLOBALSCALING Scale
0 -6 0 8 -258113 -1 -258113 1 256;
#X msg 5 221 1;
#X obj 5 239 s GLOBALSCALING;
#X obj 5 203 loadbang;
#X obj 82 203 r GLOBALSCALING;
#X obj 171 215 r OSC_MESSAGES;
#X obj 171 252 routeOSC /Scale;
#X obj 306 240 image data/logo_vsl.gif;
#X obj 171 233 routeOSC \$1;
#X text 16 144 right;
#X text 16 154 left;
#X text 16 164 top;
#X text 16 174 bottom;
#X text 16 184 main;
#X obj 57 221 sssad \$1/Scale;
#X obj 342 256 zac.copyright;
#X text 15 64 1920x1200;
#X msg 531 129 offset 0 -0;
#X text 15 54 1280x1024;
#X connect 5 0 7 0;
#X connect 6 0 7 0;
#X connect 6 0 8 0;
#X connect 8 0 7 0;
#X connect 15 0 7 0;
#X connect 16 0 7 0;
#X connect 17 0 7 0;
#X connect 18 0 28 0;
#X connect 18 1 14 0;
#X connect 18 2 5 0;
#X connect 19 0 17 1;
#X connect 20 0 7 0;
#X connect 21 0 19 0;
#X connect 22 0 15 0;
#X connect 23 0 17 0;
#X connect 24 0 18 0;
#X connect 25 0 18 0;
#X connect 26 0 18 0;
#X connect 27 0 18 0;
#X connect 28 0 6 0;
#X connect 31 0 32 0;
#X connect 33 0 31 0;
#X connect 34 0 44 1;
#X connect 35 0 38 0;
#X connect 36 0 32 0;
#X connect 38 0 36 0;
#X connect 44 0 32 0;
#X connect 47 0 7 0;
#X coords 0 0 1 1 150 200 1 0 0;
