#N canvas 348 114 596 513 8;
#X declare -path ./lib/sssad;
#X obj 8 24 hsl 150 8 0.005 50 1 1 \$0-Xscale \$0-Xscale Xscale 5 4
0 8 -228856 -1 -1 8571 1;
#X obj 8 44 hsl 150 8 -20 20 0 1 \$0-Xpos \$0-Xpos Xpos 5 4 0 8 -228856
-1 -1 7450 1;
#X obj 8 54 hsl 150 8 -10 10 0 1 \$0-Ypos \$0-Ypos Ypos 5 4 0 8 -228856
-1 -1 7450 1;
#X obj 162 24 nbx 4 8 0 50 0 1 \$0-Xscale \$0-Xscale empty 0 -8 0 8
-262144 -1 -1 0.999792 256;
#X obj 162 44 nbx 4 8 -20 20 0 1 \$0-Xpos \$0-Xpos empty 0 -8 0 8 -262144
-1 -1 0 256;
#X obj 162 54 nbx 4 8 -10 10 0 1 \$0-Ypos \$0-Ypos empty 0 -8 0 8 -262144
-1 -1 0 256;
#N canvas 372 312 266 140 init 0;
#X obj 6 10 loadbang;
#X msg 6 51 1;
#X obj 84 13 declare -path ./lib/sssad;
#X obj 6 73 s \$0-Activate;
#X connect 0 0 1 0;
#X connect 1 0 3 0;
#X restore 209 1 pd init;
#X obj 8 34 hsl 150 8 0.005 50 1 1 \$0-Yscale \$0-Yscale Yscale 5 4
0 8 -228856 -1 -1 8571 1;
#X obj 162 34 nbx 4 8 0 50 0 1 \$0-Yscale \$0-Yscale empty 0 -8 0 8
-262144 -1 -1 0.999792 256;
#X obj 8 64 hsl 150 8 0 360 0 1 \$0-Rotate \$0-Rotate Rotate 5 4 0
8 -228856 -1 -1 0 1;
#X obj 162 64 nbx 4 8 0 360 0 1 \$0-Rotate \$0-Rotate empty 0 -8 0
8 -262144 -1 -1 0 256;
#N canvas 841 63 363 324 data-persistence 0;
#X obj 11 124 s \$0-Xpos;
#X obj 91 124 s \$0-Ypos;
#X obj 11 103 sssad \$1/Xpos;
#X obj 91 103 sssad \$1/Ypos;
#X obj 130 30 sssad \$1/Xscale;
#X obj 130 51 s \$0-Xscale;
#X obj 231 28 sssad \$1/Yscale;
#X obj 231 49 s \$0-Yscale;
#X obj 11 254 sssad \$1/Shape;
#X obj 11 275 s \$0-Shape;
#X obj 99 254 sssad \$1/RenderOrder;
#X obj 231 7 r \$0-Yscale;
#X obj 130 9 r \$0-Xscale;
#X obj 11 82 r \$0-Xpos;
#X obj 91 82 r \$0-Ypos;
#X obj 220 254 sssad \$1/modeAlpha;
#X obj 220 275 s \$0-modeAlpha;
#X obj 260 201 s \$0-Alpha;
#X obj 260 180 sssad \$1/Alpha;
#X obj 261 160 r \$0-Alpha;
#X obj 220 233 r \$0-modeAlpha;
#X obj 11 233 r \$0-Shape;
#X obj 11 9 r \$0-Activate;
#X obj 11 30 sssad \$1/Activate;
#X obj 11 51 s \$0-Activate;
#X obj 176 80 r \$0-Rotate;
#X obj 176 101 sssad \$1/Rotate;
#X obj 176 122 s \$0-Rotate;
#X obj 11 161 r \$0-Red;
#X obj 11 182 sssad \$1/Red;
#X obj 11 203 s \$0-Red;
#X obj 97 161 r \$0-Green;
#X obj 97 182 sssad \$1/Green;
#X obj 97 203 s \$0-Green;
#X obj 179 160 r \$0-Blue;
#X obj 179 181 sssad \$1/Blue;
#X obj 179 202 s \$0-Blue;
#X obj 99 233 r \$0-RenderOrder;
#X obj 99 275 s \$0-RenderOrder;
#X obj 266 80 r \$0-File;
#X obj 266 101 sssad \$1/File;
#X obj 266 122 s \$0-File;
#X connect 2 0 0 0;
#X connect 3 0 1 0;
#X connect 4 0 5 0;
#X connect 6 0 7 0;
#X connect 8 0 9 0;
#X connect 10 0 38 0;
#X connect 11 0 6 1;
#X connect 12 0 4 1;
#X connect 13 0 2 1;
#X connect 14 0 3 1;
#X connect 15 0 16 0;
#X connect 18 0 17 0;
#X connect 19 0 18 1;
#X connect 20 0 15 1;
#X connect 21 0 8 1;
#X connect 22 0 23 1;
#X connect 23 0 24 0;
#X connect 25 0 26 1;
#X connect 26 0 27 0;
#X connect 28 0 29 1;
#X connect 29 0 30 0;
#X connect 31 0 32 1;
#X connect 32 0 33 0;
#X connect 34 0 35 1;
#X connect 35 0 36 0;
#X connect 37 0 10 1;
#X connect 39 0 40 1;
#X connect 40 0 41 0;
#X restore 209 19 pd data-persistence;
#N canvas 265 58 274 117 brancheGem 0;
#X obj 9 51 gemhead;
#X msg 112 34 set \$1;
#X obj -21 81 outlet gemList;
#X obj 112 12 r \$0-RenderOrder;
#X obj 9 22 r \$0-Activate;
#X connect 0 0 2 0;
#X connect 1 0 0 0;
#X connect 3 0 1 0;
#X connect 4 0 0 0;
#X restore 432 8 pd brancheGem;
#N canvas 357 213 278 163 position 0;
#X obj 9 2 inlet gemList;
#X obj 11 134 outlet gemList;
#X obj 66 102 translateXYZ 0 0 0;
#X obj 88 -2 r \$0-Xpos;
#X obj 178 -2 r \$0-Ypos;
#X obj 119 22 r GLOBALSCALING;
#X obj 119 42 t b f;
#X obj 88 79 * 1;
#X obj 178 87 * 1;
#X connect 0 0 2 0;
#X connect 2 0 1 0;
#X connect 3 0 7 0;
#X connect 4 0 8 0;
#X connect 5 0 6 0;
#X connect 6 0 7 0;
#X connect 6 0 8 0;
#X connect 6 1 7 1;
#X connect 6 1 8 1;
#X connect 7 0 2 1;
#X connect 8 0 2 2;
#X restore 432 35 pd position;
#N canvas 100 104 238 212 echelle 0;
#X obj 9 25 inlet gemList;
#X obj 11 107 outlet gemList;
#X obj 92 87 scale;
#X obj 119 -3 pack f f f;
#X obj 125 -23 t b;
#X obj 105 38 t b;
#X obj 105 59 float 1;
#X obj 119 -63 r \$0-Xscale;
#X obj 147 -43 r \$0-Yscale;
#X obj 137 17 r GLOBALSCALING;
#X connect 0 0 2 0;
#X connect 2 0 1 0;
#X connect 3 0 5 0;
#X connect 3 0 2 2;
#X connect 4 0 3 0;
#X connect 5 0 6 0;
#X connect 6 0 2 1;
#X connect 7 0 3 0;
#X connect 8 0 3 1;
#X connect 8 0 4 0;
#X connect 9 0 6 1;
#X connect 9 0 5 0;
#X restore 432 89 pd echelle;
#N canvas 104 66 197 133 rotation 0;
#X obj 13 17 inlet gemList;
#X obj 15 99 outlet gemList;
#X obj 28 65 rotate 0 0 0 1;
#X obj 68 44 r \$0-Rotate;
#X connect 0 0 2 0;
#X connect 2 0 1 0;
#X connect 3 0 2 1;
#X restore 432 62 pd rotation;
#N canvas 0 22 384 208 couleur 0;
#X obj 10 50 inlet gemList;
#X obj 12 182 outlet gemList;
#X obj 75 147 colorRGB 1 1 1 1;
#X obj 168 75 r \$0-Alpha;
#X obj 98 18 r \$0-Red;
#X obj 121 37 r \$0-Green;
#X obj 144 56 r \$0-Blue;
#X connect 0 0 2 0;
#X connect 2 0 1 0;
#X connect 3 0 2 4;
#X connect 4 0 2 1;
#X connect 5 0 2 2;
#X connect 6 0 2 3;
#X restore 432 116 pd couleur;
#N canvas 281 147 188 146 alpha 0;
#X obj 10 10 inlet gemList;
#X obj 12 92 outlet gemList;
#X obj 25 74 alpha;
#X obj 52 31 r \$0-modeAlpha;
#X connect 0 0 2 0;
#X connect 2 0 1 0;
#X connect 3 0 2 1;
#X restore 432 143 pd alpha;
#N canvas 702 403 206 182 objet 0;
#X obj 31 21 inlet gemList;
#X obj 26 141 outlet gemList;
#X obj 62 97 pix_texture;
#X obj 62 124 square;
#X obj 62 73 pix_buffer_read \$1;
#X obj 138 53 hradio 10 1 0 4 empty empty empty 0 -8 0 10 -262144 -1
-1 1;
#X obj 138 33 r \$0-Shape;
#X connect 0 0 4 0;
#X connect 2 0 3 0;
#X connect 3 0 1 0;
#X connect 4 0 2 0;
#X connect 5 0 4 1;
#X connect 6 0 5 0;
#X restore 432 170 pd objet;
#X obj 41 386 s \$0-Xscale;
#X obj 49 348 s \$0-Yscale;
#X obj 59 311 s \$0-Xpos;
#X obj 75 274 s \$0-Ypos;
#X obj 301 377 s \$0-Alpha;
#X obj 312 319 s \$0-modeAlpha;
#X obj 162 14 tgl 8 0 \$0-s_mousecontrol \$0-mousecontrol ctl. 10 4
0 8 -4034 -1 -258113 0 1;
#N canvas 563 421 588 264 mousecontrol 0;
#X obj 9 65 spigot;
#X obj 9 86 unpack f f;
#X obj 9 127 s \$0-Xpos;
#X obj 66 107 s \$0-Ypos;
#X obj 9 21 spigot;
#X text 13 149 Left Mouse => Position XY;
#X obj 9 -18 r mouseXYpos;
#X obj 42 2 r mouseLeftButt;
#X obj 199 65 spigot;
#X obj 199 86 unpack f f;
#X obj 199 21 spigot;
#X obj 199 -18 r mouseXYpos;
#X text 203 179 Middle Mouse => Rotation;
#X obj 389 65 spigot;
#X obj 389 86 unpack f f;
#X obj 389 21 spigot;
#X obj 389 -18 r mouseXYpos;
#X text 393 209 Right Mouse => Scale XY;
#X obj 422 2 r mouseRightButt;
#X obj 232 2 r mouseMiddButt;
#X obj 436 120 s \$0-Yscale;
#X obj 389 187 s \$0-Xscale;
#X obj 199 106 expr ($f1 + 4) / 8 * 360;
#X obj 389 134 t a b;
#N canvas 972 578 279 121 OSD 0;
#N canvas 174 84 864 459 PositionOSD 0;
#X obj -32 6 r mouseLeftButt;
#X obj -116 308 r \$0-Xpos;
#X obj -32 31 spigot;
#X obj -116 327 expr int($f1*100)/100;
#X obj 67 8 inlet Control;
#X obj 147 9 loadbang;
#X msg 6 34 0;
#X obj -116 364 text2d Xpos;
#X obj -32 205 curve 2;
#X obj -32 295 triangle 0.1;
#X obj -32 226 separator;
#X obj 88 226 separator;
#X obj 88 253 translateXYZ 0 0 0;
#X obj 146 227 r \$0-Xpos;
#X obj -145 226 separator;
#X obj -32 101 color 1 0 0;
#X obj 35 136 / 2;
#X obj 35 154 * -1;
#X msg -16 169 \$1 0 0;
#X msg 0 187 \$1 0 0;
#X obj 88 275 rectangle 0.01 0.1;
#X obj -145 291 translateXYZ 0 -0.2 0;
#X obj 274 327 expr int($f1*100)/100;
#X obj 358 275 triangle 0.1;
#X obj 358 226 separator;
#X obj 478 226 separator;
#X obj 245 254 separator;
#X obj 358 101 color 0 1 0;
#X obj 536 227 r \$0-Ypos;
#X obj -32 79 separator;
#X obj 358 74 separator;
#X obj 478 253 translateXYZ 0 0 0;
#X obj 478 275 rectangle 0.1 0.01;
#X obj 358 253 translateXYZ 0 3.9 0;
#X obj 348 205 curve 2;
#X msg 364 169 0 4 0;
#X msg 380 187 0 -4 0;
#X obj 274 308 r \$0-Ypos;
#X obj 284 273 r \$0-Ypos;
#X obj -111 268 r \$0-Xpos;
#X msg 398 349 justify left middle;
#X obj 398 330 loadbang;
#X msg 451 331 12;
#X obj 0 330 loadbang;
#X msg 0 349 12;
#X obj 245 291 translateXYZ 0.2 0 0;
#X obj 35 81 t b;
#X obj -32 245 translateXYZ 0 0 0;
#X obj -13 270 rotateXYZ 0 0 -90;
#X obj 33 224 - 0.1;
#X obj 435 154 loadbang;
#X obj 274 364 text2d Ypos;
#X obj -32 59 gemhead -99;
#X obj 35 108 value globGEMampXcoord;
#X msg -116 346 symbol Xpos:\$1;
#X msg 274 346 symbol Ypos:\$1;
#X connect 0 0 2 0;
#X connect 1 0 3 0;
#X connect 2 0 52 0;
#X connect 3 0 54 0;
#X connect 4 0 2 1;
#X connect 5 0 6 0;
#X connect 6 0 52 0;
#X connect 8 0 10 0;
#X connect 8 0 11 0;
#X connect 8 0 14 0;
#X connect 10 0 47 0;
#X connect 11 0 12 0;
#X connect 12 0 20 0;
#X connect 13 0 12 1;
#X connect 14 0 21 0;
#X connect 15 0 8 0;
#X connect 16 0 17 0;
#X connect 16 0 19 0;
#X connect 16 0 49 0;
#X connect 17 0 18 0;
#X connect 18 0 8 1;
#X connect 19 0 8 2;
#X connect 21 0 7 0;
#X connect 22 0 55 0;
#X connect 24 0 33 0;
#X connect 25 0 31 0;
#X connect 26 0 45 0;
#X connect 27 0 34 0;
#X connect 28 0 31 2;
#X connect 29 0 15 0;
#X connect 30 0 27 0;
#X connect 31 0 32 0;
#X connect 33 0 23 0;
#X connect 34 0 26 0;
#X connect 34 0 24 0;
#X connect 34 0 25 0;
#X connect 35 0 34 1;
#X connect 36 0 34 2;
#X connect 37 0 22 0;
#X connect 38 0 45 2;
#X connect 39 0 21 1;
#X connect 40 0 51 0;
#X connect 41 0 40 0;
#X connect 41 0 42 0;
#X connect 42 0 51 1;
#X connect 43 0 44 0;
#X connect 44 0 7 1;
#X connect 45 0 51 0;
#X connect 46 0 53 0;
#X connect 47 0 48 0;
#X connect 48 0 9 0;
#X connect 49 0 47 1;
#X connect 50 0 36 0;
#X connect 50 0 35 0;
#X connect 52 0 29 0;
#X connect 52 0 30 0;
#X connect 52 0 46 0;
#X connect 53 0 16 0;
#X connect 54 0 7 0;
#X connect 55 0 51 0;
#X restore 35 92 pd PositionOSD;
#N canvas 131 62 916 422 EchelleOSD 0;
#X obj -32 31 spigot;
#X obj -116 357 expr int($f1*100)/100;
#X obj 67 8 inlet Control;
#X obj 147 9 loadbang;
#X msg 6 34 0;
#X obj -32 215 curve 2;
#X obj -32 325 triangle 0.1;
#X obj -32 256 separator;
#X obj 88 256 separator;
#X obj -145 256 separator;
#X obj -32 111 color 1 0 0;
#X obj 35 146 / 2;
#X obj 35 164 * -1;
#X obj 88 305 rectangle 0.01 0.1;
#X obj 274 327 expr int($f1*100)/100;
#X obj 358 275 triangle 0.1;
#X obj 358 226 separator;
#X obj 478 226 separator;
#X obj 245 254 separator;
#X obj 358 101 color 0 1 0;
#X obj -32 82 separator;
#X obj 358 74 separator;
#X obj 478 253 translateXYZ 0 0 0;
#X obj 478 275 rectangle 0.1 0.01;
#X obj 358 253 translateXYZ 0 3.9 0;
#X obj 348 205 curve 2;
#X msg 398 349 justify left middle;
#X obj 398 330 loadbang;
#X msg 451 331 12;
#X obj 0 360 loadbang;
#X msg 0 379 12;
#X obj 245 291 translateXYZ 0.2 0 0;
#X obj 35 81 t b;
#X obj -13 300 rotateXYZ 0 0 -90;
#X obj 33 254 - 0.1;
#X obj -32 6 r mouseRightButt;
#X obj -32 275 translateXYZ 0 -4 0;
#X obj 88 283 translateXYZ 0 -4 0;
#X msg 0 197 \$1 -4 0;
#X msg -16 179 \$1 -4 0;
#X obj 198 79 r mouseXYpos;
#X obj 198 98 unpack f f;
#X obj -116 338 r \$0-Xscale;
#X obj -145 321 translateXYZ 0 -3.8 0;
#X msg 28 379 justify left middle;
#X msg 364 169 \$1 4 0;
#X msg 380 187 \$1 -4 0;
#X obj 370 146 + 0.01;
#X obj 645 74 separator;
#X obj 635 205 curve 2;
#X obj 645 101 color 0.5 0.5 1;
#X msg 667 187 \$1 4 0;
#X msg 651 169 \$1 -4 0;
#X obj 274 308 r \$0-Yscale;
#X text 408 146 pour pouvoir la distinguer sur le cote;
#X obj 275 273 + 0.2;
#X obj 274 364 text2d Yscale;
#X obj -116 394 text2d Xscale;
#X obj -32 59 gemhead -99;
#X obj 35 116 value globGEMampXcoord;
#X msg 274 346 symbol Yscale:\$1;
#X msg -116 376 symbol Xscale:\$1;
#X connect 0 0 58 0;
#X connect 1 0 61 0;
#X connect 2 0 0 1;
#X connect 3 0 4 0;
#X connect 4 0 58 0;
#X connect 5 0 7 0;
#X connect 5 0 8 0;
#X connect 5 0 9 0;
#X connect 7 0 36 0;
#X connect 8 0 37 0;
#X connect 9 0 43 0;
#X connect 10 0 5 0;
#X connect 11 0 12 0;
#X connect 11 0 38 0;
#X connect 11 0 34 0;
#X connect 11 0 51 0;
#X connect 12 0 39 0;
#X connect 12 0 24 1;
#X connect 12 0 47 0;
#X connect 12 0 52 0;
#X connect 12 0 55 0;
#X connect 14 0 60 0;
#X connect 16 0 24 0;
#X connect 17 0 22 0;
#X connect 18 0 31 0;
#X connect 19 0 25 0;
#X connect 20 0 10 0;
#X connect 21 0 19 0;
#X connect 22 0 23 0;
#X connect 24 0 15 0;
#X connect 25 0 18 0;
#X connect 25 0 16 0;
#X connect 25 0 17 0;
#X connect 26 0 56 0;
#X connect 27 0 26 0;
#X connect 27 0 28 0;
#X connect 28 0 56 1;
#X connect 29 0 30 0;
#X connect 29 0 44 0;
#X connect 30 0 57 1;
#X connect 31 0 56 0;
#X connect 32 0 59 0;
#X connect 33 0 6 0;
#X connect 34 0 36 1;
#X connect 35 0 0 0;
#X connect 36 0 33 0;
#X connect 37 0 13 0;
#X connect 38 0 5 2;
#X connect 39 0 5 1;
#X connect 40 0 41 0;
#X connect 41 0 37 1;
#X connect 41 0 43 1;
#X connect 41 1 31 2;
#X connect 41 1 22 2;
#X connect 42 0 1 0;
#X connect 43 0 57 0;
#X connect 44 0 57 0;
#X connect 45 0 25 1;
#X connect 46 0 25 2;
#X connect 47 0 45 0;
#X connect 47 0 46 0;
#X connect 47 0 22 1;
#X connect 48 0 50 0;
#X connect 50 0 49 0;
#X connect 51 0 49 2;
#X connect 52 0 49 1;
#X connect 53 0 14 0;
#X connect 55 0 31 1;
#X connect 58 0 32 0;
#X connect 58 0 20 0;
#X connect 58 0 21 0;
#X connect 58 0 48 0;
#X connect 59 0 11 0;
#X connect 60 0 56 0;
#X connect 61 0 57 0;
#X restore 48 70 pd EchelleOSD;
#N canvas 68 145 708 599 RotationOSD 0;
#X obj -32 31 spigot;
#X obj 67 8 inlet Control;
#X obj 147 9 loadbang;
#X msg 6 34 0;
#X obj -116 336 expr int($f1*100)/100;
#X obj -32 284 triangle 0.1;
#X obj -32 235 separator;
#X obj 88 235 separator;
#X obj -145 263 separator;
#X obj -32 83 separator;
#X obj 88 262 translateXYZ 0 0 0;
#X obj 88 284 rectangle 0.1 0.01;
#X obj -32 262 translateXYZ 0 3.9 0;
#X obj -32 180 curve 2;
#X msg -16 144 0 4 0;
#X msg 0 162 0 -4 0;
#X msg 8 358 justify left middle;
#X obj 8 339 loadbang;
#X msg 61 340 12;
#X obj -145 300 translateXYZ 0.2 0 0;
#X obj 55 129 loadbang;
#X obj -32 6 r mouseMiddButt;
#X obj -32 110 color 0 1 1;
#X obj -116 373 text2d R;
#X obj -191 121 r mouseXYpos;
#X obj -177 159 unpack f f;
#X obj -63 459 separator;
#X obj -28 478 translateXYZ 0 0 0;
#X obj 164 538 curve 2;
#X obj 188 493 loadbang;
#X msg 180 519 0 0 0;
#X obj 0 440 float;
#X obj 38 456 float;
#X obj 61 498 rotateXYZ;
#X obj 115 519 color 0 1 0;
#X obj 386 513 curve 2;
#X obj 410 468 loadbang;
#X msg 402 494 0 0 0;
#X obj 337 494 color 1 0 0;
#X obj -32 59 gemhead -99;
#X obj 234 568 triangle 0.1;
#X obj 250 449 separator;
#X obj 38 518 separator;
#X obj 234 546 translateXYZ 0 0.9 0;
#X msg 445 495 1 0 0;
#X msg 223 520 0 1 0;
#X obj 386 569 triangle 0.1;
#X obj 386 531 translateXYZ 0.9 0 0;
#X obj 386 549 rotateXYZ 0 0 -90;
#N canvas 330 147 542 413 graduation 0;
#X obj -34 77 separator;
#X obj -34 221 text2d R;
#X obj 17 179 loadbang;
#X msg 70 180 12;
#X obj -34 114 translateXYZ 0 -4 0;
#X obj -34 136 rectangle 0.05 0.01;
#X msg -34 203 0;
#X obj -34 161 translateXYZ -0.2 0 0;
#X msg 16 200 justify right bottom;
#X obj 139 75 separator;
#X obj 139 219 text2d R;
#X obj 190 177 loadbang;
#X msg 243 178 12;
#X obj 139 134 rectangle 0.05 0.01;
#X obj 139 159 translateXYZ -0.2 0 0;
#X obj 139 112 translateXYZ 0 -2 0;
#X msg 139 201 90;
#X msg 189 198 justify right middle;
#X obj 306 71 separator;
#X obj 306 215 text2d R;
#X obj 357 173 loadbang;
#X msg 410 174 12;
#X obj 306 130 rectangle 0.05 0.01;
#X obj 306 155 translateXYZ -0.2 0 0;
#X msg 356 194 justify right bottom;
#X obj 46 241 separator;
#X obj 46 385 text2d R;
#X obj 97 343 loadbang;
#X msg 150 344 12;
#X obj 46 300 rectangle 0.05 0.01;
#X obj 46 325 translateXYZ -0.2 0 0;
#X msg 96 364 justify right middle;
#X obj 306 108 translateXYZ 0 0 0;
#X msg 306 197 180;
#X msg 46 367 270;
#X obj 46 278 translateXYZ 0 2 0;
#X obj 241 235 separator;
#X obj 241 379 text2d R;
#X obj 292 337 loadbang;
#X msg 345 338 12;
#X obj 241 294 rectangle 0.05 0.01;
#X obj 241 319 translateXYZ -0.2 0 0;
#X obj 241 272 translateXYZ 0 4 0;
#X msg 241 359 360;
#X msg 291 358 justify right top;
#X obj 139 45 separator;
#X obj 139 5 separator;
#X obj 139 25 color 0 1 1;
#X obj 8 36 inlet gemList;
#X connect 0 0 4 0;
#X connect 2 0 3 0;
#X connect 2 0 8 0;
#X connect 2 0 6 0;
#X connect 3 0 1 1;
#X connect 4 0 5 0;
#X connect 5 0 7 0;
#X connect 6 0 1 0;
#X connect 7 0 1 0;
#X connect 8 0 1 0;
#X connect 9 0 15 0;
#X connect 11 0 12 0;
#X connect 11 0 17 0;
#X connect 11 0 16 0;
#X connect 12 0 10 1;
#X connect 13 0 14 0;
#X connect 14 0 10 0;
#X connect 15 0 13 0;
#X connect 16 0 10 0;
#X connect 17 0 10 0;
#X connect 18 0 32 0;
#X connect 20 0 21 0;
#X connect 20 0 24 0;
#X connect 20 0 33 0;
#X connect 21 0 19 1;
#X connect 22 0 23 0;
#X connect 23 0 19 0;
#X connect 24 0 19 0;
#X connect 25 0 35 0;
#X connect 27 0 28 0;
#X connect 27 0 31 0;
#X connect 27 0 34 0;
#X connect 28 0 26 1;
#X connect 29 0 30 0;
#X connect 30 0 26 0;
#X connect 31 0 26 0;
#X connect 32 0 22 0;
#X connect 33 0 19 0;
#X connect 34 0 26 0;
#X connect 35 0 29 0;
#X connect 36 0 42 0;
#X connect 38 0 39 0;
#X connect 38 0 44 0;
#X connect 38 0 43 0;
#X connect 39 0 37 1;
#X connect 40 0 41 0;
#X connect 41 0 37 0;
#X connect 42 0 40 0;
#X connect 43 0 37 0;
#X connect 44 0 37 0;
#X connect 45 0 18 0;
#X connect 45 0 25 0;
#X connect 45 0 36 0;
#X connect 45 0 0 0;
#X connect 45 0 9 0;
#X connect 46 0 47 0;
#X connect 47 0 45 0;
#X connect 48 0 46 0;
#X restore 240 236 pd graduation;
#X obj 41 436 r \$0-Ypos;
#X obj 6 417 r \$0-Xpos;
#X msg -116 355 list Rotate:\$1 deg;
#X obj -116 318 r \$0-Rotate;
#X obj 103 459 r \$0-Rotate;
#X connect 0 0 39 0;
#X connect 1 0 0 1;
#X connect 2 0 3 0;
#X connect 3 0 39 0;
#X connect 4 0 52 0;
#X connect 6 0 12 0;
#X connect 7 0 10 0;
#X connect 8 0 19 0;
#X connect 9 0 22 0;
#X connect 10 0 11 0;
#X connect 12 0 5 0;
#X connect 13 0 8 0;
#X connect 13 0 6 0;
#X connect 13 0 7 0;
#X connect 13 0 26 0;
#X connect 13 0 49 0;
#X connect 14 0 13 1;
#X connect 15 0 13 2;
#X connect 16 0 23 0;
#X connect 17 0 16 0;
#X connect 17 0 18 0;
#X connect 18 0 23 1;
#X connect 19 0 23 0;
#X connect 20 0 15 0;
#X connect 20 0 14 0;
#X connect 21 0 0 0;
#X connect 22 0 13 0;
#X connect 24 0 25 0;
#X connect 25 1 19 2;
#X connect 25 1 10 2;
#X connect 26 0 27 0;
#X connect 27 0 33 0;
#X connect 28 0 43 0;
#X connect 29 0 45 0;
#X connect 29 0 30 0;
#X connect 30 0 28 1;
#X connect 31 0 27 1;
#X connect 32 0 27 2;
#X connect 33 0 41 0;
#X connect 33 0 42 0;
#X connect 34 0 28 0;
#X connect 35 0 47 0;
#X connect 36 0 44 0;
#X connect 36 0 37 0;
#X connect 37 0 35 1;
#X connect 38 0 35 0;
#X connect 39 0 9 0;
#X connect 41 0 38 0;
#X connect 42 0 34 0;
#X connect 43 0 40 0;
#X connect 44 0 35 2;
#X connect 45 0 28 2;
#X connect 47 0 48 0;
#X connect 48 0 46 0;
#X connect 50 0 32 0;
#X connect 51 0 31 0;
#X connect 52 0 23 0;
#X connect 53 0 4 0;
#X connect 54 0 33 3;
#X restore 58 45 pd RotationOSD;
#X obj 35 5 r \$0-s_mousecontrol;
#X connect 3 0 0 0;
#X connect 3 0 1 0;
#X connect 3 0 2 0;
#X restore 10 217 pd OSD;
#X text 7 202 Gestion de l'affichage OnScreenDisplay;
#X obj 436 151 value globGEMampXcoord;
#X obj 42 42 r \$0-s_mousecontrol;
#X obj 232 42 r \$0-s_mousecontrol;
#X obj 422 42 r \$0-s_mousecontrol;
#X obj 389 169 expr pow($f1/$f2+0.5 \, 2)*10;
#X obj 436 103 expr pow($f1/8+0.5 \, 2)*10;
#X obj 199 124 moses 0;
#X obj 231 143 moses 361;
#X obj 199 163 s \$0-Rotate;
#X connect 0 0 1 0;
#X connect 1 0 2 0;
#X connect 1 1 3 0;
#X connect 4 0 0 0;
#X connect 6 0 4 0;
#X connect 7 0 4 1;
#X connect 8 0 9 0;
#X connect 9 1 22 0;
#X connect 10 0 8 0;
#X connect 11 0 10 0;
#X connect 13 0 14 0;
#X connect 14 0 23 0;
#X connect 14 1 31 0;
#X connect 15 0 13 0;
#X connect 16 0 15 0;
#X connect 18 0 15 1;
#X connect 19 0 10 1;
#X connect 22 0 32 0;
#X connect 23 0 30 0;
#X connect 23 1 26 0;
#X connect 26 0 30 1;
#X connect 27 0 0 1;
#X connect 28 0 8 1;
#X connect 29 0 13 1;
#X connect 30 0 21 0;
#X connect 31 0 20 0;
#X connect 32 1 33 0;
#X connect 33 0 34 0;
#X restore 209 37 pd mousecontrol;
#X obj 112 14 bng 8 250 50 0 \$0-PRESET_SAVE empty preset 12 4 0 8
-258113 -1 -1;
#N canvas 84 123 286 112 PRESET 0;
#X obj 21 13 r \$0-PRESET_SAVE;
#N canvas 118 276 255 390 PRESET_PACK 0;
#X obj 4 3 inlet get;
#X obj 8 35 bang;
#X obj 8 62 float;
#X obj 8 320 pack f f f f f f f f f f f f f;
#X obj 37 40 r \$0-Xscale;
#X obj 21 82 r \$0-Yscale;
#X obj 34 100 r \$0-Xpos;
#X obj 47 118 r \$0-Ypos;
#X obj 112 208 r \$0-Alpha;
#X obj 8 341 s PRESET_LUM_DATA;
#X obj 125 226 r \$0-modeAlpha;
#X obj 139 244 r \$0-Shape;
#X obj 60 136 r \$0-Rotate;
#X obj 73 154 r \$0-Red;
#X obj 86 172 r \$0-Green;
#X obj 99 190 r \$0-Blue;
#X obj 151 262 r \$0-RenderOrder;
#X obj 159 280 r \$0-Activate;
#X connect 0 0 1 0;
#X connect 1 0 2 0;
#X connect 2 0 3 0;
#X connect 3 0 9 0;
#X connect 4 0 2 1;
#X connect 5 0 3 1;
#X connect 6 0 3 2;
#X connect 7 0 3 3;
#X connect 8 0 3 8;
#X connect 10 0 3 9;
#X connect 11 0 3 10;
#X connect 12 0 3 4;
#X connect 13 0 3 5;
#X connect 14 0 3 6;
#X connect 15 0 3 7;
#X connect 16 0 3 11;
#X connect 17 0 3 12;
#X restore 21 32 pd PRESET_PACK;
#N canvas 720 252 283 401 PRESET_UNPACK 0;
#X obj 4 3 inlet get;
#X obj 8 25 bang;
#X obj 8 43 list;
#X obj 8 62 unpack f f f f f f f f f f f f f;
#X obj 149 127 s \$0-Shape;
#X obj 135 145 s \$0-modeAlpha;
#X obj 120 163 s \$0-Alpha;
#X obj 50 262 s \$0-Ypos;
#X obj 36 281 s \$0-Xpos;
#X obj 22 300 s \$0-Yscale;
#X obj 8 320 s \$0-Xscale;
#X obj 82 17 r PRESET_LUM_DATA;
#X obj 64 243 s \$0-Rotate;
#X obj 78 222 s \$0-Red;
#X obj 92 203 s \$0-Green;
#X obj 106 182 s \$0-Blue;
#X obj 162 109 s \$0-RenderOrder;
#X obj 172 91 s \$0-Activate;
#X connect 0 0 1 0;
#X connect 1 0 2 0;
#X connect 2 0 3 0;
#X connect 3 0 10 0;
#X connect 3 1 9 0;
#X connect 3 2 8 0;
#X connect 3 3 7 0;
#X connect 3 4 12 0;
#X connect 3 5 13 0;
#X connect 3 6 14 0;
#X connect 3 7 15 0;
#X connect 3 8 6 0;
#X connect 3 9 5 0;
#X connect 3 10 4 0;
#X connect 3 11 16 0;
#X connect 3 12 17 0;
#X connect 11 0 2 1;
#X restore 139 32 pd PRESET_UNPACK;
#X obj 139 13 r \$0-PRESET_LOAD;
#X connect 0 0 1 0;
#X connect 3 0 2 0;
#X restore 209 55 pd PRESET;
#X obj 102 14 bng 8 250 50 0 \$0-PRESET_LOAD empty empty 12 4 0 8 -4034
-1 -1;
#X obj 41 170 r OSC_MESSAGES;
#X obj 41 188 routeOSC \$1;
#X obj 301 353 line;
#X obj 45 440 image data/logo_vsl.gif;
#X obj 161 337 s \$0-Activate;
#X obj 174 317 s \$0-RenderOrder;
#X obj 124 425 s \$0-Rotate;
#X obj 145 359 symbol;
#X obj 145 379 s \$0-File;
#X obj 41 207 routeOSC /Xscale /Yscale /Xpos /Ypos /Rotate /Fichier
/File /Activate /RenderOrder /Red /Green /Blue /Alpha /modeAlpha;
#X obj 5 114 nbx 3 8 -50 -2 0 1 \$0-RenderOrder \$0-RenderOrder RenderOrder
31 5 0 8 -262144 -1 -1 -24 256;
#X obj 5 124 hradio 10 1 1 4 \$0-Shape \$0-Shape File 43 6 0 8 -262144
-1 -1 1;
#X obj 5 137 cnv 10 190 10 empty \$0-Shape-label carre.tif 0 5 0 8
-233017 -1 0;
#X obj 5 12 tgl 10 1 \$0-Activate \$0-Activate Activate 12 5 0 8 -4034
-1 -1 0 1;
#X obj 8 84 hsl 150 8 0 1 0 1 \$0-Red \$0-Red Red 5 4 0 8 -261234 -1
-1 1341 1;
#X obj 8 94 hsl 150 8 0 1 0 1 \$0-Green \$0-Green Green 5 4 0 8 -204786
-1 -1 2384 1;
#X obj 8 104 hsl 150 8 0 1 0 1 \$0-Blue \$0-Blue Blue 5 4 0 8 -203904
-1 -1 14006 1;
#X obj 118 126 tgl 10 1 \$0-modeAlpha \$0-modeAlpha modeAlpha 12 5
0 8 -1 -262144 -1 0 1;
#X obj 162 74 nbx 4 8 0 1 0 1 \$0-Alpha \$0-Alpha empty 0 -8 0 8 -262144
-1 -1 1 256;
#X obj 8 74 hsl 150 8 0 1 0 1 \$0-Alpha \$0-Alpha Alpha 5 4 0 8 -1
-262144 -262144 14900 1;
#X obj 162 84 nbx 4 8 0 1 0 1 \$0-Red \$0-Red empty 0 -8 0 8 -262144
-1 -1 0.09 256;
#X obj 162 94 nbx 4 8 0 1 0 1 \$0-Green \$0-Green empty 0 -8 0 8 -262144
-1 -1 0.16 256;
#X obj 162 104 nbx 4 8 0 1 0 1 \$0-Blue \$0-Blue empty 0 -8 0 8 -262144
-1 -1 0.94 256;
#N canvas 107 23 450 300 buffer 0;
#X msg 92 49 open data/cercle.tif 0;
#X msg 102 69 open data/carre.tif 1;
#X msg 112 89 open data/triangle.tif 2;
#X obj 55 20 bang;
#X obj 55 -3 loadbang;
#X obj 31 21 bng 15 250 50 0 empty empty empty 17 7 0 10 -262144 -1
-1;
#X obj 92 136 pix_buffer \$1 4;
#X obj 283 47 r \$0-File;
#X msg 283 69 open \$1 3;
#X connect 0 0 6 0;
#X connect 1 0 6 0;
#X connect 2 0 6 0;
#X connect 3 0 0 0;
#X connect 3 0 1 0;
#X connect 3 0 2 0;
#X connect 4 0 3 0;
#X connect 5 0 3 0;
#X connect 7 0 8 0;
#X connect 8 0 6 0;
#X restore 209 91 pd buffer;
#N canvas 104 381 367 321 shapeLabeling 0;
#X msg 22 182 cercle.tif;
#X msg 62 144 triangle.tif;
#X msg 42 163 carre.tif;
#X obj 82 105 symbol;
#X obj 115 84 symbol;
#X msg 82 125 \$1;
#X obj 170 92 s \$0-Shape;
#X msg 170 71 3;
#X obj 22 15 r \$0-Shape;
#X obj 22 42 select 0 1 2 3;
#X obj 110 39 r \$0-File;
#X obj 150 241 s \$0-Shape-label;
#X obj 139 199 symbol;
#X msg 150 221 label \$1;
#X connect 0 0 12 0;
#X connect 1 0 12 0;
#X connect 2 0 12 0;
#X connect 3 0 5 0;
#X connect 4 0 3 1;
#X connect 5 0 12 0;
#X connect 7 0 6 0;
#X connect 8 0 9 0;
#X connect 9 0 0 0;
#X connect 9 1 2 0;
#X connect 9 2 1 0;
#X connect 9 3 3 0;
#X connect 10 0 4 0;
#X connect 10 0 7 0;
#X connect 12 0 13 0;
#X connect 13 0 11 0;
#X restore 209 73 pd shapeLabeling;
#X obj 41 366 line;
#X obj 49 329 line;
#X obj 59 292 line;
#X obj 79 255 line;
#X obj 230 259 line;
#X obj 200 279 line;
#X obj 200 298 s \$0-Red;
#X obj 260 240 line;
#X obj 230 278 s \$0-Green;
#X obj 260 259 s \$0-Blue;
#X obj 124 405 line;
#X obj 187 137 bng 10 250 50 0 empty empty empty 13 5 0 8 -262144 -1
-1;
#X obj 136 166 openpanel;
#X msg 136 185 /File \$1;
#X obj 81 456 zac.copyright;
#X obj 118 114 bng 10 250 50 0 empty empty ColorChooser 13 6 0 8 -262144
-1 -1;
#X obj 224 136 symbol \$1;
#N canvas 45 59 367 126 ColorChooser-\$1 0;
#X obj 89 9 pdp_colorgrid pdp_colorgrid1 256 0 256 50 0 50 0 1 1 10
10 256 32;
#N canvas 700 167 450 300 control2OSC 0;
#X obj 80 255 s OSC_MESSAGES;
#X msg 284 145 \$1/Blue \$2;
#X obj 34 56 inlet;
#X obj 164 56 inlet;
#X obj 285 56 inlet;
#X msg 159 145 \$1/Green \$2;
#X msg 35 145 \$1/Red \$2;
#X obj 35 124 list prepend \$1;
#X obj 159 124 list prepend \$1;
#X obj 284 124 list prepend \$1;
#X obj 5 2 cnv 11 60 11 empty \$0-rlabel R:0.09 2 6 0 8 -86277 -262144
0;
#X obj 70 2 cnv 11 60 11 empty \$0-glabel G:0.16 2 6 0 8 -13381 -262144
0;
#X obj 135 2 cnv 11 60 11 empty \$0-blabel B:0.94 2 6 0 8 -40 -262144
0;
#X msg 17 166 label R:\$1;
#X obj 17 186 s \$0-rlabel;
#X msg 147 166 label G:\$1;
#X msg 267 166 label B:\$1;
#X obj 147 186 s \$0-glabel;
#X obj 267 186 s \$0-blabel;
#X obj -1 84 expr int($f1/255*100)/100;
#X obj 139 84 expr int($f1/255*100)/100;
#X obj 279 84 expr int($f1/255*100)/100;
#X connect 1 0 0 0;
#X connect 2 0 19 0;
#X connect 3 0 20 0;
#X connect 4 0 21 0;
#X connect 5 0 0 0;
#X connect 6 0 0 0;
#X connect 7 0 6 0;
#X connect 8 0 5 0;
#X connect 9 0 1 0;
#X connect 13 0 14 0;
#X connect 15 0 17 0;
#X connect 16 0 18 0;
#X connect 19 0 7 0;
#X connect 19 0 13 0;
#X connect 20 0 15 0;
#X connect 20 0 8 0;
#X connect 21 0 16 0;
#X connect 21 0 9 0;
#X coords 0 -1 1 1 200 15 2 0 0;
#X restore 117 65 pd control2OSC;
#X obj 44 69 image data/logo_vsl.gif;
#X obj 80 85 zac.copyright;
#X connect 0 0 1 0;
#X connect 0 1 1 1;
#X connect 0 2 1 2;
#X restore 225 115 pd ColorChooser-\$1;
#X msg 224 157 \; pd-ColorChooser-\$1 vis 1;
#X connect 12 0 13 0;
#X connect 13 0 15 0;
#X connect 14 0 16 0;
#X connect 15 0 14 0;
#X connect 16 0 17 0;
#X connect 17 0 18 0;
#X connect 30 0 31 0;
#X connect 31 0 39 0;
#X connect 32 0 23 0;
#X connect 37 0 38 0;
#X connect 39 0 55 0;
#X connect 39 1 56 0;
#X connect 39 2 57 0;
#X connect 39 3 58 0;
#X connect 39 4 65 0;
#X connect 39 5 37 0;
#X connect 39 6 37 0;
#X connect 39 7 34 0;
#X connect 39 8 35 0;
#X connect 39 9 60 0;
#X connect 39 10 59 0;
#X connect 39 11 62 0;
#X connect 39 12 32 0;
#X connect 39 13 24 0;
#X connect 55 0 19 0;
#X connect 56 0 20 0;
#X connect 57 0 21 0;
#X connect 58 0 22 0;
#X connect 59 0 63 0;
#X connect 60 0 61 0;
#X connect 62 0 64 0;
#X connect 65 0 36 0;
#X connect 66 0 67 0;
#X connect 67 0 68 0;
#X connect 68 0 39 0;
#X connect 70 0 71 0;
#X connect 71 0 73 0;
#X coords 0 0 10 1 200 150 1 0 0;
