#N canvas 216 218 495 395 8;
#X declare -path ./lib/sssad;
#X obj 3 14 tgl 10 1 \$0-Activate \$0-Activate Activate 13 5 0 8 -4034
-1 -1 0 1;
#X obj 6 26 hsl 150 8 0.1 20 0 1 \$0-Scale \$0-Scale Scale 10 4 0 8
-228856 -1 -1 674 1;
#X obj 160 26 nbx 5 8 0.1 20 0 1 \$0-Scale \$0-Scale empty 0 -8 0 8
-262144 -1 -1 1.00017 256;
#N canvas 906 254 229 103 init 0;
#X obj 12 12 declare -path ./lib/sssad;
#X restore 211 0 pd init;
#X obj 3 96 tgl 10 0 \$0-calage \$0-calage calage 13 5 0 8 -159808
-1 -1 0 1;
#N canvas 65 292 471 305 data-persistence 0;
#X obj 163 169 sssad \$1/Alpha;
#X obj 163 190 s \$0-Alpha;
#X obj 13 239 sssad \$1/modeAlpha;
#X obj 13 260 s \$0-modeAlpha;
#X obj 183 30 sssad \$1/Scale;
#X obj 183 51 s \$0-Scale;
#X obj 290 244 change;
#X obj 163 148 r \$0-Alpha;
#X obj 183 9 r \$0-Scale;
#X obj 13 218 r \$0-modeAlpha;
#X obj 183 79 r \$0-Xpos;
#X obj 183 100 sssad \$1/Xpos;
#X obj 183 121 s \$0-Xpos;
#X obj 333 139 r \$0-Ypos;
#X obj 333 160 sssad \$1/Ypos;
#X obj 333 181 s \$0-Ypos;
#X obj 343 219 r \$0-Gain;
#X obj 343 240 sssad \$1/Gain;
#X obj 343 261 s \$0-Gain;
#X obj 12 148 r \$0-Contrast;
#X obj 12 169 sssad \$1/Contrast;
#X obj 12 190 s \$0-Contrast;
#X obj 11 30 sssad \$1/Activate;
#X obj 11 9 r \$0-Activate;
#X obj 11 51 s \$0-Activate;
#X obj 12 77 r \$0-Rotate;
#X obj 12 98 sssad \$1/Rotate;
#X obj 12 119 s \$0-Rotate;
#X obj 178 223 r \$0-RenderOrder;
#X obj 178 244 sssad \$1/RenderOrder;
#X obj 178 265 s \$0-RenderOrder;
#X obj 333 9 r \$0-Masque;
#X obj 333 30 sssad \$1/Masque;
#X obj 333 51 s \$0-Masque;
#X connect 0 0 1 0;
#X connect 2 0 3 0;
#X connect 4 0 5 0;
#X connect 6 0 30 0;
#X connect 7 0 0 1;
#X connect 8 0 4 1;
#X connect 9 0 2 1;
#X connect 10 0 11 1;
#X connect 11 0 12 0;
#X connect 13 0 14 1;
#X connect 14 0 15 0;
#X connect 16 0 17 1;
#X connect 17 0 18 0;
#X connect 19 0 20 1;
#X connect 20 0 21 0;
#X connect 22 0 24 0;
#X connect 23 0 22 1;
#X connect 25 0 26 1;
#X connect 26 0 27 0;
#X connect 28 0 6 0;
#X connect 28 0 29 1;
#X connect 29 0 30 0;
#X connect 31 0 32 1;
#X connect 32 0 33 0;
#X restore 211 18 pd data-persistence;
#X obj 3 106 tgl 10 1 \$0-modeAlpha \$0-modeAlpha modeAlpha 13 5 0
8 -1 -262144 -1 0 1;
#X obj 6 66 hsl 150 8 0 1 0 1 \$0-Alpha \$0-Alpha Alpha 10 4 0 8 -1
-262144 -262144 14900 1;
#X obj 160 66 nbx 5 8 0 1 0 1 \$0-Alpha \$0-Alpha empty 0 -8 0 8 -262144
-1 -1 1 256;
#N canvas 857 74 319 342 video 0;
#X obj 45 8 inlet gemList;
#X obj 45 315 outlet gemList;
#X obj 45 297 pix_texture;
#X obj 88 33 r \$0-Alpha;
#X obj 45 54 colorRGB 1 1 1 1;
#X obj 68 74 r \$0-Device;
#X msg 68 93 device \$1;
#X obj 45 151 pix_mask;
#X obj 152 78 gemhead 20;
#X obj 152 96 pix_image;
#X msg 224 78 open \$1;
#X obj 45 133 pix_rgba;
#X obj 45 115 pix_video;
#X obj 152 115 pix_resize 320 240;
#X obj 45 168 alpha;
#X obj 45 216 pix_gain;
#X obj 88 178 r \$0-Gain;
#X obj 45 279 pix_contrast;
#X obj 73 261 clip 0 10;
#X obj 88 196 clip 0 255;
#X obj 73 243 r \$0-Contrast;
#X msg 197 140 label Masque:\$1;
#X obj 224 58 r \$0-Masque;
#X obj 197 162 s \$0-Masque-label;
#X obj -2 74 r \$0-Dialog;
#X msg -2 93 dialog;
#X connect 0 0 4 0;
#X connect 2 0 1 0;
#X connect 3 0 4 4;
#X connect 4 0 12 0;
#X connect 5 0 6 0;
#X connect 6 0 12 0;
#X connect 7 0 14 0;
#X connect 8 0 9 0;
#X connect 9 0 13 0;
#X connect 10 0 9 0;
#X connect 11 0 7 0;
#X connect 12 0 11 0;
#X connect 13 0 7 1;
#X connect 14 0 15 0;
#X connect 15 0 17 0;
#X connect 16 0 19 0;
#X connect 17 0 2 0;
#X connect 18 0 17 1;
#X connect 19 0 15 1;
#X connect 20 0 18 0;
#X connect 21 0 23 0;
#X connect 22 0 10 0;
#X connect 22 0 21 0;
#X connect 24 0 25 0;
#X connect 25 0 12 0;
#X restore 356 61 pd video;
#N canvas 189 440 318 200 position 0;
#X obj 13 44 translateXYZ;
#X obj 13 -18 inlet gemList;
#X obj 13 68 outlet gemList;
#X text 9 91 cette partie definie la matrice de translation des objets
de la meme branche. on recoit les valeurs Xpos et Ypos depuis un wireless
issu du canvas d'interface.;
#X obj 97 -65 r \$0-Xpos;
#X obj 187 -65 r \$0-Ypos;
#X obj 128 -41 r GLOBALSCALING;
#X obj 128 -21 t b f;
#X obj 97 16 * 1;
#X obj 187 24 * 1;
#X connect 0 0 2 0;
#X connect 1 0 0 0;
#X connect 4 0 8 0;
#X connect 5 0 9 0;
#X connect 6 0 7 0;
#X connect 7 0 8 0;
#X connect 7 0 9 0;
#X connect 7 1 8 1;
#X connect 7 1 9 1;
#X connect 8 0 0 1;
#X connect 9 0 0 2;
#X restore 356 82 pd position;
#N canvas 446 101 331 209 echelle 0;
#X obj 163 49 expr 1 / $f1;
#X obj 10 8 inlet gemList;
#X obj 10 154 outlet gemList;
#X obj 163 30 r \$0-Scale;
#X obj 26 64 t b;
#X obj 26 85 float 1;
#X obj 58 43 r GLOBALSCALING;
#X msg 163 72 list \$1 \$1 \$1;
#X obj 10 128 scale 1;
#X connect 0 0 7 0;
#X connect 1 0 8 0;
#X connect 3 0 0 0;
#X connect 4 0 5 0;
#X connect 5 0 8 1;
#X connect 6 0 5 1;
#X connect 6 0 4 0;
#X connect 7 0 8 2;
#X connect 8 0 2 0;
#X restore 356 119 pd echelle;
#N canvas 316 98 197 149 alpha 0;
#X obj 33 57 alpha;
#X obj 33 8 inlet gemList;
#X obj 33 88 outlet gemList;
#X obj 60 30 r \$0-modeAlpha;
#X connect 0 0 2 0;
#X connect 1 0 0 0;
#X connect 3 0 0 1;
#X restore 356 144 pd alpha;
#N canvas 472 375 229 152 forme 0;
#X obj 10 36 inlet gemList;
#X obj 10 116 outlet gemList;
#X obj 10 95 rectangle 4 3;
#X connect 0 0 2 0;
#X connect 2 0 1 0;
#X restore 356 170 pd forme;
#N canvas 766 46 249 100 brancheGem 0;
#X obj 13 71 outlet gemList;
#X msg 122 28 set \$1;
#X obj 13 45 gemhead;
#X obj 13 25 r \$0-Activate;
#X obj 122 6 r \$0-RenderOrder;
#X connect 1 0 2 0;
#X connect 2 0 0 0;
#X connect 3 0 2 0;
#X connect 4 0 1 0;
#X restore 401 17 pd brancheGem;
#N canvas 236 141 397 250 calage 0;
#X text 9 11 cette partie gere le routage vers la video ou non. ainsi
on obtient soit un rectangle mappe \, soit un rectangle blanc \, ce
qui nous permet de realiser le calage de la video dans la scene (dont
le fond est noir \, pas facile sinon).;
#X obj 113 70 inlet gemList;
#X obj 207 70 r \$0-calage;
#X obj 89 134 expr 1-$f1;
#X obj 201 154 spigot;
#X obj 201 176 outlet gemList-sans-image;
#X obj 52 176 outlet gemList-avec-image;
#X obj 52 152 spigot 1;
#X connect 1 0 4 0;
#X connect 1 0 7 0;
#X connect 2 0 3 0;
#X connect 2 0 4 1;
#X connect 3 0 7 1;
#X connect 4 0 5 0;
#X connect 7 0 6 0;
#X restore 401 40 pd calage;
#X obj 148 289 s \$0-Alpha;
#X obj 157 247 s \$0-modeAlpha;
#X obj 21 250 s \$0-Scale;
#X obj 167 96 nbx 4 8 -50 -1 0 1 \$0-RenderOrder \$0-RenderOrder-order
RenderOrder -60 5 0 8 -262144 -1 -1 -50 256;
#X obj 6 36 hsl 150 8 0 360 0 1 \$0-Rotate \$0-Rotate Rotate 10 4 0
8 -228856 -1 -1 0 1;
#X obj 160 36 nbx 5 8 0 360 0 1 \$0-Rotate \$0-Rotate empty 0 -8 0
8 -262144 -1 -1 0 256;
#N canvas 104 66 197 133 rotation 0;
#X obj 13 17 inlet gemList;
#X obj 15 99 outlet gemList;
#X obj 28 65 rotate 0 0 0 1;
#X obj 68 44 r \$0-Rotate;
#X connect 0 0 2 0;
#X connect 2 0 1 0;
#X connect 3 0 2 1;
#X restore 356 101 pd rotation;
#X obj 21 155 r OSC_MESSAGES;
#X obj 21 173 routeOSC \$1;
#N canvas 563 421 588 264 mousecontrol 0;
#X obj 9 65 spigot;
#X obj 9 86 unpack f f;
#X obj 9 127 s \$0-Xpos;
#X obj 66 107 s \$0-Ypos;
#X obj 9 21 spigot;
#X text 13 149 Left Mouse => Position XY;
#X obj 9 -18 r mouseXYpos;
#X obj 42 2 r mouseLeftButt;
#X obj 199 65 spigot;
#X obj 199 86 unpack f f;
#X obj 199 21 spigot;
#X obj 199 -18 r mouseXYpos;
#X text 203 179 Middle Mouse => Rotation;
#X obj 389 65 spigot;
#X obj 389 86 unpack f f;
#X obj 389 21 spigot;
#X obj 389 -18 r mouseXYpos;
#X text 403 139 Right Mouse => Scale XY;
#X obj 422 2 r mouseRightButt;
#X obj 232 2 r mouseMiddButt;
#X obj 199 106 expr ($f1 + 4) / 8 * 360;
#X text 7 202 Gestion de l'affichage OnScreenDisplay;
#X obj 42 42 r \$0-s_mousecontrol;
#X obj 232 42 r \$0-s_mousecontrol;
#X obj 422 42 r \$0-s_mousecontrol;
#X obj 436 103 expr pow($f1/8+0.5 \, 2)*10;
#X obj 199 124 moses 0;
#X obj 231 143 moses 361;
#X obj 436 120 s \$0-Scale;
#N canvas 972 578 279 121 OSD 0;
#N canvas 174 84 864 459 PositionOSD 0;
#X obj -32 6 r mouseLeftButt;
#X obj -116 308 r \$0-Xpos;
#X obj -32 31 spigot;
#X obj -116 327 expr int($f1*100)/100;
#X obj 67 8 inlet Control;
#X obj 147 9 loadbang;
#X msg 6 34 0;
#X obj -116 364 text2d Xpos;
#X obj -32 205 curve 2;
#X obj -32 295 triangle 0.1;
#X obj -32 226 separator;
#X obj 88 226 separator;
#X obj 88 253 translateXYZ 0 0 0;
#X obj 146 227 r \$0-Xpos;
#X obj -145 226 separator;
#X obj -32 101 color 1 0 0;
#X obj 35 136 / 2;
#X obj 35 154 * -1;
#X msg -16 169 \$1 0 0;
#X msg 0 187 \$1 0 0;
#X obj 88 275 rectangle 0.01 0.1;
#X obj -145 291 translateXYZ 0 -0.2 0;
#X obj 274 327 expr int($f1*100)/100;
#X obj 358 275 triangle 0.1;
#X obj 358 226 separator;
#X obj 478 226 separator;
#X obj 245 254 separator;
#X obj 358 101 color 0 1 0;
#X obj 536 227 r \$0-Ypos;
#X obj -32 79 separator;
#X obj 358 74 separator;
#X obj 478 253 translateXYZ 0 0 0;
#X obj 478 275 rectangle 0.1 0.01;
#X obj 358 253 translateXYZ 0 3.9 0;
#X obj 348 205 curve 2;
#X msg 364 169 0 4 0;
#X msg 380 187 0 -4 0;
#X obj 274 308 r \$0-Ypos;
#X obj 284 273 r \$0-Ypos;
#X obj -111 268 r \$0-Xpos;
#X msg 398 349 justify left middle;
#X obj 398 330 loadbang;
#X msg 451 331 12;
#X obj 0 330 loadbang;
#X msg 0 349 12;
#X obj 245 291 translateXYZ 0.2 0 0;
#X obj 35 81 t b;
#X obj -32 245 translateXYZ 0 0 0;
#X obj -13 270 rotateXYZ 0 0 -90;
#X obj 33 224 - 0.1;
#X obj 435 154 loadbang;
#X obj 274 364 text2d Ypos;
#X obj -32 59 gemhead -99;
#X obj 35 108 value globGEMampXcoord;
#X msg -116 346 symbol Xpos:\$1;
#X msg 274 346 symbol Ypos:\$1;
#X connect 0 0 2 0;
#X connect 1 0 3 0;
#X connect 2 0 52 0;
#X connect 3 0 54 0;
#X connect 4 0 2 1;
#X connect 5 0 6 0;
#X connect 6 0 52 0;
#X connect 8 0 10 0;
#X connect 8 0 11 0;
#X connect 8 0 14 0;
#X connect 10 0 47 0;
#X connect 11 0 12 0;
#X connect 12 0 20 0;
#X connect 13 0 12 1;
#X connect 14 0 21 0;
#X connect 15 0 8 0;
#X connect 16 0 17 0;
#X connect 16 0 19 0;
#X connect 16 0 49 0;
#X connect 17 0 18 0;
#X connect 18 0 8 1;
#X connect 19 0 8 2;
#X connect 21 0 7 0;
#X connect 22 0 55 0;
#X connect 24 0 33 0;
#X connect 25 0 31 0;
#X connect 26 0 45 0;
#X connect 27 0 34 0;
#X connect 28 0 31 2;
#X connect 29 0 15 0;
#X connect 30 0 27 0;
#X connect 31 0 32 0;
#X connect 33 0 23 0;
#X connect 34 0 26 0;
#X connect 34 0 24 0;
#X connect 34 0 25 0;
#X connect 35 0 34 1;
#X connect 36 0 34 2;
#X connect 37 0 22 0;
#X connect 38 0 45 2;
#X connect 39 0 21 1;
#X connect 40 0 51 0;
#X connect 41 0 40 0;
#X connect 41 0 42 0;
#X connect 42 0 51 1;
#X connect 43 0 44 0;
#X connect 44 0 7 1;
#X connect 45 0 51 0;
#X connect 46 0 53 0;
#X connect 47 0 48 0;
#X connect 48 0 9 0;
#X connect 49 0 47 1;
#X connect 50 0 36 0;
#X connect 50 0 35 0;
#X connect 52 0 29 0;
#X connect 52 0 30 0;
#X connect 52 0 46 0;
#X connect 53 0 16 0;
#X connect 54 0 7 0;
#X connect 55 0 51 0;
#X restore 35 92 pd PositionOSD;
#N canvas 131 62 916 422 EchelleOSD 0;
#X obj -32 31 spigot;
#X obj 67 8 inlet Control;
#X obj 147 9 loadbang;
#X msg 6 34 0;
#X obj 35 146 / 2;
#X obj 35 164 * -1;
#X obj 274 327 expr int($f1*100)/100;
#X obj 362 285 triangle 0.1;
#X obj 362 236 separator;
#X obj 478 226 separator;
#X obj 245 254 separator;
#X obj 358 101 color 0 1 0;
#X obj 358 74 separator;
#X obj 478 253 translateXYZ 0 0 0;
#X obj 478 275 rectangle 0.1 0.01;
#X obj 362 263 translateXYZ 0 3.9 0;
#X obj 348 205 curve 2;
#X msg 398 349 justify left middle;
#X obj 398 330 loadbang;
#X msg 451 331 12;
#X obj 245 291 translateXYZ 0.2 0 0;
#X obj 35 81 t b;
#X obj -32 6 r mouseRightButt;
#X obj 198 79 r mouseXYpos;
#X obj 198 98 unpack f f;
#X msg 364 169 \$1 4 0;
#X msg 380 187 \$1 -4 0;
#X obj 370 146 + 0.01;
#X obj 645 74 separator;
#X obj 635 205 curve 2;
#X obj 645 101 color 0.5 0.5 1;
#X msg 667 187 \$1 4 0;
#X msg 651 169 \$1 -4 0;
#X text 408 146 pour pouvoir la distinguer sur le cote;
#X obj 275 273 + 0.2;
#X obj 274 364 text2d Yscale;
#X obj -32 59 gemhead -99;
#X obj 35 116 value globGEMampXcoord;
#X obj 274 308 r \$0-Scale;
#X msg 274 346 symbol Scale:\$1;
#X connect 0 0 36 0;
#X connect 1 0 0 1;
#X connect 2 0 3 0;
#X connect 3 0 36 0;
#X connect 4 0 5 0;
#X connect 4 0 31 0;
#X connect 5 0 15 1;
#X connect 5 0 27 0;
#X connect 5 0 32 0;
#X connect 5 0 34 0;
#X connect 6 0 39 0;
#X connect 8 0 15 0;
#X connect 9 0 13 0;
#X connect 10 0 20 0;
#X connect 11 0 16 0;
#X connect 12 0 11 0;
#X connect 13 0 14 0;
#X connect 15 0 7 0;
#X connect 16 0 10 0;
#X connect 16 0 9 0;
#X connect 16 0 8 0;
#X connect 17 0 35 0;
#X connect 18 0 17 0;
#X connect 18 0 19 0;
#X connect 19 0 35 1;
#X connect 20 0 35 0;
#X connect 21 0 37 0;
#X connect 22 0 0 0;
#X connect 23 0 24 0;
#X connect 24 1 20 2;
#X connect 24 1 13 2;
#X connect 25 0 16 1;
#X connect 26 0 16 2;
#X connect 27 0 25 0;
#X connect 27 0 26 0;
#X connect 27 0 13 1;
#X connect 28 0 30 0;
#X connect 30 0 29 0;
#X connect 31 0 29 2;
#X connect 32 0 29 1;
#X connect 34 0 20 1;
#X connect 36 0 21 0;
#X connect 36 0 12 0;
#X connect 36 0 28 0;
#X connect 37 0 4 0;
#X connect 38 0 6 0;
#X connect 39 0 35 0;
#X restore 48 70 pd EchelleOSD;
#N canvas 68 145 708 599 RotationOSD 0;
#X obj -32 31 spigot;
#X obj 67 8 inlet Control;
#X obj 147 9 loadbang;
#X msg 6 34 0;
#X obj -116 336 expr int($f1*100)/100;
#X obj -32 284 triangle 0.1;
#X obj -32 235 separator;
#X obj 88 235 separator;
#X obj -145 263 separator;
#X obj -32 83 separator;
#X obj 88 262 translateXYZ 0 0 0;
#X obj 88 284 rectangle 0.1 0.01;
#X obj -32 262 translateXYZ 0 3.9 0;
#X obj -32 180 curve 2;
#X msg -16 144 0 4 0;
#X msg 0 162 0 -4 0;
#X msg 8 358 justify left middle;
#X obj 8 339 loadbang;
#X msg 61 340 12;
#X obj -145 300 translateXYZ 0.2 0 0;
#X obj 55 129 loadbang;
#X obj -32 6 r mouseMiddButt;
#X obj -32 110 color 0 1 1;
#X obj -116 373 text2d R;
#X obj -191 121 r mouseXYpos;
#X obj -177 159 unpack f f;
#X obj -63 459 separator;
#X obj -28 478 translateXYZ 0 0 0;
#X obj 164 538 curve 2;
#X obj 188 493 loadbang;
#X msg 180 519 0 0 0;
#X obj 0 440 float;
#X obj 38 456 float;
#X obj 61 498 rotateXYZ;
#X obj 115 519 color 0 1 0;
#X obj 386 513 curve 2;
#X obj 410 468 loadbang;
#X msg 402 494 0 0 0;
#X obj 337 494 color 1 0 0;
#X obj -32 59 gemhead -99;
#X obj 234 568 triangle 0.1;
#X obj 250 449 separator;
#X obj 38 518 separator;
#X obj 234 546 translateXYZ 0 0.9 0;
#X msg 445 495 1 0 0;
#X msg 223 520 0 1 0;
#X obj 386 569 triangle 0.1;
#X obj 386 531 translateXYZ 0.9 0 0;
#X obj 386 549 rotateXYZ 0 0 -90;
#N canvas 330 147 542 413 graduation 0;
#X obj -34 77 separator;
#X obj -34 221 text2d R;
#X obj 17 179 loadbang;
#X msg 70 180 12;
#X obj -34 114 translateXYZ 0 -4 0;
#X obj -34 136 rectangle 0.05 0.01;
#X msg -34 203 0;
#X obj -34 161 translateXYZ -0.2 0 0;
#X msg 16 200 justify right bottom;
#X obj 139 75 separator;
#X obj 139 219 text2d R;
#X obj 190 177 loadbang;
#X msg 243 178 12;
#X obj 139 134 rectangle 0.05 0.01;
#X obj 139 159 translateXYZ -0.2 0 0;
#X obj 139 112 translateXYZ 0 -2 0;
#X msg 139 201 90;
#X msg 189 198 justify right middle;
#X obj 306 71 separator;
#X obj 306 215 text2d R;
#X obj 357 173 loadbang;
#X msg 410 174 12;
#X obj 306 130 rectangle 0.05 0.01;
#X obj 306 155 translateXYZ -0.2 0 0;
#X msg 356 194 justify right bottom;
#X obj 46 241 separator;
#X obj 46 385 text2d R;
#X obj 97 343 loadbang;
#X msg 150 344 12;
#X obj 46 300 rectangle 0.05 0.01;
#X obj 46 325 translateXYZ -0.2 0 0;
#X msg 96 364 justify right middle;
#X obj 306 108 translateXYZ 0 0 0;
#X msg 306 197 180;
#X msg 46 367 270;
#X obj 46 278 translateXYZ 0 2 0;
#X obj 241 235 separator;
#X obj 241 379 text2d R;
#X obj 292 337 loadbang;
#X msg 345 338 12;
#X obj 241 294 rectangle 0.05 0.01;
#X obj 241 319 translateXYZ -0.2 0 0;
#X obj 241 272 translateXYZ 0 4 0;
#X msg 241 359 360;
#X msg 291 358 justify right top;
#X obj 139 45 separator;
#X obj 139 5 separator;
#X obj 139 25 color 0 1 1;
#X obj 8 36 inlet gemList;
#X connect 0 0 4 0;
#X connect 2 0 3 0;
#X connect 2 0 8 0;
#X connect 2 0 6 0;
#X connect 3 0 1 1;
#X connect 4 0 5 0;
#X connect 5 0 7 0;
#X connect 6 0 1 0;
#X connect 7 0 1 0;
#X connect 8 0 1 0;
#X connect 9 0 15 0;
#X connect 11 0 12 0;
#X connect 11 0 17 0;
#X connect 11 0 16 0;
#X connect 12 0 10 1;
#X connect 13 0 14 0;
#X connect 14 0 10 0;
#X connect 15 0 13 0;
#X connect 16 0 10 0;
#X connect 17 0 10 0;
#X connect 18 0 32 0;
#X connect 20 0 21 0;
#X connect 20 0 24 0;
#X connect 20 0 33 0;
#X connect 21 0 19 1;
#X connect 22 0 23 0;
#X connect 23 0 19 0;
#X connect 24 0 19 0;
#X connect 25 0 35 0;
#X connect 27 0 28 0;
#X connect 27 0 31 0;
#X connect 27 0 34 0;
#X connect 28 0 26 1;
#X connect 29 0 30 0;
#X connect 30 0 26 0;
#X connect 31 0 26 0;
#X connect 32 0 22 0;
#X connect 33 0 19 0;
#X connect 34 0 26 0;
#X connect 35 0 29 0;
#X connect 36 0 42 0;
#X connect 38 0 39 0;
#X connect 38 0 44 0;
#X connect 38 0 43 0;
#X connect 39 0 37 1;
#X connect 40 0 41 0;
#X connect 41 0 37 0;
#X connect 42 0 40 0;
#X connect 43 0 37 0;
#X connect 44 0 37 0;
#X connect 45 0 18 0;
#X connect 45 0 25 0;
#X connect 45 0 36 0;
#X connect 45 0 0 0;
#X connect 45 0 9 0;
#X connect 46 0 47 0;
#X connect 47 0 45 0;
#X connect 48 0 46 0;
#X restore 240 236 pd graduation;
#X obj 41 436 r \$0-Ypos;
#X obj 6 417 r \$0-Xpos;
#X obj -116 318 r \$0-Rotate;
#X obj 103 460 r \$0-Rotate;
#X msg -116 355 list Rotate:\$1 deg;
#X connect 0 0 39 0;
#X connect 1 0 0 1;
#X connect 2 0 3 0;
#X connect 3 0 39 0;
#X connect 4 0 54 0;
#X connect 6 0 12 0;
#X connect 7 0 10 0;
#X connect 8 0 19 0;
#X connect 9 0 22 0;
#X connect 10 0 11 0;
#X connect 12 0 5 0;
#X connect 13 0 8 0;
#X connect 13 0 6 0;
#X connect 13 0 7 0;
#X connect 13 0 26 0;
#X connect 13 0 49 0;
#X connect 14 0 13 1;
#X connect 15 0 13 2;
#X connect 16 0 23 0;
#X connect 17 0 16 0;
#X connect 17 0 18 0;
#X connect 18 0 23 1;
#X connect 19 0 23 0;
#X connect 20 0 15 0;
#X connect 20 0 14 0;
#X connect 21 0 0 0;
#X connect 22 0 13 0;
#X connect 24 0 25 0;
#X connect 25 1 19 2;
#X connect 25 1 10 2;
#X connect 26 0 27 0;
#X connect 27 0 33 0;
#X connect 28 0 43 0;
#X connect 29 0 45 0;
#X connect 29 0 30 0;
#X connect 30 0 28 1;
#X connect 31 0 27 1;
#X connect 32 0 27 2;
#X connect 33 0 41 0;
#X connect 33 0 42 0;
#X connect 34 0 28 0;
#X connect 35 0 47 0;
#X connect 36 0 44 0;
#X connect 36 0 37 0;
#X connect 37 0 35 1;
#X connect 38 0 35 0;
#X connect 39 0 9 0;
#X connect 41 0 38 0;
#X connect 42 0 34 0;
#X connect 43 0 40 0;
#X connect 44 0 35 2;
#X connect 45 0 28 2;
#X connect 47 0 48 0;
#X connect 48 0 46 0;
#X connect 50 0 32 0;
#X connect 51 0 31 0;
#X connect 52 0 4 0;
#X connect 53 0 33 3;
#X connect 54 0 23 0;
#X restore 58 45 pd RotationOSD;
#X obj 35 5 r \$0-s_mousecontrol;
#X connect 3 0 0 0;
#X connect 3 0 1 0;
#X connect 3 0 2 0;
#X restore 10 217 pd OSD;
#X obj 199 163 s \$0-Rotate;
#X connect 0 0 1 0;
#X connect 1 0 2 0;
#X connect 1 1 3 0;
#X connect 4 0 0 0;
#X connect 6 0 4 0;
#X connect 7 0 4 1;
#X connect 8 0 9 0;
#X connect 9 1 20 0;
#X connect 10 0 8 0;
#X connect 11 0 10 0;
#X connect 13 0 14 0;
#X connect 14 1 25 0;
#X connect 15 0 13 0;
#X connect 16 0 15 0;
#X connect 18 0 15 1;
#X connect 19 0 10 1;
#X connect 20 0 26 0;
#X connect 22 0 0 1;
#X connect 23 0 8 1;
#X connect 24 0 13 1;
#X connect 25 0 28 0;
#X connect 26 1 27 0;
#X connect 27 0 30 0;
#X restore 211 36 pd mousecontrol;
#N canvas 48 266 286 112 PRESET 0;
#X obj 21 13 r \$0-PRESET_SAVE;
#N canvas 653 208 255 390 PRESET_PACK 0;
#X obj 4 3 inlet get;
#X obj 8 35 bang;
#X obj 8 62 float;
#X obj 34 100 r \$0-Xpos;
#X obj 47 118 r \$0-Ypos;
#X obj 62 137 r \$0-Alpha;
#X obj 37 40 r \$0-Scale;
#X obj 8 341 s PRESET_ANIM_DATA;
#X obj 101 202 r \$0-modeAlpha;
#X obj 20 81 r \$0-Rotate;
#X obj 73 159 r \$0-Contrast;
#X obj 86 180 r \$0-Gain;
#X obj 121 225 r \$0-RenderOrder;
#X obj 133 245 r \$0-Activate;
#X obj 8 320 pack f f f f f f f f f f s;
#X obj 145 268 r \$0-Masque;
#X obj 145 290 symbol;
#X connect 0 0 1 0;
#X connect 1 0 2 0;
#X connect 2 0 14 0;
#X connect 3 0 14 2;
#X connect 4 0 14 3;
#X connect 5 0 14 4;
#X connect 6 0 2 1;
#X connect 8 0 14 7;
#X connect 9 0 14 1;
#X connect 10 0 14 5;
#X connect 11 0 14 6;
#X connect 12 0 14 8;
#X connect 13 0 14 9;
#X connect 14 0 7 0;
#X connect 15 0 16 0;
#X connect 16 0 14 10;
#X restore 21 32 pd PRESET_PACK;
#N canvas 349 209 283 401 PRESET_UNPACK 0;
#X obj 4 3 inlet get;
#X obj 8 25 bang;
#X obj 8 43 list;
#X obj 107 176 s \$0-modeAlpha;
#X obj 63 241 s \$0-Alpha;
#X obj 50 262 s \$0-Ypos;
#X obj 36 281 s \$0-Xpos;
#X obj 82 17 r PRESET_ANIM_DATA;
#X obj 8 320 s \$0-Scale;
#X obj 19 301 s \$0-Rotate;
#X obj 124 153 s \$0-RenderOrder;
#X obj 139 132 s \$0-Activate;
#X obj 93 198 s \$0-Gain;
#X obj 78 218 s \$0-Contrast;
#X obj 8 62 unpack f f f f f f f f f f s;
#X obj 150 105 s \$0-Masque;
#X connect 0 0 1 0;
#X connect 1 0 2 0;
#X connect 2 0 14 0;
#X connect 7 0 2 1;
#X connect 14 0 8 0;
#X connect 14 1 9 0;
#X connect 14 2 6 0;
#X connect 14 3 5 0;
#X connect 14 4 4 0;
#X connect 14 5 13 0;
#X connect 14 6 12 0;
#X connect 14 7 3 0;
#X connect 14 8 10 0;
#X connect 14 9 11 0;
#X connect 14 10 15 0;
#X restore 139 32 pd PRESET_UNPACK;
#X obj 139 13 r \$0-PRESET_LOAD;
#X connect 0 0 1 0;
#X connect 3 0 2 0;
#X restore 211 54 pd PRESET;
#X obj 6 46 hsl 150 8 -20 20 0 1 \$0-Xpos \$0-Xpos Xpos 10 4 0 8 -228856
-1 -1 7450 1;
#X obj 6 56 hsl 150 8 -10 10 0 1 \$0-Ypos \$0-Ypos Ypos 10 4 0 8 -228856
-1 -1 7450 1;
#X obj 160 46 nbx 5 8 -20 20 0 1 \$0-Xpos \$0-Xpos empty 0 -8 0 8 -262144
-1 -1 0 256;
#X obj 160 56 nbx 5 8 -10 10 0 1 \$0-Ypos \$0-Ypos empty 0 -8 0 8 -262144
-1 -1 0 256;
#X obj 126 15 tgl 8 0 \$0-s_mousecontrol \$0-mousecontrol ctl. 10 4
0 8 -4034 -1 -258113 0 1;
#X obj 76 15 bng 8 250 50 0 \$0-PRESET_SAVE empty preset 12 4 0 8 -258113
-1 -1;
#X obj 66 15 bng 8 250 50 0 \$0-PRESET_LOAD empty empty 12 4 0 8 -4034
-1 -1;
#X obj 345 264 s \$0-Xpos;
#X obj 405 264 s \$0-Ypos;
#X obj 148 271 line;
#X obj 52 268 line;
#X obj 21 229 line;
#X obj 345 246 line;
#X obj 405 244 line;
#X obj 84 248 s \$0-Device;
#X obj 218 270 symbol;
#X obj 218 289 s \$0-Masque;
#X obj 84 227 symbol;
#X obj 167 106 nbx 4 8 0 12 0 1 \$0-Device \$0-Device Device -36 5
0 8 -262144 -1 -1 0 256;
#X obj 6 76 hsl 150 8 0.01 10 1 1 \$0-Contrast \$0-Contrast Contrast
10 4 0 8 -1 -262144 -262144 9933 1;
#X obj 160 76 nbx 5 8 0 10 0 1 \$0-Contrast \$0-Contrast empty 0 -8
0 8 -262144 -1 -1 0.999845 256;
#X obj 6 86 hsl 150 8 0.255 255 1 1 \$0-Gain \$0-Gain Gain 10 4 0 8
-1 -262144 -262144 2948 1;
#X obj 160 86 nbx 5 8 0 255 0 1 \$0-Gain \$0-Gain empty 0 -8 0 8 -262144
-1 -1 1.00022 256;
#X obj 21 192 routeOSC /Scale /Rotate /Device /Masque /Alpha /modeAlpha
/Contrast /Activate /Gain /Xpos /Ypos;
#X obj 259 249 line;
#X obj 259 267 s \$0-Contrast;
#X obj 332 286 line;
#X obj 332 304 s \$0-Gain;
#X obj 65 350 image data/logo_vsl.gif;
#X obj 52 288 s \$0-Rotate;
#X obj 201 226 s \$0-Activate;
#X obj 3 117 cnv 10 199 10 empty \$0-Masque-label Masque: 0 5 0 8 -233017
-1 0;
#X obj 193 14 bng 10 250 50 0 \$0-Dialog empty DevDlg -32 6 0 8 -4160
-262144 -1;
#X obj 101 366 zac.copyright;
#X connect 9 0 10 0;
#X connect 10 0 22 0;
#X connect 11 0 12 0;
#X connect 12 0 13 0;
#X connect 14 0 15 0;
#X connect 15 0 9 0;
#X connect 15 1 10 0;
#X connect 22 0 11 0;
#X connect 23 0 24 0;
#X connect 24 0 50 0;
#X connect 36 0 16 0;
#X connect 37 0 56 0;
#X connect 38 0 18 0;
#X connect 39 0 34 0;
#X connect 40 0 35 0;
#X connect 42 0 43 0;
#X connect 44 0 41 0;
#X connect 50 0 38 0;
#X connect 50 1 37 0;
#X connect 50 2 44 0;
#X connect 50 3 42 0;
#X connect 50 4 36 0;
#X connect 50 5 17 0;
#X connect 50 6 51 0;
#X connect 50 7 57 0;
#X connect 50 8 53 0;
#X connect 50 9 39 0;
#X connect 50 10 40 0;
#X connect 51 0 52 0;
#X connect 53 0 54 0;
#X coords 0 0 10 1 205 130 1 0 0;
