#N canvas 393 68 455 481 10;
#X obj 113 156 pack s f;
#X obj 66 133 symbol \$1;
#X obj 27 14 tgl 15 0 empty \$0-connected connected 20 8 0 8 -24198
-1 -1 1 1;
#X msg 27 199 disconnect;
#X obj 113 276 tcpsend;
#X msg 113 177 connect \$1 \$2;
#X obj 66 95 t b b;
#X obj 158 112 float \$2;
#X obj 27 70 moses 1;
#X obj 27 49 change;
#X obj 113 310 moses 1;
#X obj 152 375 s \$0-connected;
#X msg 27 224 bang;
#X obj 27 293 float;
#X obj 27 247 delay 2500;
#X msg 113 353 0 \, label disconnected \, color 13 -1 -1;
#X msg 152 333 1 \, label connected \, color 16 -1 -1;
#X obj 230 236 packOSCstream;
#X msg 230 109 prefix \$1;
#X obj 230 85 symbol \$3;
#X obj 35 336 loadbang;
#X obj 230 63 trigger bang;
#X obj 261 405 outlet connected;
#X obj 261 384 bang;
#X obj 230 259 spigot;
#X obj 246 152 routeOSC \$3;
#X obj 246 133 r OSC_MESSAGES;
#X obj 66 423 image data/logo_vsl.gif;
#X obj 246 193 routeOSC /Connect /Disconnect;
#X obj 331 236 s \$0-connected;
#X msg 246 214 1;
#X msg 331 214 0;
#X obj 332 106 s \$0-connected;
#X obj 246 172 routeOSC /network;
#X obj 332 59 loadbang;
#X obj 332 82 delay 5000;
#X obj 26 446 zac.copyright;
#X connect 0 0 5 0;
#X connect 1 0 0 0;
#X connect 2 0 9 0;
#X connect 2 0 24 1;
#X connect 3 0 4 0;
#X connect 4 0 10 0;
#X connect 4 0 13 1;
#X connect 5 0 4 0;
#X connect 6 0 1 0;
#X connect 6 1 7 0;
#X connect 7 0 0 1;
#X connect 8 0 3 0;
#X connect 8 1 6 0;
#X connect 9 0 8 0;
#X connect 9 0 12 0;
#X connect 10 0 15 0;
#X connect 10 1 16 0;
#X connect 10 1 21 0;
#X connect 10 1 23 0;
#X connect 12 0 14 0;
#X connect 13 0 10 0;
#X connect 14 0 13 0;
#X connect 15 0 11 0;
#X connect 16 0 11 0;
#X connect 17 0 24 0;
#X connect 18 0 17 0;
#X connect 19 0 18 0;
#X connect 20 0 15 0;
#X connect 21 0 19 0;
#X connect 23 0 22 0;
#X connect 24 0 4 0;
#X connect 25 0 33 0;
#X connect 25 0 17 0;
#X connect 26 0 25 0;
#X connect 28 0 30 0;
#X connect 28 1 31 0;
#X connect 30 0 29 0;
#X connect 31 0 29 0;
#X connect 33 0 28 0;
#X connect 34 0 35 0;
#X connect 35 0 32 0;
#X coords 0 -1 1 1 200 30 1 0 0;
