#N canvas 386 70 380 1130 8;
#X declare -path ./lib/sssad;
#X obj 8 24 hsl 150 8 0.005 500 1 1 \$0-Scale \$0-Scale Scale 5 4 0
8 -228856 -1 -1 11259 1;
#X obj 8 34 hsl 150 8 -20 20 0 1 \$0-Xpos \$0-Xpos Xpos 5 4 0 8 -228856
-1 -1 7450 1;
#X obj 8 44 hsl 150 8 -10 10 0 1 \$0-Ypos \$0-Ypos Ypos 5 4 0 8 -228856
-1 -1 7450 1;
#X obj 162 24 nbx 4 8 0 500 0 1 \$0-Scale \$0-Scale empty 0 -8 0 8
-262144 -1 -1 30.0025 256;
#X obj 162 34 nbx 4 8 -20 20 0 1 \$0-Xpos \$0-Xpos empty 0 -8 0 8 -262144
-1 -1 0 256;
#X obj 162 44 nbx 4 8 -10 10 0 1 \$0-Ypos \$0-Ypos empty 0 -8 0 8 -262144
-1 -1 0 256;
#N canvas 372 312 266 140 init 0;
#X obj 6 10 loadbang;
#X msg 6 51 1;
#X obj 84 13 declare -path ./lib/sssad;
#X obj 6 73 s \$0-Activate;
#X connect 0 0 1 0;
#X connect 1 0 3 0;
#X restore 209 1 pd init;
#N canvas 1538 70 382 1130 data-persistence 0;
#X obj 11 124 s \$0-Xpos;
#X obj 91 124 s \$0-Ypos;
#X obj 11 103 sssad \$1/Xpos;
#X obj 91 103 sssad \$1/Ypos;
#X obj 145 250 sssad \$1/RenderOrder;
#X obj 11 82 r \$0-Xpos;
#X obj 91 82 r \$0-Ypos;
#X obj 260 201 s \$0-Alpha;
#X obj 260 180 sssad \$1/Alpha;
#X obj 261 160 r \$0-Alpha;
#X obj 11 9 r \$0-Activate;
#X obj 11 30 sssad \$1/Activate;
#X obj 11 51 s \$0-Activate;
#X obj 11 161 r \$0-Red;
#X obj 11 182 sssad \$1/Red;
#X obj 11 203 s \$0-Red;
#X obj 97 161 r \$0-Green;
#X obj 97 182 sssad \$1/Green;
#X obj 97 203 s \$0-Green;
#X obj 179 160 r \$0-Blue;
#X obj 179 181 sssad \$1/Blue;
#X obj 179 202 s \$0-Blue;
#X obj 145 229 r \$0-RenderOrder;
#X obj 145 271 s \$0-RenderOrder;
#X obj 11 233 r \$0-Antialiasing;
#X obj 11 275 s \$0-Antialiasing;
#X obj 11 254 sssad \$1/Antialiasing;
#X obj 130 9 r \$0-Scale;
#X obj 130 30 sssad \$1/Scale;
#X obj 130 51 s \$0-Scale;
#X obj 227 10 r \$0-TextList;
#X obj 227 31 sssad \$1/TextList;
#X obj 227 52 s \$0-TextList;
#X connect 2 0 0 0;
#X connect 3 0 1 0;
#X connect 4 0 23 0;
#X connect 5 0 2 1;
#X connect 6 0 3 1;
#X connect 8 0 7 0;
#X connect 9 0 8 1;
#X connect 10 0 11 1;
#X connect 11 0 12 0;
#X connect 13 0 14 1;
#X connect 14 0 15 0;
#X connect 16 0 17 1;
#X connect 17 0 18 0;
#X connect 19 0 20 1;
#X connect 20 0 21 0;
#X connect 22 0 4 1;
#X connect 24 0 26 1;
#X connect 26 0 25 0;
#X connect 27 0 28 1;
#X connect 28 0 29 0;
#X connect 30 0 31 1;
#X connect 31 0 32 0;
#X restore 209 19 pd data-persistence;
#N canvas 265 58 274 117 brancheGem 0;
#X obj 9 51 gemhead;
#X msg 112 34 set \$1;
#X obj -21 81 outlet gemList;
#X obj 112 12 r \$0-RenderOrder;
#X obj 9 22 r \$0-Activate;
#X connect 0 0 2 0;
#X connect 1 0 0 0;
#X connect 3 0 1 0;
#X connect 4 0 0 0;
#X restore 321 8 pd brancheGem;
#N canvas 357 213 278 163 position 0;
#X obj 9 2 inlet gemList;
#X obj 11 134 outlet gemList;
#X obj 66 102 translateXYZ 0 0 0;
#X obj 88 -2 r \$0-Xpos;
#X obj 178 -2 r \$0-Ypos;
#X obj 119 22 r GLOBALSCALING;
#X obj 119 42 t b f;
#X obj 88 79 * 1;
#X obj 178 87 * 1;
#X connect 0 0 2 0;
#X connect 2 0 1 0;
#X connect 3 0 7 0;
#X connect 4 0 8 0;
#X connect 5 0 6 0;
#X connect 6 0 7 0;
#X connect 6 0 8 0;
#X connect 6 1 7 1;
#X connect 6 1 8 1;
#X connect 7 0 2 1;
#X connect 8 0 2 2;
#X restore 321 35 pd position;
#N canvas 802 523 1118 195 couleur 0;
#X obj 10 50 inlet gemList;
#X obj 12 182 outlet gemList;
#X obj 75 147 colorRGB 1 1 1 1;
#X obj 168 75 r \$0-Alpha;
#X obj 98 18 r \$0-Red;
#X obj 121 37 r \$0-Green;
#X obj 144 56 r \$0-Blue;
#X connect 0 0 2 0;
#X connect 2 0 1 0;
#X connect 3 0 2 4;
#X connect 4 0 2 1;
#X connect 5 0 2 2;
#X connect 6 0 2 3;
#X restore 321 66 pd couleur;
#N canvas 802 523 1118 195 alpha 0;
#X obj 10 10 inlet gemList;
#X obj 12 92 outlet gemList;
#X obj 25 74 alpha;
#X obj 52 31 r \$0-modeAlpha;
#X connect 0 0 2 0;
#X connect 2 0 1 0;
#X connect 3 0 2 1;
#X restore 321 93 pd alpha;
#N canvas 1442 43 478 1157 objet 0;
#X obj 7 9 inlet gemList;
#X obj 29 189 outlet gemList;
#X obj 65 161 text2d;
#X obj 92 143 r \$0-Scale;
#X msg 79 81 alias \$1;
#X obj 61 35 r \$0-TextList;
#X obj 79 61 r \$0-Antialiasing;
#X connect 0 0 2 0;
#X connect 2 0 1 0;
#X connect 3 0 2 1;
#X connect 4 0 2 0;
#X connect 5 0 2 0;
#X connect 6 0 4 0;
#X restore 321 120 pd objet;
#X obj 211 324 s \$0-Xscale;
#X obj 229 249 s \$0-Xpos;
#X obj 245 212 s \$0-Ypos;
#X obj 162 14 tgl 8 0 \$0-s_mousecontrol \$0-mousecontrol ctl. 10 4
0 8 -4034 -1 -258113 0 1;
#N canvas 802 523 1118 195 mousecontrol 0;
#X obj 9 65 spigot;
#X obj 9 86 unpack f f;
#X obj 9 127 s \$0-Xpos;
#X obj 66 107 s \$0-Ypos;
#X obj 9 21 spigot;
#X text 13 149 Left Mouse => Position XY;
#X obj 9 -18 r mouseXYpos;
#X obj 42 2 r mouseLeftButt;
#X obj 229 65 spigot;
#X obj 229 86 unpack f f;
#X obj 229 21 spigot;
#X obj 229 -18 r mouseXYpos;
#X obj 262 2 r mouseRightButt;
#X obj 229 134 t a b;
#N canvas 972 578 279 121 OSD 0;
#N canvas 174 84 864 459 PositionOSD 0;
#X obj -32 6 r mouseLeftButt;
#X obj -116 308 r \$0-Xpos;
#X obj -32 31 spigot;
#X obj -116 327 expr int($f1*100)/100;
#X obj 67 8 inlet Control;
#X obj 147 9 loadbang;
#X msg 6 34 0;
#X obj -116 364 text2d Xpos;
#X obj -32 205 curve 2;
#X obj -32 295 triangle 0.1;
#X obj -32 226 separator;
#X obj 88 226 separator;
#X obj 88 253 translateXYZ 0 0 0;
#X obj 146 227 r \$0-Xpos;
#X obj -145 226 separator;
#X obj -32 101 color 1 0 0;
#X obj 35 136 / 2;
#X obj 35 154 * -1;
#X msg -16 169 \$1 0 0;
#X msg 0 187 \$1 0 0;
#X obj 88 275 rectangle 0.01 0.1;
#X obj -145 291 translateXYZ 0 -0.2 0;
#X obj 274 327 expr int($f1*100)/100;
#X obj 358 275 triangle 0.1;
#X obj 358 226 separator;
#X obj 478 226 separator;
#X obj 245 254 separator;
#X obj 358 101 color 0 1 0;
#X obj 536 227 r \$0-Ypos;
#X obj -32 79 separator;
#X obj 358 74 separator;
#X obj 478 253 translateXYZ 0 0 0;
#X obj 478 275 rectangle 0.1 0.01;
#X obj 358 253 translateXYZ 0 3.9 0;
#X obj 348 205 curve 2;
#X msg 364 169 0 4 0;
#X msg 380 187 0 -4 0;
#X obj 274 308 r \$0-Ypos;
#X obj 284 273 r \$0-Ypos;
#X obj -111 268 r \$0-Xpos;
#X msg 398 349 justify left middle;
#X obj 398 330 loadbang;
#X msg 451 331 12;
#X obj 0 330 loadbang;
#X msg 0 349 12;
#X obj 245 291 translateXYZ 0.2 0 0;
#X obj 35 81 t b;
#X obj -32 245 translateXYZ 0 0 0;
#X obj -13 270 rotateXYZ 0 0 -90;
#X obj 33 224 - 0.1;
#X obj 435 154 loadbang;
#X obj 274 364 text2d Ypos;
#X obj -32 59 gemhead -99;
#X obj 35 108 value globGEMampXcoord;
#X msg -116 346 symbol Xpos:\$1;
#X msg 274 346 symbol Ypos:\$1;
#X connect 0 0 2 0;
#X connect 1 0 3 0;
#X connect 2 0 52 0;
#X connect 3 0 54 0;
#X connect 4 0 2 1;
#X connect 5 0 6 0;
#X connect 6 0 52 0;
#X connect 8 0 10 0;
#X connect 8 0 11 0;
#X connect 8 0 14 0;
#X connect 10 0 47 0;
#X connect 11 0 12 0;
#X connect 12 0 20 0;
#X connect 13 0 12 1;
#X connect 14 0 21 0;
#X connect 15 0 8 0;
#X connect 16 0 17 0;
#X connect 16 0 19 0;
#X connect 16 0 49 0;
#X connect 17 0 18 0;
#X connect 18 0 8 1;
#X connect 19 0 8 2;
#X connect 21 0 7 0;
#X connect 22 0 55 0;
#X connect 24 0 33 0;
#X connect 25 0 31 0;
#X connect 26 0 45 0;
#X connect 27 0 34 0;
#X connect 28 0 31 2;
#X connect 29 0 15 0;
#X connect 30 0 27 0;
#X connect 31 0 32 0;
#X connect 33 0 23 0;
#X connect 34 0 26 0;
#X connect 34 0 24 0;
#X connect 34 0 25 0;
#X connect 35 0 34 1;
#X connect 36 0 34 2;
#X connect 37 0 22 0;
#X connect 38 0 45 2;
#X connect 39 0 21 1;
#X connect 40 0 51 0;
#X connect 41 0 40 0;
#X connect 41 0 42 0;
#X connect 42 0 51 1;
#X connect 43 0 44 0;
#X connect 44 0 7 1;
#X connect 45 0 51 0;
#X connect 46 0 53 0;
#X connect 47 0 48 0;
#X connect 48 0 9 0;
#X connect 49 0 47 1;
#X connect 50 0 36 0;
#X connect 50 0 35 0;
#X connect 52 0 29 0;
#X connect 52 0 30 0;
#X connect 52 0 46 0;
#X connect 53 0 16 0;
#X connect 54 0 7 0;
#X connect 55 0 51 0;
#X restore 35 92 pd PositionOSD;
#N canvas 131 62 916 422 EchelleOSD 0;
#X obj -32 31 spigot;
#X obj -116 357 expr int($f1*100)/100;
#X obj 67 8 inlet Control;
#X obj 147 9 loadbang;
#X msg 6 34 0;
#X obj -32 215 curve 2;
#X obj -32 325 triangle 0.1;
#X obj -32 256 separator;
#X obj 88 256 separator;
#X obj -145 256 separator;
#X obj -32 111 color 1 0 0;
#X obj 35 146 / 2;
#X obj 35 164 * -1;
#X obj 88 305 rectangle 0.01 0.1;
#X obj 274 327 expr int($f1*100)/100;
#X obj 358 275 triangle 0.1;
#X obj 358 226 separator;
#X obj 478 226 separator;
#X obj 245 254 separator;
#X obj 358 101 color 0 1 0;
#X obj -32 82 separator;
#X obj 358 74 separator;
#X obj 478 253 translateXYZ 0 0 0;
#X obj 478 275 rectangle 0.1 0.01;
#X obj 358 253 translateXYZ 0 3.9 0;
#X obj 348 205 curve 2;
#X msg 398 349 justify left middle;
#X obj 398 330 loadbang;
#X msg 451 331 12;
#X obj 0 360 loadbang;
#X msg 0 379 12;
#X obj 245 291 translateXYZ 0.2 0 0;
#X obj 35 81 t b;
#X obj -13 300 rotateXYZ 0 0 -90;
#X obj 33 254 - 0.1;
#X obj -32 6 r mouseRightButt;
#X obj -32 275 translateXYZ 0 -4 0;
#X obj 88 283 translateXYZ 0 -4 0;
#X msg 0 197 \$1 -4 0;
#X msg -16 179 \$1 -4 0;
#X obj 198 79 r mouseXYpos;
#X obj 198 98 unpack f f;
#X obj -116 338 r \$0-Xscale;
#X obj -145 321 translateXYZ 0 -3.8 0;
#X msg 28 379 justify left middle;
#X msg 364 169 \$1 4 0;
#X msg 380 187 \$1 -4 0;
#X obj 370 146 + 0.01;
#X obj 645 74 separator;
#X obj 635 205 curve 2;
#X obj 645 101 color 0.5 0.5 1;
#X msg 667 187 \$1 4 0;
#X msg 651 169 \$1 -4 0;
#X obj 274 308 r \$0-Yscale;
#X text 408 146 pour pouvoir la distinguer sur le cote;
#X obj 275 273 + 0.2;
#X obj 274 364 text2d Yscale;
#X obj -116 394 text2d Xscale;
#X obj -32 59 gemhead -99;
#X obj 35 116 value globGEMampXcoord;
#X msg 274 346 symbol Yscale:\$1;
#X msg -116 376 symbol Xscale:\$1;
#X connect 0 0 58 0;
#X connect 1 0 61 0;
#X connect 2 0 0 1;
#X connect 3 0 4 0;
#X connect 4 0 58 0;
#X connect 5 0 7 0;
#X connect 5 0 8 0;
#X connect 5 0 9 0;
#X connect 7 0 36 0;
#X connect 8 0 37 0;
#X connect 9 0 43 0;
#X connect 10 0 5 0;
#X connect 11 0 12 0;
#X connect 11 0 38 0;
#X connect 11 0 34 0;
#X connect 11 0 51 0;
#X connect 12 0 39 0;
#X connect 12 0 24 1;
#X connect 12 0 47 0;
#X connect 12 0 52 0;
#X connect 12 0 55 0;
#X connect 14 0 60 0;
#X connect 16 0 24 0;
#X connect 17 0 22 0;
#X connect 18 0 31 0;
#X connect 19 0 25 0;
#X connect 20 0 10 0;
#X connect 21 0 19 0;
#X connect 22 0 23 0;
#X connect 24 0 15 0;
#X connect 25 0 18 0;
#X connect 25 0 16 0;
#X connect 25 0 17 0;
#X connect 26 0 56 0;
#X connect 27 0 26 0;
#X connect 27 0 28 0;
#X connect 28 0 56 1;
#X connect 29 0 30 0;
#X connect 29 0 44 0;
#X connect 30 0 57 1;
#X connect 31 0 56 0;
#X connect 32 0 59 0;
#X connect 33 0 6 0;
#X connect 34 0 36 1;
#X connect 35 0 0 0;
#X connect 36 0 33 0;
#X connect 37 0 13 0;
#X connect 38 0 5 2;
#X connect 39 0 5 1;
#X connect 40 0 41 0;
#X connect 41 0 37 1;
#X connect 41 0 43 1;
#X connect 41 1 31 2;
#X connect 41 1 22 2;
#X connect 42 0 1 0;
#X connect 43 0 57 0;
#X connect 44 0 57 0;
#X connect 45 0 25 1;
#X connect 46 0 25 2;
#X connect 47 0 45 0;
#X connect 47 0 46 0;
#X connect 47 0 22 1;
#X connect 48 0 50 0;
#X connect 50 0 49 0;
#X connect 51 0 49 2;
#X connect 52 0 49 1;
#X connect 53 0 14 0;
#X connect 55 0 31 1;
#X connect 58 0 32 0;
#X connect 58 0 20 0;
#X connect 58 0 21 0;
#X connect 58 0 48 0;
#X connect 59 0 11 0;
#X connect 60 0 56 0;
#X connect 61 0 57 0;
#X restore 48 70 pd EchelleOSD;
#N canvas 68 145 708 599 RotationOSD 0;
#X obj -32 31 spigot;
#X obj 67 8 inlet Control;
#X obj 147 9 loadbang;
#X msg 6 34 0;
#X obj -116 336 expr int($f1*100)/100;
#X obj -32 284 triangle 0.1;
#X obj -32 235 separator;
#X obj 88 235 separator;
#X obj -145 263 separator;
#X obj -32 83 separator;
#X obj 88 262 translateXYZ 0 0 0;
#X obj 88 284 rectangle 0.1 0.01;
#X obj -32 262 translateXYZ 0 3.9 0;
#X obj -32 180 curve 2;
#X msg -16 144 0 4 0;
#X msg 0 162 0 -4 0;
#X msg 8 358 justify left middle;
#X obj 8 339 loadbang;
#X msg 61 340 12;
#X obj -145 300 translateXYZ 0.2 0 0;
#X obj 55 129 loadbang;
#X obj -32 6 r mouseMiddButt;
#X obj -32 110 color 0 1 1;
#X obj -116 373 text2d R;
#X obj -191 121 r mouseXYpos;
#X obj -177 159 unpack f f;
#X obj -63 459 separator;
#X obj -28 478 translateXYZ 0 0 0;
#X obj 164 538 curve 2;
#X obj 188 493 loadbang;
#X msg 180 519 0 0 0;
#X obj 0 440 float;
#X obj 38 456 float;
#X obj 61 498 rotateXYZ;
#X obj 115 519 color 0 1 0;
#X obj 386 513 curve 2;
#X obj 410 468 loadbang;
#X msg 402 494 0 0 0;
#X obj 337 494 color 1 0 0;
#X obj -32 59 gemhead -99;
#X obj 234 568 triangle 0.1;
#X obj 250 449 separator;
#X obj 38 518 separator;
#X obj 234 546 translateXYZ 0 0.9 0;
#X msg 445 495 1 0 0;
#X msg 223 520 0 1 0;
#X obj 386 569 triangle 0.1;
#X obj 386 531 translateXYZ 0.9 0 0;
#X obj 386 549 rotateXYZ 0 0 -90;
#N canvas 330 147 542 413 graduation 0;
#X obj -34 77 separator;
#X obj -34 221 text2d R;
#X obj 17 179 loadbang;
#X msg 70 180 12;
#X obj -34 114 translateXYZ 0 -4 0;
#X obj -34 136 rectangle 0.05 0.01;
#X msg -34 203 0;
#X obj -34 161 translateXYZ -0.2 0 0;
#X msg 16 200 justify right bottom;
#X obj 139 75 separator;
#X obj 139 219 text2d R;
#X obj 190 177 loadbang;
#X msg 243 178 12;
#X obj 139 134 rectangle 0.05 0.01;
#X obj 139 159 translateXYZ -0.2 0 0;
#X obj 139 112 translateXYZ 0 -2 0;
#X msg 139 201 90;
#X msg 189 198 justify right middle;
#X obj 306 71 separator;
#X obj 306 215 text2d R;
#X obj 357 173 loadbang;
#X msg 410 174 12;
#X obj 306 130 rectangle 0.05 0.01;
#X obj 306 155 translateXYZ -0.2 0 0;
#X msg 356 194 justify right bottom;
#X obj 46 241 separator;
#X obj 46 385 text2d R;
#X obj 97 343 loadbang;
#X msg 150 344 12;
#X obj 46 300 rectangle 0.05 0.01;
#X obj 46 325 translateXYZ -0.2 0 0;
#X msg 96 364 justify right middle;
#X obj 306 108 translateXYZ 0 0 0;
#X msg 306 197 180;
#X msg 46 367 270;
#X obj 46 278 translateXYZ 0 2 0;
#X obj 241 235 separator;
#X obj 241 379 text2d R;
#X obj 292 337 loadbang;
#X msg 345 338 12;
#X obj 241 294 rectangle 0.05 0.01;
#X obj 241 319 translateXYZ -0.2 0 0;
#X obj 241 272 translateXYZ 0 4 0;
#X msg 241 359 360;
#X msg 291 358 justify right top;
#X obj 139 45 separator;
#X obj 139 5 separator;
#X obj 139 25 color 0 1 1;
#X obj 8 36 inlet gemList;
#X connect 0 0 4 0;
#X connect 2 0 3 0;
#X connect 2 0 8 0;
#X connect 2 0 6 0;
#X connect 3 0 1 1;
#X connect 4 0 5 0;
#X connect 5 0 7 0;
#X connect 6 0 1 0;
#X connect 7 0 1 0;
#X connect 8 0 1 0;
#X connect 9 0 15 0;
#X connect 11 0 12 0;
#X connect 11 0 17 0;
#X connect 11 0 16 0;
#X connect 12 0 10 1;
#X connect 13 0 14 0;
#X connect 14 0 10 0;
#X connect 15 0 13 0;
#X connect 16 0 10 0;
#X connect 17 0 10 0;
#X connect 18 0 32 0;
#X connect 20 0 21 0;
#X connect 20 0 24 0;
#X connect 20 0 33 0;
#X connect 21 0 19 1;
#X connect 22 0 23 0;
#X connect 23 0 19 0;
#X connect 24 0 19 0;
#X connect 25 0 35 0;
#X connect 27 0 28 0;
#X connect 27 0 31 0;
#X connect 27 0 34 0;
#X connect 28 0 26 1;
#X connect 29 0 30 0;
#X connect 30 0 26 0;
#X connect 31 0 26 0;
#X connect 32 0 22 0;
#X connect 33 0 19 0;
#X connect 34 0 26 0;
#X connect 35 0 29 0;
#X connect 36 0 42 0;
#X connect 38 0 39 0;
#X connect 38 0 44 0;
#X connect 38 0 43 0;
#X connect 39 0 37 1;
#X connect 40 0 41 0;
#X connect 41 0 37 0;
#X connect 42 0 40 0;
#X connect 43 0 37 0;
#X connect 44 0 37 0;
#X connect 45 0 18 0;
#X connect 45 0 25 0;
#X connect 45 0 36 0;
#X connect 45 0 0 0;
#X connect 45 0 9 0;
#X connect 46 0 47 0;
#X connect 47 0 45 0;
#X connect 48 0 46 0;
#X restore 240 236 pd graduation;
#X obj 41 436 r \$0-Ypos;
#X obj 6 417 r \$0-Xpos;
#X msg -116 355 list Rotate:\$1 deg;
#X obj -116 318 r \$0-Rotate;
#X obj 103 459 r \$0-Rotate;
#X connect 0 0 39 0;
#X connect 1 0 0 1;
#X connect 2 0 3 0;
#X connect 3 0 39 0;
#X connect 4 0 52 0;
#X connect 6 0 12 0;
#X connect 7 0 10 0;
#X connect 8 0 19 0;
#X connect 9 0 22 0;
#X connect 10 0 11 0;
#X connect 12 0 5 0;
#X connect 13 0 8 0;
#X connect 13 0 6 0;
#X connect 13 0 7 0;
#X connect 13 0 26 0;
#X connect 13 0 49 0;
#X connect 14 0 13 1;
#X connect 15 0 13 2;
#X connect 16 0 23 0;
#X connect 17 0 16 0;
#X connect 17 0 18 0;
#X connect 18 0 23 1;
#X connect 19 0 23 0;
#X connect 20 0 15 0;
#X connect 20 0 14 0;
#X connect 21 0 0 0;
#X connect 22 0 13 0;
#X connect 24 0 25 0;
#X connect 25 1 19 2;
#X connect 25 1 10 2;
#X connect 26 0 27 0;
#X connect 27 0 33 0;
#X connect 28 0 43 0;
#X connect 29 0 45 0;
#X connect 29 0 30 0;
#X connect 30 0 28 1;
#X connect 31 0 27 1;
#X connect 32 0 27 2;
#X connect 33 0 41 0;
#X connect 33 0 42 0;
#X connect 34 0 28 0;
#X connect 35 0 47 0;
#X connect 36 0 44 0;
#X connect 36 0 37 0;
#X connect 37 0 35 1;
#X connect 38 0 35 0;
#X connect 39 0 9 0;
#X connect 41 0 38 0;
#X connect 42 0 34 0;
#X connect 43 0 40 0;
#X connect 44 0 35 2;
#X connect 45 0 28 2;
#X connect 47 0 48 0;
#X connect 48 0 46 0;
#X connect 50 0 32 0;
#X connect 51 0 31 0;
#X connect 52 0 23 0;
#X connect 53 0 4 0;
#X connect 54 0 33 3;
#X restore 58 45 pd RotationOSD;
#X obj 35 5 r \$0-s_mousecontrol;
#X connect 3 0 0 0;
#X connect 3 0 1 0;
#X connect 3 0 2 0;
#X restore 10 217 pd OSD;
#X text 7 202 Gestion de l'affichage OnScreenDisplay;
#X obj 276 151 value globGEMampXcoord;
#X obj 42 42 r \$0-s_mousecontrol;
#X obj 262 42 r \$0-s_mousecontrol;
#X obj 229 187 s \$0-Scale;
#X text 233 209 Right Mouse => Scale;
#X obj 229 168 expr pow($f1/$f2+0.5 \, 2)*500;
#X connect 0 0 1 0;
#X connect 1 0 2 0;
#X connect 1 1 3 0;
#X connect 4 0 0 0;
#X connect 6 0 4 0;
#X connect 7 0 4 1;
#X connect 8 0 9 0;
#X connect 9 0 13 0;
#X connect 10 0 8 0;
#X connect 11 0 10 0;
#X connect 12 0 10 1;
#X connect 13 0 21 0;
#X connect 13 1 16 0;
#X connect 16 0 21 1;
#X connect 17 0 0 1;
#X connect 18 0 8 1;
#X connect 21 0 19 0;
#X restore 209 37 pd mousecontrol;
#X obj 112 14 bng 8 250 50 0 \$0-PRESET_SAVE empty preset 12 4 0 8
-258113 -1 -1;
#N canvas 770 70 380 1130 PRESET 1;
#X obj 21 13 r \$0-PRESET_SAVE;
#N canvas 1538 70 382 1130 PRESET_PACK 1;
#X obj 4 3 inlet get;
#X obj 8 35 bang;
#X obj 8 62 float;
#X obj 34 100 r \$0-Xpos;
#X obj 47 118 r \$0-Ypos;
#X obj 99 191 r \$0-Alpha;
#X obj 60 137 r \$0-Red;
#X obj 73 155 r \$0-Green;
#X obj 86 173 r \$0-Blue;
#X obj 112 210 r \$0-RenderOrder;
#X obj 120 228 r \$0-Activate;
#X obj 37 40 r \$0-Scale;
#X obj 21 82 r \$0-Antialiasing;
#X obj 133 247 r \$0-TextList;
#X obj 8 341 s PRESET_TEXT_DATA;
#X obj 8 320 pack f f f f f f f f f f l;
#X connect 0 0 1 0;
#X connect 1 0 2 0;
#X connect 2 0 15 0;
#X connect 3 0 15 2;
#X connect 4 0 15 3;
#X connect 5 0 15 7;
#X connect 6 0 15 4;
#X connect 7 0 15 5;
#X connect 8 0 15 6;
#X connect 9 0 15 8;
#X connect 10 0 15 9;
#X connect 11 0 2 1;
#X connect 12 0 15 1;
#X connect 13 0 15 10;
#X connect 15 0 14 0;
#X restore 21 32 pd PRESET_PACK;
#N canvas 1154 70 380 1130 PRESET_UNPACK 1;
#X obj 4 3 inlet get;
#X obj 8 25 bang;
#X obj 8 43 list;
#X obj 108 183 s \$0-Alpha;
#X obj 50 262 s \$0-Ypos;
#X obj 36 281 s \$0-Xpos;
#X obj 66 242 s \$0-Red;
#X obj 80 223 s \$0-Green;
#X obj 94 202 s \$0-Blue;
#X obj 120 164 s \$0-RenderOrder;
#X obj 130 146 s \$0-Activate;
#X obj 82 17 r PRESET_TEXT_DATA;
#X obj 8 62 unpack f f f f f f f f f f l;
#X obj 8 320 s \$0-Scale;
#X obj 23 300 s \$0-Antialiasing;
#X obj 144 124 s \$0-TextList;
#X connect 0 0 1 0;
#X connect 1 0 2 0;
#X connect 2 0 12 0;
#X connect 11 0 2 1;
#X connect 12 0 13 0;
#X connect 12 1 14 0;
#X connect 12 2 5 0;
#X connect 12 3 4 0;
#X connect 12 4 6 0;
#X connect 12 5 7 0;
#X connect 12 6 8 0;
#X connect 12 7 3 0;
#X connect 12 8 9 0;
#X connect 12 9 10 0;
#X connect 12 10 15 0;
#X restore 139 32 pd PRESET_UNPACK;
#X obj 139 13 r \$0-PRESET_LOAD;
#X connect 0 0 1 0;
#X connect 3 0 2 0;
#X restore 209 55 pd PRESET;
#X obj 102 14 bng 8 250 50 0 \$0-PRESET_LOAD empty empty 12 4 0 8 -4034
-1 -1;
#X obj 211 108 r OSC_MESSAGES;
#X obj 211 126 routeOSC \$1;
#X obj 248 276 line;
#X obj 166 331 image data/logo_vsl.gif;
#X obj 331 275 s \$0-Activate;
#X obj 344 255 s \$0-RenderOrder;
#X obj 5 94 nbx 3 8 -50 -2 0 1 \$0-RenderOrder \$0-RenderOrder RenderOrder
31 5 0 8 -262144 -1 -1 -24 256;
#X obj 5 12 tgl 10 1 \$0-Activate \$0-Activate Activate 12 5 0 8 -4034
-1 -1 1 1;
#X obj 8 64 hsl 150 8 0 1 0 1 \$0-Red \$0-Red Red 5 4 0 8 -261234 -1
-1 14900 1;
#X obj 8 74 hsl 150 8 0 1 0 1 \$0-Green \$0-Green Green 5 4 0 8 -204786
-1 -1 14900 1;
#X obj 8 84 hsl 150 8 0 1 0 1 \$0-Blue \$0-Blue Blue 5 4 0 8 -203904
-1 -1 14900 1;
#X obj 118 96 tgl 10 1 \$0-Antialiasing \$0-Antialiasing AntiAliasing
12 5 0 8 -1 -262144 -1 1 1;
#X obj 162 54 nbx 4 8 0 1 0 1 \$0-Alpha \$0-Alpha empty 0 -8 0 8 -262144
-1 -1 1 256;
#X obj 8 54 hsl 150 8 0 1 0 1 \$0-Alpha \$0-Alpha Alpha 5 4 0 8 -1
-262144 -262144 14900 1;
#X obj 162 64 nbx 4 8 0 1 0 1 \$0-Red \$0-Red empty 0 -8 0 8 -262144
-1 -1 1 256;
#X obj 162 74 nbx 4 8 0 1 0 1 \$0-Green \$0-Green empty 0 -8 0 8 -262144
-1 -1 1 256;
#X obj 162 84 nbx 4 8 0 1 0 1 \$0-Blue \$0-Blue empty 0 -8 0 8 -262144
-1 -1 1 256;
#X obj 211 304 line;
#X obj 229 230 line;
#X obj 249 193 line;
#X obj 400 197 line;
#X obj 370 217 line;
#X obj 370 236 s \$0-Red;
#X obj 430 178 line;
#X obj 400 216 s \$0-Green;
#X obj 430 197 s \$0-Blue;
#X obj 202 347 zac.copyright;
#X obj 492 204 s \$0-Alpha;
#X obj 492 182 line;
#X obj 248 300 s \$0-Antialiasing;
#X obj 211 145 routeOSC /Scale /Antialiasing /Xpos /Ypos /Activate
/RenderOrder /Red /Green /Blue /Alpha /TextList;
#X obj 477 244 list append;
#X obj 477 270 s \$0-TextList;
#X connect 8 0 9 0;
#X connect 9 0 10 0;
#X connect 10 0 11 0;
#X connect 11 0 12 0;
#X connect 21 0 22 0;
#X connect 22 0 51 0;
#X connect 23 0 50 0;
#X connect 38 0 13 0;
#X connect 39 0 14 0;
#X connect 40 0 15 0;
#X connect 41 0 45 0;
#X connect 42 0 43 0;
#X connect 44 0 46 0;
#X connect 49 0 48 0;
#X connect 51 0 38 0;
#X connect 51 1 23 0;
#X connect 51 2 39 0;
#X connect 51 3 40 0;
#X connect 51 4 25 0;
#X connect 51 5 26 0;
#X connect 51 6 42 0;
#X connect 51 7 41 0;
#X connect 51 8 44 0;
#X connect 51 9 49 0;
#X connect 51 10 52 0;
#X connect 52 0 53 0;
#X coords 0 0 10 1 200 110 1 0 0;
