#N canvas 108 75 563 649 8;
#X declare -path ./lib/sssad;
#X obj 5 12 tgl 10 1 \$0-Activate \$0-Activate Activate 12 5 0 8 -4034
-1 -1 0 1;
#X obj 8 34 hsl 150 8 -20 20 0 1 \$0-Xpos \$0-Xpos Xpos 5 4 0 8 -228856
-1 -1 7450 1;
#X obj 8 44 hsl 150 8 -10 10 0 1 \$0-Ypos \$0-Ypos Ypos 5 4 0 8 -228856
-1 -1 7450 1;
#X obj 162 34 nbx 4 8 -20 20 0 1 \$0-Xpos \$0-Xpos empty 0 -8 0 8 -262144
-1 -1 0 256;
#X obj 162 44 nbx 4 8 -10 10 0 1 \$0-Ypos \$0-Ypos empty 0 -8 0 8 -262144
-1 -1 0 256;
#N canvas 372 312 266 140 init 0;
#X obj 6 10 loadbang;
#X obj 84 13 declare -path ./lib/sssad;
#X restore 2 155 pd init;
#X obj 8 54 hsl 150 8 0 360 0 1 \$0-Rotate \$0-Rotate Rotate 5 4 0
8 -228856 -1 -1 0 1;
#X obj 162 54 nbx 4 8 0 360 0 1 \$0-Rotate \$0-Rotate empty 0 -8 0
8 -262144 -1 -1 0 256;
#X obj 8 74 hsl 150 8 0 1 0 1 \$0-Red \$0-Red Red 5 4 0 8 -261234 -1
-1 14900 1;
#X obj 8 84 hsl 150 8 0 1 0 1 \$0-Green \$0-Green Green 5 4 0 8 -204786
-1 -1 14900 1;
#X obj 8 94 hsl 150 8 0 1 0 1 \$0-Blue \$0-Blue Blue 5 4 0 8 -203904
-1 -1 14900 1;
#N canvas 587 35 679 300 data-persistence 0;
#X obj 11 124 s \$0-Xpos;
#X obj 91 124 s \$0-Ypos;
#X obj 11 103 sssad \$1/Xpos;
#X obj 91 103 sssad \$1/Ypos;
#X obj 218 30 sssad \$1/Shape;
#X obj 218 51 s \$0-Shape;
#X obj 306 30 sssad \$1/RenderOrder;
#X obj 11 82 r \$0-Xpos;
#X obj 91 82 r \$0-Ypos;
#X obj 427 30 sssad \$1/modeAlpha;
#X obj 427 51 s \$0-modeAlpha;
#X obj 260 201 s \$0-Alpha;
#X obj 260 180 sssad \$1/Alpha;
#X obj 261 160 r \$0-Alpha;
#X obj 427 9 r \$0-modeAlpha;
#X obj 218 9 r \$0-Shape;
#X obj 176 80 r \$0-Rotate;
#X obj 176 101 sssad \$1/Rotate;
#X obj 176 122 s \$0-Rotate;
#X obj 11 161 r \$0-Red;
#X obj 11 182 sssad \$1/Red;
#X obj 11 203 s \$0-Red;
#X obj 97 161 r \$0-Green;
#X obj 97 182 sssad \$1/Green;
#X obj 97 203 s \$0-Green;
#X obj 179 160 r \$0-Blue;
#X obj 179 181 sssad \$1/Blue;
#X obj 179 202 s \$0-Blue;
#X obj 11 231 r \$0-TargetRed;
#X obj 11 252 sssad \$1/TargetRed;
#X obj 11 273 s \$0-TargetRed;
#X obj 117 231 r \$0-TargetGreen;
#X obj 117 252 sssad \$1/TargetGreen;
#X obj 117 273 s \$0-TargetGreen;
#X obj 229 230 r \$0-TargetBlue;
#X obj 229 251 sssad \$1/TargetBlue;
#X obj 229 272 s \$0-TargetBlue;
#X obj 341 230 r \$0-TargetAlpha;
#X obj 340 250 sssad \$1/TargetAlpha;
#X obj 340 271 s \$0-TargetAlpha;
#X obj 130 9 r \$0-Scale;
#X obj 130 30 sssad \$1/Scale;
#X obj 130 51 s \$0-Scale;
#X obj 11 9 r \$0-Activate;
#X obj 11 30 sssad \$1/Activate;
#X obj 11 51 s \$0-Activate;
#X obj 344 120 s \$0-Speed;
#X obj 482 202 s \$0-Number;
#X obj 269 121 s \$0-Age;
#X obj 367 202 s \$0-EmitterSize;
#X obj 459 273 s \$0-PartFollow;
#X obj 550 122 s \$0-Size;
#X obj 436 120 s \$0-TargetSize;
#X obj 306 9 r \$0-RenderOrder;
#X obj 306 51 s \$0-RenderOrder;
#X obj 269 81 r \$0-Age;
#X obj 344 80 r \$0-Speed;
#X obj 367 162 r \$0-EmitterSize;
#X obj 482 162 r \$0-Number;
#X obj 436 80 r \$0-TargetSize;
#X obj 550 82 r \$0-Size;
#X obj 459 233 r \$0-PartFollow;
#X obj 268 101 sssad \$1/Age;
#X obj 348 101 sssad \$1/Speed;
#X obj 438 101 sssad \$1/TargetSize;
#X obj 548 101 sssad \$1/Size;
#X obj 368 181 sssad \$1/EmitterSize;
#X obj 488 181 sssad \$1/Number;
#X obj 458 252 sssad \$1/PartFollow;
#X obj 572 162 r \$0-Targeting;
#X obj 578 181 sssad \$1/Targeting;
#X obj 572 202 s \$0-Targeting;
#X obj 537 9 r \$0-File;
#X obj 537 30 sssad \$1/File;
#X obj 537 51 s \$0-File;
#X connect 2 0 0 0;
#X connect 3 0 1 0;
#X connect 4 0 5 0;
#X connect 6 0 54 0;
#X connect 7 0 2 1;
#X connect 8 0 3 1;
#X connect 9 0 10 0;
#X connect 12 0 11 0;
#X connect 13 0 12 1;
#X connect 14 0 9 1;
#X connect 15 0 4 1;
#X connect 16 0 17 1;
#X connect 17 0 18 0;
#X connect 19 0 20 1;
#X connect 20 0 21 0;
#X connect 22 0 23 1;
#X connect 23 0 24 0;
#X connect 25 0 26 1;
#X connect 26 0 27 0;
#X connect 28 0 29 1;
#X connect 29 0 30 0;
#X connect 31 0 32 1;
#X connect 32 0 33 0;
#X connect 34 0 35 1;
#X connect 35 0 36 0;
#X connect 37 0 38 1;
#X connect 38 0 39 0;
#X connect 40 0 41 1;
#X connect 41 0 42 0;
#X connect 43 0 44 1;
#X connect 44 0 45 0;
#X connect 53 0 6 1;
#X connect 55 0 62 1;
#X connect 56 0 63 1;
#X connect 57 0 66 1;
#X connect 58 0 67 1;
#X connect 59 0 64 1;
#X connect 60 0 65 1;
#X connect 61 0 68 1;
#X connect 62 0 48 0;
#X connect 63 0 46 0;
#X connect 64 0 52 0;
#X connect 65 0 51 0;
#X connect 66 0 49 0;
#X connect 67 0 47 0;
#X connect 68 0 50 0;
#X connect 69 0 70 1;
#X connect 70 0 71 0;
#X connect 72 0 73 1;
#X connect 73 0 74 0;
#X restore 2 173 pd data-persistence;
#X obj 5 104 tgl 10 1 \$0-modeAlpha \$0-modeAlpha modeAlpha 12 5 0
8 -1 -262144 -1 0 1;
#X obj 5 116 nbx 3 8 -50 -2 0 1 \$0-RenderOrder \$0-RenderOrder RenderOrder
31 5 0 8 -262144 -1 -1 -24 256;
#N canvas 265 58 274 117 brancheGem 0;
#X obj 9 51 gemhead;
#X msg 112 34 set \$1;
#X obj -21 81 outlet gemList;
#X obj 9 22 r \$0-Activate;
#X obj 112 12 r \$0-RenderOrder;
#X connect 0 0 2 0;
#X connect 1 0 0 0;
#X connect 3 0 0 0;
#X connect 4 0 1 0;
#X restore 465 227 pd brancheGem;
#N canvas 357 213 278 163 position 0;
#X obj 9 2 inlet gemList;
#X obj 11 134 outlet gemList;
#X obj 66 102 translateXYZ 0 0 0;
#X obj 88 -2 r \$0-Xpos;
#X obj 178 -2 r \$0-Ypos;
#X obj 119 22 r GLOBALSCALING;
#X obj 119 42 t b f;
#X obj 88 79 * 1;
#X obj 178 87 * 1;
#X connect 0 0 2 0;
#X connect 2 0 1 0;
#X connect 3 0 7 0;
#X connect 4 0 8 0;
#X connect 5 0 6 0;
#X connect 6 0 7 0;
#X connect 6 0 8 0;
#X connect 6 1 7 1;
#X connect 6 1 8 1;
#X connect 7 0 2 1;
#X connect 8 0 2 2;
#X restore 465 254 pd position;
#N canvas 100 104 238 212 echelle 0;
#X obj 9 25 inlet gemList;
#X obj 11 107 outlet gemList;
#X obj 92 87 scale;
#X obj 119 -3 pack f f f;
#X obj 105 38 t b;
#X obj 105 59 float 1;
#X obj 137 17 r GLOBALSCALING;
#X obj 119 -63 r \$0-Scale;
#X obj 119 -38 t f f;
#X connect 0 0 2 0;
#X connect 2 0 1 0;
#X connect 3 0 4 0;
#X connect 3 0 2 2;
#X connect 4 0 5 0;
#X connect 5 0 2 1;
#X connect 6 0 5 1;
#X connect 6 0 4 0;
#X connect 7 0 8 0;
#X connect 8 0 3 0;
#X connect 8 1 3 1;
#X restore 465 308 pd echelle;
#N canvas 104 66 197 133 rotation 0;
#X obj 13 17 inlet gemList;
#X obj 15 99 outlet gemList;
#X obj 28 65 rotate 0 0 0 1;
#X obj 68 44 r \$0-Rotate;
#X connect 0 0 2 0;
#X connect 2 0 1 0;
#X connect 3 0 2 1;
#X restore 465 281 pd rotation;
#N canvas 281 147 188 146 alpha 0;
#X obj 10 10 inlet gemList;
#X obj 12 92 outlet gemList;
#X obj 25 74 alpha;
#X obj 52 31 r \$0-modeAlpha;
#X connect 0 0 2 0;
#X connect 2 0 1 0;
#X connect 3 0 2 1;
#X restore 465 332 pd alpha;
#N canvas 515 54 212 216 objet 0;
#X obj 31 21 inlet gemList;
#X obj 26 141 outlet gemList;
#X obj 62 97 pix_texture;
#X obj 62 124 square;
#X obj 62 75 pix_buffer_read \$1;
#X obj 138 55 hradio 10 1 0 4 empty empty empty 0 -8 0 10 -262144 -1
-1 0;
#X obj 138 35 r \$0-Shape;
#X connect 0 0 4 0;
#X connect 2 0 3 0;
#X connect 3 0 1 0;
#X connect 4 0 2 0;
#X connect 5 0 4 1;
#X connect 6 0 5 0;
#X restore 465 389 pd objet;
#X obj 58 430 s \$0-Xpos;
#X obj 86 412 s \$0-Ypos;
#X obj 225 468 s \$0-Alpha;
#X obj 252 450 s \$0-modeAlpha;
#X obj 162 64 nbx 4 8 0 1 0 1 \$0-Alpha \$0-Alpha empty 0 -8 0 8 -262144
-1 -1 1 256;
#X obj 162 14 tgl 8 0 \$0-s_mousecontrol \$0-mousecontrol ctl. 10 4
0 8 -4034 -1 -258113 0 1;
#N canvas 563 421 588 264 mousecontrol 0;
#X obj 9 65 spigot;
#X obj 9 86 unpack f f;
#X obj 9 127 s \$0-Xpos;
#X obj 66 107 s \$0-Ypos;
#X obj 9 21 spigot;
#X text 13 149 Left Mouse => Position XY;
#X obj 9 -18 r mouseXYpos;
#X obj 42 2 r mouseLeftButt;
#X obj 199 65 spigot;
#X obj 199 86 unpack f f;
#X obj 199 21 spigot;
#X obj 199 -18 r mouseXYpos;
#X text 203 179 Middle Mouse => Rotation;
#X obj 232 2 r mouseMiddButt;
#X obj 199 106 expr ($f1 + 4) / 8 * 360;
#N canvas 972 578 279 121 OSD 0;
#N canvas 174 84 864 459 PositionOSD 0;
#X obj -32 6 r mouseLeftButt;
#X obj -116 308 r \$0-Xpos;
#X obj -32 31 spigot;
#X obj -116 327 expr int($f1*100)/100;
#X obj 67 8 inlet Control;
#X obj 147 9 loadbang;
#X msg 6 34 0;
#X obj -116 364 text2d Xpos;
#X msg -116 346 symbol X:\$1;
#X obj -32 205 curve 2;
#X obj -32 295 triangle 0.1;
#X obj -32 226 separator;
#X obj 88 226 separator;
#X obj 88 253 translateXYZ 0 0 0;
#X obj 146 227 r \$0-Xpos;
#X obj -145 226 separator;
#X obj -32 101 color 1 0 0;
#X obj 35 136 / 2;
#X obj 35 154 * -1;
#X msg -16 169 \$1 0 0;
#X msg 0 187 \$1 0 0;
#X obj 88 275 rectangle 0.01 0.1;
#X obj -145 291 translateXYZ 0 -0.2 0;
#X obj 274 327 expr int($f1*100)/100;
#X obj 358 275 triangle 0.1;
#X obj 358 226 separator;
#X obj 478 226 separator;
#X obj 245 254 separator;
#X obj 358 101 color 0 1 0;
#X obj 536 227 r \$0-Ypos;
#X obj -32 79 separator;
#X obj 358 74 separator;
#X obj 478 253 translateXYZ 0 0 0;
#X obj 478 275 rectangle 0.1 0.01;
#X obj 358 253 translateXYZ 0 3.9 0;
#X obj 348 205 curve 2;
#X msg 364 169 0 4 0;
#X msg 380 187 0 -4 0;
#X msg 274 346 symbol Y:\$1;
#X obj 274 308 r \$0-Ypos;
#X obj 284 273 r \$0-Ypos;
#X obj -111 268 r \$0-Xpos;
#X msg 398 349 justify left middle;
#X obj 398 330 loadbang;
#X msg 451 331 12;
#X obj 0 330 loadbang;
#X msg 0 349 12;
#X obj 245 291 translateXYZ 0.2 0 0;
#X obj 35 81 t b;
#X obj -32 245 translateXYZ 0 0 0;
#X obj -13 270 rotateXYZ 0 0 -90;
#X obj 33 224 - 0.1;
#X obj 435 154 loadbang;
#X obj 274 364 text2d Ypos;
#X obj -32 59 gemhead -99;
#X obj 35 108 value globGEMampXcoord;
#X connect 0 0 2 0;
#X connect 1 0 3 0;
#X connect 2 0 54 0;
#X connect 3 0 8 0;
#X connect 4 0 2 1;
#X connect 5 0 6 0;
#X connect 6 0 54 0;
#X connect 8 0 7 0;
#X connect 9 0 11 0;
#X connect 9 0 12 0;
#X connect 9 0 15 0;
#X connect 11 0 49 0;
#X connect 12 0 13 0;
#X connect 13 0 21 0;
#X connect 14 0 13 1;
#X connect 15 0 22 0;
#X connect 16 0 9 0;
#X connect 17 0 18 0;
#X connect 17 0 20 0;
#X connect 17 0 51 0;
#X connect 18 0 19 0;
#X connect 19 0 9 1;
#X connect 20 0 9 2;
#X connect 22 0 7 0;
#X connect 23 0 38 0;
#X connect 25 0 34 0;
#X connect 26 0 32 0;
#X connect 27 0 47 0;
#X connect 28 0 35 0;
#X connect 29 0 32 2;
#X connect 30 0 16 0;
#X connect 31 0 28 0;
#X connect 32 0 33 0;
#X connect 34 0 24 0;
#X connect 35 0 27 0;
#X connect 35 0 25 0;
#X connect 35 0 26 0;
#X connect 36 0 35 1;
#X connect 37 0 35 2;
#X connect 38 0 53 0;
#X connect 39 0 23 0;
#X connect 40 0 47 2;
#X connect 41 0 22 1;
#X connect 42 0 53 0;
#X connect 43 0 42 0;
#X connect 43 0 44 0;
#X connect 44 0 53 1;
#X connect 45 0 46 0;
#X connect 46 0 7 1;
#X connect 47 0 53 0;
#X connect 48 0 55 0;
#X connect 49 0 50 0;
#X connect 50 0 10 0;
#X connect 51 0 49 1;
#X connect 52 0 37 0;
#X connect 52 0 36 0;
#X connect 54 0 30 0;
#X connect 54 0 31 0;
#X connect 54 0 48 0;
#X connect 55 0 17 0;
#X restore 35 92 pd PositionOSD;
#N canvas 131 62 916 422 EchelleOSD 0;
#X obj -32 31 spigot;
#X obj 67 8 inlet Control;
#X obj 147 9 loadbang;
#X msg 6 34 0;
#X obj 35 146 / 2;
#X obj 35 164 * -1;
#X obj 274 327 expr int($f1*100)/100;
#X obj 362 285 triangle 0.1;
#X obj 362 236 separator;
#X obj 478 226 separator;
#X obj 245 254 separator;
#X obj 358 101 color 0 1 0;
#X obj 358 74 separator;
#X obj 478 253 translateXYZ 0 0 0;
#X obj 478 275 rectangle 0.1 0.01;
#X obj 362 263 translateXYZ 0 3.9 0;
#X obj 348 205 curve 2;
#X msg 398 349 justify left middle;
#X obj 398 330 loadbang;
#X msg 451 331 12;
#X obj 245 291 translateXYZ 0.2 0 0;
#X obj 35 81 t b;
#X obj -32 6 r mouseRightButt;
#X obj 198 79 r mouseXYpos;
#X obj 198 98 unpack f f;
#X msg 364 169 \$1 4 0;
#X msg 380 187 \$1 -4 0;
#X obj 370 146 + 0.01;
#X obj 645 74 separator;
#X obj 635 205 curve 2;
#X obj 645 101 color 0.5 0.5 1;
#X msg 667 187 \$1 4 0;
#X msg 651 169 \$1 -4 0;
#X text 408 146 pour pouvoir la distinguer sur le cote;
#X obj 275 273 + 0.2;
#X obj 274 364 text2d Yscale;
#X obj -32 59 gemhead -99;
#X obj 35 116 value globGEMampXcoord;
#X obj 274 308 r \$0-Scale;
#X msg 274 346 symbol Scale:\$1;
#X connect 0 0 36 0;
#X connect 1 0 0 1;
#X connect 2 0 3 0;
#X connect 3 0 36 0;
#X connect 4 0 5 0;
#X connect 4 0 31 0;
#X connect 5 0 15 1;
#X connect 5 0 27 0;
#X connect 5 0 32 0;
#X connect 5 0 34 0;
#X connect 6 0 39 0;
#X connect 8 0 15 0;
#X connect 9 0 13 0;
#X connect 10 0 20 0;
#X connect 11 0 16 0;
#X connect 12 0 11 0;
#X connect 13 0 14 0;
#X connect 15 0 7 0;
#X connect 16 0 10 0;
#X connect 16 0 9 0;
#X connect 16 0 8 0;
#X connect 17 0 35 0;
#X connect 18 0 17 0;
#X connect 18 0 19 0;
#X connect 19 0 35 1;
#X connect 20 0 35 0;
#X connect 21 0 37 0;
#X connect 22 0 0 0;
#X connect 23 0 24 0;
#X connect 24 1 20 2;
#X connect 24 1 13 2;
#X connect 25 0 16 1;
#X connect 26 0 16 2;
#X connect 27 0 25 0;
#X connect 27 0 26 0;
#X connect 27 0 13 1;
#X connect 28 0 30 0;
#X connect 30 0 29 0;
#X connect 31 0 29 2;
#X connect 32 0 29 1;
#X connect 34 0 20 1;
#X connect 36 0 21 0;
#X connect 36 0 12 0;
#X connect 36 0 28 0;
#X connect 37 0 4 0;
#X connect 38 0 6 0;
#X connect 39 0 35 0;
#X restore 48 70 pd EchelleOSD;
#N canvas 68 145 708 599 RotationOSD 0;
#X obj -32 31 spigot;
#X obj 67 8 inlet Control;
#X obj 147 9 loadbang;
#X msg 6 34 0;
#X obj -116 336 expr int($f1*100)/100;
#X obj -32 284 triangle 0.1;
#X obj -32 235 separator;
#X obj 88 235 separator;
#X obj -145 263 separator;
#X obj -32 83 separator;
#X obj 88 262 translateXYZ 0 0 0;
#X obj 88 284 rectangle 0.1 0.01;
#X obj -32 262 translateXYZ 0 3.9 0;
#X obj -32 180 curve 2;
#X msg -16 144 0 4 0;
#X msg 0 162 0 -4 0;
#X msg 8 358 justify left middle;
#X obj 8 339 loadbang;
#X msg 61 340 12;
#X obj -145 300 translateXYZ 0.2 0 0;
#X obj 55 129 loadbang;
#X obj -32 6 r mouseMiddButt;
#X obj -32 110 color 0 1 1;
#X obj -116 373 text2d R;
#X obj -191 121 r mouseXYpos;
#X obj -177 159 unpack f f;
#X msg -116 355 list R:\$1 deg;
#X obj -63 459 separator;
#X obj -28 478 translateXYZ 0 0 0;
#X obj 164 538 curve 2;
#X obj 188 493 loadbang;
#X msg 180 519 0 0 0;
#X obj 0 440 float;
#X obj 38 456 float;
#X obj 61 498 rotateXYZ;
#X obj 115 519 color 0 1 0;
#X obj 386 513 curve 2;
#X obj 410 468 loadbang;
#X msg 402 494 0 0 0;
#X obj 337 494 color 1 0 0;
#X obj -32 59 gemhead -99;
#X obj 234 568 triangle 0.1;
#X obj 250 449 separator;
#X obj 38 518 separator;
#X obj 234 546 translateXYZ 0 0.9 0;
#X msg 445 495 1 0 0;
#X msg 223 520 0 1 0;
#X obj 386 569 triangle 0.1;
#X obj 386 531 translateXYZ 0.9 0 0;
#X obj 386 549 rotateXYZ 0 0 -90;
#N canvas 330 147 542 413 graduation 0;
#X obj -34 77 separator;
#X obj -34 221 text2d R;
#X obj 17 179 loadbang;
#X msg 70 180 12;
#X obj -34 114 translateXYZ 0 -4 0;
#X obj -34 136 rectangle 0.05 0.01;
#X msg -34 203 0;
#X obj -34 161 translateXYZ -0.2 0 0;
#X msg 16 200 justify right bottom;
#X obj 139 75 separator;
#X obj 139 219 text2d R;
#X obj 190 177 loadbang;
#X msg 243 178 12;
#X obj 139 134 rectangle 0.05 0.01;
#X obj 139 159 translateXYZ -0.2 0 0;
#X obj 139 112 translateXYZ 0 -2 0;
#X msg 139 201 90;
#X msg 189 198 justify right middle;
#X obj 306 71 separator;
#X obj 306 215 text2d R;
#X obj 357 173 loadbang;
#X msg 410 174 12;
#X obj 306 130 rectangle 0.05 0.01;
#X obj 306 155 translateXYZ -0.2 0 0;
#X msg 356 194 justify right bottom;
#X obj 46 241 separator;
#X obj 46 385 text2d R;
#X obj 97 343 loadbang;
#X msg 150 344 12;
#X obj 46 300 rectangle 0.05 0.01;
#X obj 46 325 translateXYZ -0.2 0 0;
#X msg 96 364 justify right middle;
#X obj 306 108 translateXYZ 0 0 0;
#X msg 306 197 180;
#X msg 46 367 270;
#X obj 46 278 translateXYZ 0 2 0;
#X obj 241 235 separator;
#X obj 241 379 text2d R;
#X obj 292 337 loadbang;
#X msg 345 338 12;
#X obj 241 294 rectangle 0.05 0.01;
#X obj 241 319 translateXYZ -0.2 0 0;
#X obj 241 272 translateXYZ 0 4 0;
#X msg 241 359 360;
#X msg 291 358 justify right top;
#X obj 139 45 separator;
#X obj 139 5 separator;
#X obj 139 25 color 0 1 1;
#X obj 8 36 inlet gemList;
#X connect 0 0 4 0;
#X connect 2 0 3 0;
#X connect 2 0 8 0;
#X connect 2 0 6 0;
#X connect 3 0 1 1;
#X connect 4 0 5 0;
#X connect 5 0 7 0;
#X connect 6 0 1 0;
#X connect 7 0 1 0;
#X connect 8 0 1 0;
#X connect 9 0 15 0;
#X connect 11 0 12 0;
#X connect 11 0 17 0;
#X connect 11 0 16 0;
#X connect 12 0 10 1;
#X connect 13 0 14 0;
#X connect 14 0 10 0;
#X connect 15 0 13 0;
#X connect 16 0 10 0;
#X connect 17 0 10 0;
#X connect 18 0 32 0;
#X connect 20 0 21 0;
#X connect 20 0 24 0;
#X connect 20 0 33 0;
#X connect 21 0 19 1;
#X connect 22 0 23 0;
#X connect 23 0 19 0;
#X connect 24 0 19 0;
#X connect 25 0 35 0;
#X connect 27 0 28 0;
#X connect 27 0 31 0;
#X connect 27 0 34 0;
#X connect 28 0 26 1;
#X connect 29 0 30 0;
#X connect 30 0 26 0;
#X connect 31 0 26 0;
#X connect 32 0 22 0;
#X connect 33 0 19 0;
#X connect 34 0 26 0;
#X connect 35 0 29 0;
#X connect 36 0 42 0;
#X connect 38 0 39 0;
#X connect 38 0 44 0;
#X connect 38 0 43 0;
#X connect 39 0 37 1;
#X connect 40 0 41 0;
#X connect 41 0 37 0;
#X connect 42 0 40 0;
#X connect 43 0 37 0;
#X connect 44 0 37 0;
#X connect 45 0 18 0;
#X connect 45 0 25 0;
#X connect 45 0 36 0;
#X connect 45 0 0 0;
#X connect 45 0 9 0;
#X connect 46 0 47 0;
#X connect 47 0 45 0;
#X connect 48 0 46 0;
#X restore 240 236 pd graduation;
#X obj 41 436 r \$0-Ypos;
#X obj 6 417 r \$0-Xpos;
#X obj -116 318 r \$0-Rotate;
#X obj 103 460 r \$0-Rotate;
#X connect 0 0 40 0;
#X connect 1 0 0 1;
#X connect 2 0 3 0;
#X connect 3 0 40 0;
#X connect 4 0 26 0;
#X connect 6 0 12 0;
#X connect 7 0 10 0;
#X connect 8 0 19 0;
#X connect 9 0 22 0;
#X connect 10 0 11 0;
#X connect 12 0 5 0;
#X connect 13 0 8 0;
#X connect 13 0 6 0;
#X connect 13 0 7 0;
#X connect 13 0 27 0;
#X connect 13 0 50 0;
#X connect 14 0 13 1;
#X connect 15 0 13 2;
#X connect 16 0 23 0;
#X connect 17 0 16 0;
#X connect 17 0 18 0;
#X connect 18 0 23 1;
#X connect 19 0 23 0;
#X connect 20 0 15 0;
#X connect 20 0 14 0;
#X connect 21 0 0 0;
#X connect 22 0 13 0;
#X connect 24 0 25 0;
#X connect 25 1 19 2;
#X connect 25 1 10 2;
#X connect 26 0 23 0;
#X connect 27 0 28 0;
#X connect 28 0 34 0;
#X connect 29 0 44 0;
#X connect 30 0 46 0;
#X connect 30 0 31 0;
#X connect 31 0 29 1;
#X connect 32 0 28 1;
#X connect 33 0 28 2;
#X connect 34 0 42 0;
#X connect 34 0 43 0;
#X connect 35 0 29 0;
#X connect 36 0 48 0;
#X connect 37 0 45 0;
#X connect 37 0 38 0;
#X connect 38 0 36 1;
#X connect 39 0 36 0;
#X connect 40 0 9 0;
#X connect 42 0 39 0;
#X connect 43 0 35 0;
#X connect 44 0 41 0;
#X connect 45 0 36 2;
#X connect 46 0 29 2;
#X connect 48 0 49 0;
#X connect 49 0 47 0;
#X connect 51 0 33 0;
#X connect 52 0 32 0;
#X connect 53 0 4 0;
#X connect 54 0 34 3;
#X restore 58 45 pd RotationOSD;
#X obj 35 5 r \$0-s_mousecontrol;
#X connect 3 0 0 0;
#X connect 3 0 1 0;
#X connect 3 0 2 0;
#X restore 10 217 pd OSD;
#X text 7 202 Gestion de l'affichage OnScreenDisplay;
#X obj 42 42 r \$0-s_mousecontrol;
#X obj 232 42 r \$0-s_mousecontrol;
#X obj 199 124 moses 0;
#X obj 231 143 moses 361;
#X obj 199 163 s \$0-Rotate;
#X obj 385 71 spigot;
#X obj 385 92 unpack f f;
#X obj 385 27 spigot;
#X obj 385 -12 r mouseXYpos;
#X text 399 145 Right Mouse => Scale XY;
#X obj 418 8 r mouseRightButt;
#X obj 418 48 r \$0-s_mousecontrol;
#X obj 432 109 expr pow($f1/8+0.5 \, 2)*10;
#X obj 432 126 s \$0-Scale;
#X connect 0 0 1 0;
#X connect 1 0 2 0;
#X connect 1 1 3 0;
#X connect 4 0 0 0;
#X connect 6 0 4 0;
#X connect 7 0 4 1;
#X connect 8 0 9 0;
#X connect 9 1 14 0;
#X connect 10 0 8 0;
#X connect 11 0 10 0;
#X connect 13 0 10 1;
#X connect 14 0 19 0;
#X connect 17 0 0 1;
#X connect 18 0 8 1;
#X connect 19 1 20 0;
#X connect 20 0 21 0;
#X connect 22 0 23 0;
#X connect 23 1 29 0;
#X connect 24 0 22 0;
#X connect 25 0 24 0;
#X connect 27 0 24 1;
#X connect 28 0 22 1;
#X connect 29 0 30 0;
#X restore 2 191 pd mousecontrol;
#X obj 8 64 hsl 150 8 0 1 0 1 \$0-Alpha \$0-Alpha Alpha 5 4 0 8 -1
-262144 -262144 14900 1;
#X obj 112 14 bng 8 250 50 0 \$0-PRESET_SAVE empty preset 12 4 0 8
-258113 -1 -1;
#N canvas 84 123 286 112 PRESET 0;
#X obj 21 13 r \$0-PRESET_SAVE;
#N canvas 269 278 423 370 PRESET_PACK 0;
#X obj 4 3 inlet get;
#X obj 8 35 bang;
#X obj 8 62 float;
#X obj 56 54 r \$0-Xpos;
#X obj 67 71 r \$0-Ypos;
#X obj 133 163 r \$0-Alpha;
#X obj 190 236 r \$0-modeAlpha;
#X obj 146 182 r \$0-Shape;
#X obj 80 89 r \$0-Rotate;
#X obj 92 107 r \$0-Red;
#X obj 102 126 r \$0-Green;
#X obj 116 145 r \$0-Blue;
#X obj 154 43 r \$0-TargetRed;
#X obj 170 62 r \$0-TargetGreen;
#X obj 187 80 r \$0-TargetBlue;
#X obj 198 100 r \$0-TargetAlpha;
#X obj 42 36 r \$0-Scale;
#X obj 177 218 r \$0-Activate;
#X obj 161 200 r \$0-RenderOrder;
#X obj 322 231 r \$0-Age;
#X obj 266 173 r \$0-Speed;
#X obj 280 193 r \$0-EmitterSize;
#X obj 305 212 r \$0-Number;
#X obj 232 137 r \$0-TargetSize;
#X obj 214 119 r \$0-Size;
#X obj 333 249 r \$0-PartFollow;
#X obj 249 155 r \$0-Targeting;
#X obj 8 341 s PRESET_PARTICULES_DATA;
#X obj 8 320 pack f f f f f f f f f f f f f f f f f f f f f f f f s
;
#X obj 336 280 r \$0-File;
#X obj 331 303 symbol;
#X connect 0 0 1 0;
#X connect 1 0 2 0;
#X connect 2 0 28 0;
#X connect 3 0 28 1;
#X connect 4 0 28 2;
#X connect 5 0 28 7;
#X connect 6 0 28 11;
#X connect 7 0 28 8;
#X connect 8 0 28 3;
#X connect 9 0 28 4;
#X connect 10 0 28 5;
#X connect 11 0 28 6;
#X connect 12 0 28 12;
#X connect 13 0 28 13;
#X connect 14 0 28 14;
#X connect 15 0 28 15;
#X connect 16 0 2 1;
#X connect 17 0 28 10;
#X connect 18 0 28 9;
#X connect 19 0 28 22;
#X connect 20 0 28 19;
#X connect 21 0 28 20;
#X connect 22 0 28 21;
#X connect 23 0 28 17;
#X connect 24 0 28 16;
#X connect 25 0 28 23;
#X connect 26 0 28 18;
#X connect 28 0 27 0;
#X connect 29 0 30 0;
#X connect 30 0 28 24;
#X restore 21 32 pd PRESET_PACK;
#N canvas 714 279 410 368 PRESET_UNPACK 0;
#X obj 4 3 inlet get;
#X obj 8 25 bang;
#X obj 8 43 list;
#X obj 82 17 r PRESET_PARTICULES_DATA;
#X obj 9 108 s \$0-Scale;
#X obj 23 126 s \$0-Xpos;
#X obj 34 143 s \$0-Ypos;
#X obj 47 161 s \$0-Rotate;
#X obj 59 179 s \$0-Red;
#X obj 69 198 s \$0-Green;
#X obj 83 217 s \$0-Blue;
#X obj 100 235 s \$0-Alpha;
#X obj 113 254 s \$0-Shape;
#X obj 128 272 s \$0-RenderOrder;
#X obj 144 290 s \$0-Activate;
#X obj 157 308 s \$0-modeAlpha;
#X obj 121 115 s \$0-TargetRed;
#X obj 137 134 s \$0-TargetGreen;
#X obj 154 152 s \$0-TargetBlue;
#X obj 165 172 s \$0-TargetAlpha;
#X obj 181 191 s \$0-Size;
#X obj 199 209 s \$0-TargetSize;
#X obj 216 227 s \$0-Targeting;
#X obj 233 245 s \$0-Speed;
#X obj 247 265 s \$0-EmitterSize;
#X obj 272 284 s \$0-Number;
#X obj 289 303 s \$0-Age;
#X obj 300 321 s \$0-PartFollow;
#X obj 8 62 unpack f f f f f f f f f f f f f f f f f f f f f f f f
s;
#X obj 286 115 s \$0-File;
#X obj 286 90 symbol;
#X connect 0 0 1 0;
#X connect 1 0 2 0;
#X connect 2 0 28 0;
#X connect 3 0 2 1;
#X connect 28 0 4 0;
#X connect 28 1 5 0;
#X connect 28 2 6 0;
#X connect 28 3 7 0;
#X connect 28 4 8 0;
#X connect 28 5 9 0;
#X connect 28 6 10 0;
#X connect 28 7 11 0;
#X connect 28 8 12 0;
#X connect 28 9 13 0;
#X connect 28 10 14 0;
#X connect 28 11 15 0;
#X connect 28 12 16 0;
#X connect 28 13 17 0;
#X connect 28 14 18 0;
#X connect 28 15 19 0;
#X connect 28 16 20 0;
#X connect 28 17 21 0;
#X connect 28 18 22 0;
#X connect 28 19 23 0;
#X connect 28 20 24 0;
#X connect 28 21 25 0;
#X connect 28 22 26 0;
#X connect 28 23 27 0;
#X connect 28 24 30 0;
#X connect 30 0 29 0;
#X restore 139 32 pd PRESET_UNPACK;
#X obj 139 13 r \$0-PRESET_LOAD;
#X connect 0 0 1 0;
#X connect 3 0 2 0;
#X restore 2 209 pd PRESET;
#X obj 102 14 bng 8 250 50 0 \$0-PRESET_LOAD empty empty 12 4 0 8 -4034
-1 -1;
#X obj 110 195 r OSC_MESSAGES;
#X obj 110 213 routeOSC \$1;
#X obj 225 450 line;
#X obj 53 601 image data/logo_vsl.gif;
#N canvas 894 22 386 821 particules 0;
#X obj 102 2 inlet gemList;
#X obj 102 764 outlet gemList;
#X obj 102 299 part_source 1;
#X obj 102 320 part_killold 5;
#X msg 117 40 speed \$1;
#X obj 189 302 r \$0-Age;
#X obj 122 280 r \$0-Number;
#X obj 117 21 r \$0-Speed;
#X obj 249 215 r \$0-EmitterSize;
#X obj 102 63 part_head;
#X obj 102 341 part_follow 0.001;
#X obj 189 322 r \$0-PartFollow;
#X obj 102 623 separator;
#X obj 102 712 scale;
#X obj 102 740 rotateXYZ;
#X obj 144 693 unpack 0 0 0;
#X obj 102 647 translate 1 0 0 0;
#X obj 102 601 part_info -------------;
#X obj 102 363 part_killslow;
#X obj 102 527 part_targetcolor;
#X obj 140 216 pack f f f;
#X obj 102 238 part_color 1 1 1;
#X obj 197 194 t b f;
#X obj 162 174 t b f;
#X obj 167 445 t b f;
#X obj 132 425 t b f;
#X obj 140 487 pack f f f f;
#X obj 207 466 t b f;
#X obj 207 448 r \$0-TargetAlpha;
#X msg 249 233 0 0 0 \$1 0 0;
#X obj 102 259 part_velocity line 0 0 0 1 0 0;
#X msg 184 625 \$1 \$2 0;
#X obj 110 388 r \$0-TargetRed;
#X obj 132 407 r \$0-TargetGreen;
#X obj 167 427 r \$0-TargetBlue;
#X obj 140 137 r \$0-Red;
#X obj 162 156 r \$0-Green;
#X obj 197 176 r \$0-Blue;
#X obj 179 508 r \$0-Targeting;
#X obj 102 683 color;
#X obj 102 581 part_targetsize 2 0.01;
#X obj 117 555 r \$0-TargetSize;
#X obj 102 113 part_size;
#X obj 144 94 r \$0-Size;
#X obj 144 713 * 360;
#X obj 235 661 unpack f f f f;
#X obj 237 738 pack f f f f;
#X obj 242 680 t b f;
#X obj 262 700 t b f;
#X obj 292 718 t b f;
#X obj 304 690 *;
#X obj 316 665 r \$0-Alpha;
#X connect 0 0 9 0;
#X connect 2 0 3 0;
#X connect 3 0 10 0;
#X connect 4 0 9 0;
#X connect 5 0 3 1;
#X connect 6 0 2 1;
#X connect 7 0 4 0;
#X connect 8 0 29 0;
#X connect 9 0 42 0;
#X connect 10 0 18 0;
#X connect 11 0 10 1;
#X connect 12 0 16 0;
#X connect 13 0 14 0;
#X connect 14 0 1 0;
#X connect 15 0 44 0;
#X connect 16 0 39 0;
#X connect 17 0 12 0;
#X connect 17 2 31 0;
#X connect 17 3 45 0;
#X connect 17 4 15 0;
#X connect 17 5 13 1;
#X connect 18 0 19 0;
#X connect 19 0 40 0;
#X connect 20 0 21 1;
#X connect 20 0 21 2;
#X connect 21 0 30 0;
#X connect 22 0 20 0;
#X connect 22 1 20 2;
#X connect 23 0 20 0;
#X connect 23 1 20 1;
#X connect 24 0 26 0;
#X connect 24 1 26 2;
#X connect 25 0 26 0;
#X connect 25 1 26 1;
#X connect 26 0 19 1;
#X connect 27 0 26 0;
#X connect 27 1 26 3;
#X connect 28 0 27 0;
#X connect 29 0 30 2;
#X connect 30 0 2 0;
#X connect 31 0 16 2;
#X connect 32 0 26 0;
#X connect 33 0 25 0;
#X connect 34 0 24 0;
#X connect 35 0 20 0;
#X connect 36 0 23 0;
#X connect 37 0 22 0;
#X connect 38 0 19 2;
#X connect 38 0 40 2;
#X connect 39 0 13 0;
#X connect 40 0 17 0;
#X connect 41 0 40 1;
#X connect 42 0 21 0;
#X connect 43 0 42 1;
#X connect 44 0 14 3;
#X connect 45 0 46 0;
#X connect 45 1 47 0;
#X connect 45 2 48 0;
#X connect 45 3 50 0;
#X connect 46 0 39 1;
#X connect 47 0 46 0;
#X connect 47 1 46 1;
#X connect 48 0 46 0;
#X connect 48 1 46 2;
#X connect 49 0 46 0;
#X connect 49 1 46 3;
#X connect 50 0 49 0;
#X connect 51 0 50 1;
#X restore 465 358 pd particules;
#X obj 208 44 hsl 143 8 0.01 10 1 1 \$0-Speed \$0-Speed Speed 5 4 0
8 -228856 -1 -1 3200 1;
#X obj 355 44 nbx 5 8 0.01 10 1 1 \$0-Speed \$0-Speed empty 0 -8 0
8 -262144 -1 -1 0.0474304 256;
#X obj 208 54 hsl 143 8 0.01 1 0 1 \$0-EmitterSize \$0-EmitterSize
EmitterSize 5 4 0 8 -228856 -1 -1 7200 1;
#X obj 355 54 nbx 5 8 0.01 1 0 1 \$0-EmitterSize \$0-EmitterSize empty
0 -8 0 8 -262144 -1 -1 0.511972 256;
#X obj 208 64 hsl 143 8 0.1 10 0 1 \$0-Number \$0-Number Number 5 4
0 8 -228856 -1 -1 979 1;
#X obj 355 64 nbx 5 8 0.1 100 0 1 \$0-Number \$0-Number empty 0 -8
0 8 -262144 -1 -1 0.782542 256;
#X obj 208 74 hsl 143 8 1 100 0 1 \$0-Age \$0-Age Age 5 4 0 8 -228856
-1 -1 2008 1;
#X obj 355 74 nbx 5 8 1 100 0 1 \$0-Age \$0-Age empty 0 -8 0 8 -262144
-1 -1 14.9994 256;
#X obj 208 84 hsl 143 8 0.001 10 1 1 \$0-PartFollow \$0-PartFollow
PartFollow 5 4 0 8 -228856 -1 -1 0 1;
#X obj 355 84 nbx 5 8 0.001 10 1 1 \$0-PartFollow \$0-PartFollow empty
0 -8 0 8 -262144 -1 -1 0.001 256;
#X obj 114 394 s \$0-Rotate;
#X obj 260 432 s \$0-Speed;
#X obj 315 396 s \$0-Number;
#X obj 244 588 s \$0-Age;
#X obj 288 414 s \$0-EmitterSize;
#X obj 271 570 s \$0-PartFollow;
#X obj 298 552 s \$0-TargetAlpha;
#X obj 208 104 hsl 143 8 0 1 0 1 \$0-TargetRed \$0-TargetRed TargetRed
5 4 0 8 -261234 -1 -1 14200 1;
#X obj 208 114 hsl 143 8 0 1 0 1 \$0-TargetGreen \$0-TargetGreen TargetGreen
5 4 0 8 -204786 -1 -1 14200 1;
#X obj 208 124 hsl 143 8 0 1 0 1 \$0-TargetBlue \$0-TargetBlue TargetBlue
5 4 0 8 -203904 -1 -1 14200 1;
#X obj 208 94 hsl 143 8 0 1 0 1 \$0-TargetAlpha \$0-TargetAlpha TargetAlpha
5 4 0 8 -1 -262144 -262144 2200 1;
#X obj 143 523 s \$0-Red;
#X obj 171 504 s \$0-Green;
#X obj 198 486 s \$0-Blue;
#X obj 382 498 s \$0-TargetBlue;
#X obj 354 516 s \$0-TargetGreen;
#X obj 326 534 s \$0-TargetRed;
#X obj 208 34 hsl 143 8 0 1 0 1 \$0-Targeting \$0-Targeting Targeting
5 4 0 8 -228856 -1 -1 6900 1;
#X obj 355 34 nbx 5 8 0 1 0 1 \$0-Targeting \$0-Targeting empty 0 -8
0 8 -262144 -1 -1 0.485915 256;
#X obj 410 480 s \$0-Targeting;
#X obj 208 24 hsl 143 8 0 5 0 1 \$0-TargetSize \$0-TargetSize TargetSize
5 4 0 8 -228856 -1 -1 568 1;
#X obj 355 24 nbx 5 8 0 5 0 1 \$0-TargetSize \$0-TargetSize empty 0
-8 0 8 -262144 -1 -1 0.2 256;
#X obj 8 24 hsl 150 8 0.1 10 1 1 \$0-Scale \$0-Scale Scale 5 4 0 8
-228856 -1 -1 7450 1;
#X obj 162 24 nbx 4 8 0.1 10 1 1 \$0-Scale \$0-Scale empty 0 -8 0 8
-262144 -1 -1 1 256;
#X obj 30 448 s \$0-Scale;
#X obj 208 14 hsl 143 8 0 5 0 1 \$0-Size \$0-Size Size 5 4 0 8 -228856
-1 -1 268 1;
#X obj 355 14 nbx 5 8 0 5 0 1 \$0-Size \$0-Size empty 0 -8 0 8 -262144
-1 -1 0.0943662 256;
#X obj 466 444 s \$0-Size;
#X obj 355 94 nbx 5 8 0 1 0 1 \$0-TargetAlpha \$0-TargetAlpha empty
0 -8 0 8 -262144 -1 -1 0.15493 256;
#X obj 152 358 s \$0-Activate;
#X text 205 0 Particules system;
#X obj 142 376 s \$0-RenderOrder;
#X obj 260 414 line;
#X obj 288 396 line;
#X obj 315 378 line;
#X obj 244 570 line;
#X obj 271 552 line;
#X obj 298 534 line;
#X obj 326 516 line;
#X obj 354 498 line;
#X obj 382 480 line;
#X obj 410 462 line;
#X obj 438 462 s \$0-TargetSize;
#X obj 438 444 line;
#X obj 466 426 line;
#X obj 167 339 s \$0-File;
#X obj 167 320 symbol;
#X obj 5 138 cnv 10 390 10 empty \$0-Shape-label cercle.tif 0 5 0 8
-233017 -1 0;
#X obj 5 126 hradio 10 1 1 4 \$0-Shape \$0-Shape File 43 6 0 8 -262144
-1 -1 0;
#X obj 162 74 nbx 4 8 0 1 0 1 \$0-Red \$0-Red empty 0 -8 0 8 -262144
-1 -1 1 256;
#X obj 162 84 nbx 4 8 0 1 0 1 \$0-Green \$0-Green empty 0 -8 0 8 -262144
-1 -1 1 256;
#X obj 162 94 nbx 4 8 0 1 0 1 \$0-Blue \$0-Blue empty 0 -8 0 8 -262144
-1 -1 1 256;
#X obj 355 104 nbx 5 8 0 1 0 1 \$0-TargetRed \$0-TargetRed empty 0
-8 0 8 -262144 -1 -1 1 256;
#X obj 355 114 nbx 5 8 0 1 0 1 \$0-TargetGreen \$0-TargetGreen empty
0 -8 0 8 -262144 -1 -1 1 256;
#X obj 355 124 nbx 5 8 0 1 0 1 \$0-TargetBlue \$0-TargetBlue empty
0 -8 0 8 -262144 -1 -1 1 256;
#X obj 110 232 routeOSC /Xscale /Yscale /Xpos /Ypos /Rotate /Fichier
/RenderOrder /Activate /File /Red /Green /Blue /Alpha /modeAlpha /Scale
/Speed /EmitterSize /Number /Age /PartFollow /TargetAlpha /TargetRed
/TargetGreen /TargetBlue /Targeting /TargetSize /Size;
#X obj 198 468 line;
#X obj 171 486 line;
#X obj 143 504 line;
#X obj 114 376 line;
#X obj 30 430 line;
#X obj 58 412 line;
#X obj 86 394 line;
#N canvas 107 23 450 300 buffer 0;
#X msg 92 49 open data/cercle.tif 0;
#X msg 102 69 open data/carre.tif 1;
#X msg 112 89 open data/triangle.tif 2;
#X obj 55 20 bang;
#X obj 55 -3 loadbang;
#X obj 31 21 bng 15 250 50 0 empty empty empty 17 7 0 10 -262144 -1
-1;
#X obj 92 136 pix_buffer \$1 4;
#X obj 283 47 r \$0-File;
#X msg 283 69 open \$1 3;
#X connect 0 0 6 0;
#X connect 1 0 6 0;
#X connect 2 0 6 0;
#X connect 3 0 0 0;
#X connect 3 0 1 0;
#X connect 3 0 2 0;
#X connect 4 0 3 0;
#X connect 5 0 3 0;
#X connect 7 0 8 0;
#X connect 8 0 6 0;
#X restore 2 245 pd buffer;
#N canvas 104 381 367 321 shapeLabeling 0;
#X msg 22 182 cercle.tif;
#X msg 62 144 triangle.tif;
#X msg 42 163 carre.tif;
#X obj 82 105 symbol;
#X obj 115 84 symbol;
#X msg 82 125 \$1;
#X obj 170 92 s \$0-Shape;
#X msg 170 71 3;
#X obj 22 15 r \$0-Shape;
#X obj 22 42 select 0 1 2 3;
#X obj 110 39 r \$0-File;
#X obj 150 241 s \$0-Shape-label;
#X obj 139 199 symbol;
#X msg 150 221 label \$1;
#X connect 0 0 12 0;
#X connect 1 0 12 0;
#X connect 2 0 12 0;
#X connect 3 0 5 0;
#X connect 4 0 3 1;
#X connect 5 0 12 0;
#X connect 7 0 6 0;
#X connect 8 0 9 0;
#X connect 9 0 0 0;
#X connect 9 1 2 0;
#X connect 9 2 1 0;
#X connect 9 3 3 0;
#X connect 10 0 4 0;
#X connect 10 0 7 0;
#X connect 12 0 13 0;
#X connect 13 0 11 0;
#X restore 2 227 pd shapeLabeling;
#X obj 387 138 bng 10 250 50 0 empty empty empty 13 5 0 8 -262144 -1
-1;
#X obj 326 156 openpanel;
#X msg 326 175 /File \$1;
#X obj 89 617 zac.copyright;
#X obj 188 114 bng 10 250 50 0 empty empty MainColorChooser -85 6 0
8 -262144 -1 -1;
#X obj 407 28 symbol \$1;
#X msg 407 49 \; pd-MainColorChooser-\$1 vis 1;
#X obj 188 126 bng 10 250 50 0 empty empty TargetColorChooser -95 6
0 8 -262144 -1 -1;
#X obj 407 108 symbol \$1;
#X msg 407 129 \; pd-TargetColorChooser-\$1 vis 1;
#N canvas 142 162 367 126 MainColorChooser-\$1 0;
#X obj 89 9 pdp_colorgrid pdp_colorgrid1 256 0 256 50 0 50 0 1 1 10
10 214 67;
#N canvas 700 167 450 300 control2OSC 0;
#X obj 80 255 s OSC_MESSAGES;
#X msg 284 145 \$1/Blue \$2;
#X obj 34 56 inlet;
#X obj 164 56 inlet;
#X obj 285 56 inlet;
#X msg 159 145 \$1/Green \$2;
#X msg 35 145 \$1/Red \$2;
#X obj 35 124 list prepend \$1;
#X obj 159 124 list prepend \$1;
#X obj 284 124 list prepend \$1;
#X obj 5 2 cnv 11 60 11 empty \$0-rlabel R:1 2 6 0 8 -86277 -262144
0;
#X obj 70 2 cnv 11 60 11 empty \$0-glabel G:1 2 6 0 8 -13381 -262144
0;
#X obj 135 2 cnv 11 60 11 empty \$0-blabel B:1 2 6 0 8 -40 -262144
0;
#X msg 17 166 label R:\$1;
#X obj 17 186 s \$0-rlabel;
#X msg 147 166 label G:\$1;
#X msg 267 166 label B:\$1;
#X obj 147 186 s \$0-glabel;
#X obj 267 186 s \$0-blabel;
#X obj -1 84 expr int($f1/255*100)/100;
#X obj 139 84 expr int($f1/255*100)/100;
#X obj 279 84 expr int($f1/255*100)/100;
#X connect 1 0 0 0;
#X connect 2 0 19 0;
#X connect 3 0 20 0;
#X connect 4 0 21 0;
#X connect 5 0 0 0;
#X connect 6 0 0 0;
#X connect 7 0 6 0;
#X connect 8 0 5 0;
#X connect 9 0 1 0;
#X connect 13 0 14 0;
#X connect 15 0 17 0;
#X connect 16 0 18 0;
#X connect 19 0 7 0;
#X connect 19 0 13 0;
#X connect 20 0 15 0;
#X connect 20 0 8 0;
#X connect 21 0 16 0;
#X connect 21 0 9 0;
#X coords 0 -1 1 1 200 15 2 0 0;
#X restore 117 65 pd control2OSC;
#X obj 44 69 image data/logo_vsl.gif;
#X obj 80 85 zac.copyright;
#X connect 0 0 1 0;
#X connect 0 1 1 1;
#X connect 0 2 1 2;
#X restore 406 6 pd MainColorChooser-\$1;
#N canvas 160 232 367 126 TargetColorChooser-\$1 0;
#X obj 89 9 pdp_colorgrid pdp_colorgrid1 256 0 256 50 0 50 0 1 1 10
10 215 62;
#N canvas 700 167 450 300 control2OSC 0;
#X obj 80 255 s OSC_MESSAGES;
#X obj 34 56 inlet;
#X obj 164 56 inlet;
#X obj 285 56 inlet;
#X obj 35 124 list prepend \$1;
#X obj 159 124 list prepend \$1;
#X obj 284 124 list prepend \$1;
#X obj 5 2 cnv 11 60 11 empty \$0-rlabel R:1 2 6 0 8 -86277 -262144
0;
#X obj 70 2 cnv 11 60 11 empty \$0-glabel G:1 2 6 0 8 -13381 -262144
0;
#X obj 135 2 cnv 11 60 11 empty \$0-blabel B:1 2 6 0 8 -40 -262144
0;
#X msg 17 166 label R:\$1;
#X obj 17 186 s \$0-rlabel;
#X msg 147 166 label G:\$1;
#X msg 267 166 label B:\$1;
#X obj 147 186 s \$0-glabel;
#X obj 267 186 s \$0-blabel;
#X obj -1 84 expr int($f1/255*100)/100;
#X obj 139 84 expr int($f1/255*100)/100;
#X obj 279 84 expr int($f1/255*100)/100;
#X msg 35 145 \$1/TargetRed \$2;
#X msg 159 145 \$1/TargetGreen \$2;
#X msg 284 145 \$1/TargetBlue \$2;
#X connect 1 0 16 0;
#X connect 2 0 17 0;
#X connect 3 0 18 0;
#X connect 4 0 19 0;
#X connect 5 0 20 0;
#X connect 6 0 21 0;
#X connect 10 0 11 0;
#X connect 12 0 14 0;
#X connect 13 0 15 0;
#X connect 16 0 4 0;
#X connect 16 0 10 0;
#X connect 17 0 12 0;
#X connect 17 0 5 0;
#X connect 18 0 13 0;
#X connect 18 0 6 0;
#X connect 19 0 0 0;
#X connect 20 0 0 0;
#X connect 21 0 0 0;
#X coords 0 -1 1 1 200 15 2 0 0;
#X restore 117 65 pd control2OSC;
#X obj 44 69 image data/logo_vsl.gif;
#X obj 80 85 zac.copyright;
#X connect 0 0 1 0;
#X connect 0 1 1 1;
#X connect 0 2 1 2;
#X restore 406 86 pd TargetColorChooser-\$1;
#X connect 14 0 15 0;
#X connect 15 0 17 0;
#X connect 16 0 18 0;
#X connect 17 0 16 0;
#X connect 18 0 35 0;
#X connect 31 0 32 0;
#X connect 32 0 101 0;
#X connect 33 0 22 0;
#X connect 35 0 19 0;
#X connect 78 0 47 0;
#X connect 79 0 50 0;
#X connect 80 0 48 0;
#X connect 81 0 49 0;
#X connect 82 0 51 0;
#X connect 83 0 52 0;
#X connect 84 0 62 0;
#X connect 85 0 61 0;
#X connect 86 0 60 0;
#X connect 87 0 65 0;
#X connect 89 0 88 0;
#X connect 90 0 73 0;
#X connect 92 0 91 0;
#X connect 101 0 106 0;
#X connect 101 1 106 0;
#X connect 101 2 107 0;
#X connect 101 3 108 0;
#X connect 101 4 105 0;
#X connect 101 5 92 0;
#X connect 101 6 77 0;
#X connect 101 7 75 0;
#X connect 101 8 92 0;
#X connect 101 9 104 0;
#X connect 101 10 103 0;
#X connect 101 11 102 0;
#X connect 101 12 33 0;
#X connect 101 13 23 0;
#X connect 101 14 106 0;
#X connect 101 15 78 0;
#X connect 101 16 79 0;
#X connect 101 17 80 0;
#X connect 101 18 81 0;
#X connect 101 19 82 0;
#X connect 101 20 83 0;
#X connect 101 21 84 0;
#X connect 101 22 85 0;
#X connect 101 23 86 0;
#X connect 101 24 87 0;
#X connect 101 25 89 0;
#X connect 101 26 90 0;
#X connect 102 0 59 0;
#X connect 103 0 58 0;
#X connect 104 0 57 0;
#X connect 105 0 46 0;
#X connect 106 0 70 0;
#X connect 107 0 20 0;
#X connect 108 0 21 0;
#X connect 111 0 112 0;
#X connect 112 0 113 0;
#X connect 113 0 101 0;
#X connect 115 0 116 0;
#X connect 116 0 117 0;
#X connect 118 0 119 0;
#X connect 119 0 120 0;
#X coords 0 0 10 1 400 150 1 0 0;
