#N canvas 149 62 793 715 10;
#X obj 103 385 cnv 15 400 300 empty empty Restore 300 12 0 14 -233017
-123526 0;
#X obj 103 82 cnv 15 400 300 empty empty Save 300 12 0 14 -233017 -123526
0;
#X obj 319 297 textfile;
#X msg 208 198 clear;
#X msg 393 280 print;
#X obj 319 221 list prepend add;
#X obj 319 247 list trim;
#X obj 166 580 textfile;
#X obj 166 610 s SSSAD;
#X obj 166 522 until;
#X msg 110 563 print;
#X text 161 632 also received inside sssad;
#X obj 186 298 s SSSAD_ADMIN;
#X obj 319 153 r SSSAD_ADMIN;
#X obj 319 197 route persist;
#X obj 319 175 list trim;
#X msg 186 232 save;
#X msg 200 271 set;
#X obj 234 607 s SSSAD_ADMIN;
#X msg 234 582 set;
#X obj 164 119 savepanel;
#X msg 164 345 write \$1;
#X obj 3 51 bng 15 250 50 0 \$0-Save-bang \$0-Save-bang Save 18 8 0
10 -258113 -262144 -1;
#X obj 3 21 bng 15 250 50 0 \$0-Load-bang \$0-Load-bang Load 18 8 0
10 -4034 -262144 -1;
#X obj 166 425 openpanel;
#X text 198 501 Avoid loops. A bang normally also works.;
#X obj 164 141 symbol;
#X obj 166 455 symbol;
#X obj 53 54 bng 10 250 50 0 \$0-Save empty ReSave 14 6 0 8 -258113
-262144 -1;
#X obj 53 24 bng 10 250 50 0 \$0-Load empty ReLoad 14 6 0 8 -4034 -262144
-1;
#X obj 47 674 image data/logo_vsl.gif;
#X obj 18 375 print VSL;
#X msg 222 547 rewind;
#X msg 213 523 read \$1;
#X msg 166 501 9000;
#X obj 535 80 r OSC_MESSAGES;
#X obj 535 108 routeOSC \$1;
#X obj 588 166 bang;
#X obj 694 166 bang;
#X obj 164 89 r \$0-Save-bang;
#X obj 231 119 r \$0-Save;
#X obj 535 227 s \$0-Load;
#X obj 535 137 routeOSC /Load /ReLoad /Save /ReSave;
#X obj 641 227 s \$0-Save;
#X obj 166 399 r \$0-Load-bang;
#X obj 3 38 cnv 10 395 10 empty \$0-Loaded-label Loaded:\$1 1 5 0 8
-233017 -66577 0;
#X obj 3 68 cnv 10 395 10 empty \$0-Saved-label Saved:\$1 1 5 0 8 -233017
-66577 0;
#X obj 399 361 s \$0-Saved-label;
#X obj 392 663 s \$0-Loaded-label;
#X obj 164 162 t a a b;
#X msg 399 315 label Saving:\$1;
#X msg 406 338 label Saved:\$1;
#X msg 406 638 label Loaded:\$1;
#X msg 399 585 label Loading:\$1;
#X obj 166 478 t b a a;
#X obj 406 615 symbol;
#X obj 234 425 r \$0-Load;
#X obj 574 364 loadbang;
#X obj 83 690 zac.copyright;
#X msg 516 338 label Saved:;
#X msg 516 638 label Loaded:;
#X connect 3 0 2 0;
#X connect 4 0 2 0;
#X connect 5 0 6 0;
#X connect 6 0 2 0;
#X connect 7 0 8 0;
#X connect 7 1 9 1;
#X connect 7 1 19 0;
#X connect 7 1 55 0;
#X connect 9 0 7 0;
#X connect 10 0 7 0;
#X connect 13 0 15 0;
#X connect 14 0 5 0;
#X connect 15 0 14 0;
#X connect 16 0 12 0;
#X connect 17 0 12 0;
#X connect 19 0 18 0;
#X connect 20 0 26 0;
#X connect 21 0 2 0;
#X connect 21 0 31 0;
#X connect 24 0 27 0;
#X connect 26 0 49 0;
#X connect 27 0 54 0;
#X connect 32 0 7 0;
#X connect 33 0 7 0;
#X connect 33 0 31 0;
#X connect 34 0 9 0;
#X connect 35 0 36 0;
#X connect 36 0 42 0;
#X connect 37 0 41 0;
#X connect 38 0 43 0;
#X connect 39 0 20 0;
#X connect 40 0 26 0;
#X connect 42 0 41 0;
#X connect 42 1 37 0;
#X connect 42 2 43 0;
#X connect 42 3 38 0;
#X connect 44 0 24 0;
#X connect 49 0 21 0;
#X connect 49 0 51 0;
#X connect 49 1 16 0;
#X connect 49 1 50 0;
#X connect 49 2 3 0;
#X connect 50 0 47 0;
#X connect 51 0 47 0;
#X connect 52 0 48 0;
#X connect 53 0 48 0;
#X connect 54 0 34 0;
#X connect 54 1 32 0;
#X connect 54 1 53 0;
#X connect 54 2 33 0;
#X connect 54 2 55 1;
#X connect 55 0 52 0;
#X connect 56 0 27 0;
#X connect 57 0 59 0;
#X connect 57 0 60 0;
#X connect 59 0 47 0;
#X connect 60 0 48 0;
#X coords 0 0 1 1 400 80 1 0 0;
