#N canvas 0 1053 1280 995 8;
#X declare -path ./lib/sssad;
#X obj 3 14 tgl 10 1 \$0-Activate \$0-Activate Activate 13 5 0 8 -4034
-1 -1 1 1;
#X obj 6 26 hsl 150 8 0.1 20 0 1 \$0-Scale \$0-Scale Scale 5 4 0 8
-228856 -1 -1 674 1;
#X obj 160 26 nbx 5 8 0.1 20 0 1 \$0-Scale \$0-Scale empty 0 -8 0 8
-262144 -1 -1 1 256;
#X obj 3 141 tgl 10 1 \$0-Loop \$0-Loop Loop 13 5 0 8 -260097 -1 -1
0 1;
#N canvas 906 254 229 103 init 0;
#X obj 12 12 declare -path ./lib/sssad;
#X restore 211 20 pd init;
#X obj 3 153 bng 10 250 50 0 \$0-Rewind empty Rewind 13 5 0 8 -258113
-1 -1;
#X obj 43 141 tgl 10 0 \$0-calage \$0-calage calage 13 5 0 8 -159808
-1 -1 0 1;
#N canvas 490 107 665 294 data-persistence 0;
#X obj 163 169 sssad \$1/Alpha;
#X obj 163 190 s \$0-Alpha;
#X obj 13 239 sssad \$1/modeAlpha;
#X obj 13 260 s \$0-modeAlpha;
#X obj 183 30 sssad \$1/Scale;
#X obj 183 51 s \$0-Scale;
#X obj 163 148 r \$0-Alpha;
#X obj 183 9 r \$0-Scale;
#X obj 13 218 r \$0-modeAlpha;
#X obj 163 79 r \$0-Xpos;
#X obj 163 100 sssad \$1/Xpos;
#X obj 163 121 s \$0-Xpos;
#X obj 293 79 r \$0-Ypos;
#X obj 293 100 sssad \$1/Ypos;
#X obj 293 121 s \$0-Ypos;
#X obj 11 9 r \$0-Activate;
#X obj 11 30 sssad \$1/Activate;
#X obj 11 51 s \$0-Activate;
#X obj 12 77 r \$0-Rotate;
#X obj 12 98 sssad \$1/Rotate;
#X obj 12 119 s \$0-Rotate;
#X obj 12 169 sssad \$1/Loop;
#X obj 12 148 r \$0-Loop;
#X obj 12 190 s \$0-Loop;
#X obj 178 223 r \$0-RenderOrder;
#X obj 178 244 sssad \$1/RenderOrder;
#X obj 178 265 s \$0-RenderOrder;
#X obj 343 219 r \$0-Play;
#X obj 343 240 sssad \$1/Play;
#X obj 343 261 s \$0-Play;
#X obj 343 10 r \$0-File;
#X obj 343 30 sssad \$1/File;
#X obj 343 51 s \$0-File;
#X obj 294 148 r \$0-Red;
#X obj 294 169 sssad \$1/Red;
#X obj 294 190 s \$0-Red;
#X obj 380 148 r \$0-Green;
#X obj 380 169 sssad \$1/Green;
#X obj 380 190 s \$0-Green;
#X obj 462 147 r \$0-Blue;
#X obj 462 168 sssad \$1/Blue;
#X obj 462 189 s \$0-Blue;
#X obj 495 220 r \$0-Gain;
#X obj 495 241 sssad \$1/Gain;
#X obj 495 262 s \$0-Gain;
#X obj 436 9 r \$0-Contrast;
#X obj 436 30 sssad \$1/Contrast;
#X obj 436 51 s \$0-Contrast;
#X obj 445 76 r \$0-Masque;
#X obj 445 97 sssad \$1/Masque;
#X obj 445 118 s \$0-Masque;
#X obj 541 146 r \$0-FPS;
#X obj 541 167 sssad \$1/FPS;
#X obj 541 188 s \$0-FPS;
#X connect 0 0 1 0;
#X connect 2 0 3 0;
#X connect 4 0 5 0;
#X connect 6 0 0 1;
#X connect 7 0 4 1;
#X connect 8 0 2 1;
#X connect 9 0 10 1;
#X connect 10 0 11 0;
#X connect 12 0 13 1;
#X connect 13 0 14 0;
#X connect 15 0 16 1;
#X connect 16 0 17 0;
#X connect 18 0 19 1;
#X connect 19 0 20 0;
#X connect 21 0 23 0;
#X connect 22 0 21 1;
#X connect 24 0 25 1;
#X connect 25 0 26 0;
#X connect 27 0 28 1;
#X connect 28 0 29 0;
#X connect 30 0 31 1;
#X connect 31 0 32 0;
#X connect 33 0 34 1;
#X connect 34 0 35 0;
#X connect 36 0 37 1;
#X connect 37 0 38 0;
#X connect 39 0 40 1;
#X connect 40 0 41 0;
#X connect 42 0 43 1;
#X connect 43 0 44 0;
#X connect 45 0 46 1;
#X connect 46 0 47 0;
#X connect 48 0 49 1;
#X connect 49 0 50 0;
#X connect 51 0 52 1;
#X connect 52 0 53 0;
#X restore 211 56 pd data-persistence;
#X obj 43 129 tgl 10 1 \$0-modeAlpha \$0-modeAlpha modeAlpha 13 5 0
8 -1 -262144 -1 1 1;
#X obj 6 66 hsl 150 8 0 1 0 1 \$0-Alpha \$0-Alpha Alpha 5 4 0 8 -1
-262144 -262144 14900 1;
#X obj 160 66 nbx 5 8 0 1 0 1 \$0-Alpha \$0-Alpha empty 0 -8 0 8 -262144
-1 -1 1 256;
#X obj 88 158 nbx 4 8 0 9606 0 0 \$0-VideoPos \$0-VideoPos Step -22
4 0 8 -262144 -1 -1 0 256;
#N canvas 670 253 548 481 video 0;
#X obj 194 14 inlet gemList;
#X obj 194 121 pix_film;
#X obj 216 325 unpack f f f;
#X obj 250 365 s \$0-VideoWidth;
#X obj 285 345 s \$0-VideoHeight;
#X obj 216 385 s \$0-VideoLength;
#X obj 43 64 symbol;
#X msg 10 106 open \$1;
#X obj 10 85 symbol;
#X obj 10 41 t b a;
#X obj 115 385 outlet gemList;
#X obj 115 366 pix_texture;
#X msg 115 58 quality 1;
#X obj 239 100 r \$0-VideoPos;
#X obj 280 52 r \$0-Alpha;
#X obj 194 80 colorRGB 1 1 1 1;
#X obj 96 22 r \$0-File;
#X msg 10 127 label File:\$1;
#X obj 10 149 s \$0-File-label;
#X obj 202 32 r \$0-Red;
#X obj 220 52 r \$0-Green;
#X obj 253 33 r \$0-Blue;
#X obj 240 157 pix_mask;
#X obj 405 36 gemhead 20;
#X obj 405 54 pix_image;
#X msg 477 36 open \$1;
#X obj 405 73 pix_resize 320 240;
#X obj 240 222 pix_gain;
#X obj 283 184 r \$0-Gain;
#X obj 240 285 pix_contrast;
#X obj 268 267 clip 0 10;
#X obj 283 202 clip 0 255;
#X obj 268 249 r \$0-Contrast;
#X msg 450 98 label Masque:\$1;
#X obj 477 16 r \$0-Masque;
#X obj 450 120 s \$0-Masque-label;
#X msg 337 73 dimen \$2 \$3;
#X obj 230 424 s \$0-VideoLength-label;
#X msg 230 405 label /\$1;
#X obj 203 461 s \$0-VideoSize-label;
#X msg 203 442 label \$2x\$3;
#X connect 0 0 15 0;
#X connect 1 0 22 0;
#X connect 1 1 2 0;
#X connect 1 1 36 0;
#X connect 1 1 40 0;
#X connect 2 0 5 0;
#X connect 2 0 38 0;
#X connect 2 1 3 0;
#X connect 2 2 4 0;
#X connect 6 0 8 1;
#X connect 7 0 1 0;
#X connect 8 0 7 0;
#X connect 8 0 17 0;
#X connect 9 0 8 0;
#X connect 9 0 12 0;
#X connect 9 1 6 0;
#X connect 11 0 10 0;
#X connect 12 0 11 0;
#X connect 13 0 1 1;
#X connect 14 0 15 4;
#X connect 15 0 1 0;
#X connect 16 0 9 0;
#X connect 17 0 18 0;
#X connect 19 0 15 1;
#X connect 20 0 15 2;
#X connect 21 0 15 3;
#X connect 22 0 27 0;
#X connect 23 0 24 0;
#X connect 24 0 26 0;
#X connect 25 0 24 0;
#X connect 26 0 22 1;
#X connect 27 0 29 0;
#X connect 28 0 31 0;
#X connect 29 0 11 0;
#X connect 30 0 29 1;
#X connect 31 0 27 1;
#X connect 32 0 30 0;
#X connect 33 0 35 0;
#X connect 34 0 25 0;
#X connect 34 0 33 0;
#X connect 36 0 26 0;
#X connect 38 0 37 0;
#X connect 40 0 39 0;
#X restore 374 99 pd video;
#N canvas 876 270 352 373 curseur-video 0;
#X obj 16 8 spigot;
#X obj 72 85 + 1;
#X obj 43 208 mod;
#X obj 16 85 float 0;
#X obj 58 181 r \$0-VideoLength;
#X obj 43 289 s \$0-VideoPos;
#X obj 16 31 spigot;
#X obj -46 173 spigot;
#X obj -19 154 expr 1-$f1;
#X obj 43 162 spigot;
#X msg 64 63 \$1;
#X obj 70 -7 r \$0-Activate;
#X obj 71 16 r \$0-Play;
#X obj -41 51 r \$0-Rewind;
#X obj 50 123 r \$0-Loop;
#X obj 64 43 r \$0-VideoPos;
#X obj 43 264 change;
#X obj 16 -29 r \$0-Metro-bang;
#X msg -41 68 0;
#X obj 184 122 metro 40;
#X obj 184 84 t b a;
#X msg 184 103 1;
#X obj 184 141 s \$0-Metro-bang;
#X obj 166 31 r \$0-FPS;
#X obj 184 56 expr 1000/$f1;
#X connect 0 0 6 0;
#X connect 1 0 3 1;
#X connect 2 0 16 0;
#X connect 3 0 1 0;
#X connect 3 0 7 0;
#X connect 3 0 9 0;
#X connect 4 0 2 1;
#X connect 6 0 3 0;
#X connect 7 0 16 0;
#X connect 8 0 7 1;
#X connect 9 0 2 0;
#X connect 10 0 3 0;
#X connect 11 0 0 1;
#X connect 12 0 6 1;
#X connect 13 0 18 0;
#X connect 14 0 8 0;
#X connect 14 0 9 1;
#X connect 15 0 10 0;
#X connect 16 0 5 0;
#X connect 17 0 0 0;
#X connect 18 0 3 0;
#X connect 19 0 22 0;
#X connect 20 0 21 0;
#X connect 20 1 19 1;
#X connect 21 0 19 0;
#X connect 23 0 24 0;
#X connect 24 0 20 0;
#X restore 211 38 pd curseur-video;
#N canvas 189 440 318 200 position 0;
#X obj 13 44 translateXYZ;
#X obj 13 -18 inlet gemList;
#X obj 13 68 outlet gemList;
#X text 9 91 cette partie definie la matrice de translation des objets
de la meme branche. on recoit les valeurs Xpos et Ypos depuis un wireless
issu du canvas d'interface.;
#X obj 97 -65 r \$0-Xpos;
#X obj 187 -65 r \$0-Ypos;
#X obj 128 -41 r GLOBALSCALING;
#X obj 128 -21 t b f;
#X obj 97 16 * 1;
#X obj 187 24 * 1;
#X connect 0 0 2 0;
#X connect 1 0 0 0;
#X connect 4 0 8 0;
#X connect 5 0 9 0;
#X connect 6 0 7 0;
#X connect 7 0 8 0;
#X connect 7 0 9 0;
#X connect 7 1 8 1;
#X connect 7 1 9 1;
#X connect 8 0 0 1;
#X connect 9 0 0 2;
#X restore 374 120 pd position;
#N canvas 846 112 331 209 echelle 0;
#X obj 163 49 expr 1 / $f1;
#X obj 10 8 inlet gemList;
#X obj 10 154 outlet gemList;
#X obj 163 30 r \$0-Scale;
#X obj 26 64 t b;
#X obj 26 85 float 1;
#X obj 58 43 r GLOBALSCALING;
#X msg 163 72 list \$1 \$1 \$1;
#X obj 10 128 scale 1;
#X connect 0 0 7 0;
#X connect 1 0 8 0;
#X connect 3 0 0 0;
#X connect 4 0 5 0;
#X connect 5 0 8 1;
#X connect 6 0 5 1;
#X connect 6 0 4 0;
#X connect 7 0 8 2;
#X connect 8 0 2 0;
#X restore 374 157 pd echelle;
#N canvas 316 98 197 149 alpha 0;
#X obj 33 57 alpha;
#X obj 33 8 inlet gemList;
#X obj 33 88 outlet gemList;
#X obj 60 30 r \$0-modeAlpha;
#X connect 0 0 2 0;
#X connect 1 0 0 0;
#X connect 3 0 0 1;
#X restore 374 182 pd alpha;
#N canvas 566 361 229 152 forme 0;
#X obj 104 57 r \$0-VideoHeight;
#X obj 104 14 r \$0-VideoWidth;
#X obj 10 36 inlet gemList;
#X obj 10 116 outlet gemList;
#X obj 10 95 rectangle 4 3;
#X obj 104 35 expr $f1 / 200;
#X obj 104 78 expr $f1 / 200;
#X connect 0 0 6 0;
#X connect 1 0 5 0;
#X connect 2 0 4 0;
#X connect 4 0 3 0;
#X connect 5 0 4 1;
#X connect 6 0 4 2;
#X restore 374 208 pd forme;
#N canvas 766 46 249 100 brancheGem 0;
#X obj 13 71 outlet gemList;
#X msg 122 28 set \$1;
#X obj 13 45 gemhead;
#X obj 13 25 r \$0-Activate;
#X obj 122 6 r \$0-RenderOrder;
#X connect 1 0 2 0;
#X connect 2 0 0 0;
#X connect 3 0 2 0;
#X connect 4 0 1 0;
#X restore 419 55 pd brancheGem;
#N canvas 236 141 397 250 calage 0;
#X text 9 11 cette partie gere le routage vers la video ou non. ainsi
on obtient soit un rectangle mappe \, soit un rectangle blanc \, ce
qui nous permet de realiser le calage de la video dans la scene (dont
le fond est noir \, pas facile sinon).;
#X obj 113 70 inlet gemList;
#X obj 207 70 r \$0-calage;
#X obj 89 134 expr 1-$f1;
#X obj 201 154 spigot;
#X obj 201 176 outlet gemList-sans-image;
#X obj 52 176 outlet gemList-avec-image;
#X obj 52 152 spigot 1;
#X connect 1 0 4 0;
#X connect 1 0 7 0;
#X connect 2 0 3 0;
#X connect 2 0 4 1;
#X connect 3 0 7 1;
#X connect 4 0 5 0;
#X connect 7 0 6 0;
#X restore 419 78 pd calage;
#N canvas 208 322 138 124 define-ranges 0;
#X msg 9 59 range 0 \$1;
#X obj 9 12 r \$0-VideoLength;
#X obj 9 89 outlet step;
#X obj 9 36 + 7;
#X connect 0 0 2 0;
#X connect 1 0 3 0;
#X connect 3 0 0 0;
#X restore 211 2 pd define-ranges;
#X obj 148 429 s \$0-Alpha;
#X obj 180 388 s \$0-modeAlpha;
#X obj 21 390 s \$0-Scale;
#X obj 167 129 nbx 4 8 -50 -1 0 1 \$0-RenderOrder \$0-RenderOrder RenderOrder
-58 5 0 8 -262144 -1 -1 -25 256;
#X obj 6 169 hsl 195 8 0 9606 0 1 \$0-VideoPos \$0-VideoPos empty 10
4 0 8 -228856 -1 -1 0 1;
#X obj 3 129 tgl 10 1 \$0-Play \$0-Play Play 13 5 0 8 -4034 -1 -1 0
1;
#X obj 6 36 hsl 150 8 0 360 0 1 \$0-Rotate \$0-Rotate Rotate 5 4 0
8 -228856 -1 -1 0 1;
#X obj 160 36 nbx 5 8 0 360 0 1 \$0-Rotate \$0-Rotate empty 0 -8 0
8 -262144 -1 -1 0 256;
#N canvas 104 66 197 133 rotation 0;
#X obj 13 17 inlet gemList;
#X obj 15 99 outlet gemList;
#X obj 28 65 rotate 0 0 0 1;
#X obj 68 44 r \$0-Rotate;
#X connect 0 0 2 0;
#X connect 2 0 1 0;
#X connect 3 0 2 1;
#X restore 374 139 pd rotation;
#X obj 84 367 symbol;
#X obj 21 245 r OSC_MESSAGES;
#X obj 21 263 routeOSC \$1;
#X obj 160 16 nbx 5 8 0 100 0 0 \$0-FPS \$0-FPS FPS -16 5 0 8 -262144
-1 -1 10 256;
#N canvas 563 421 588 264 mousecontrol 0;
#X obj 9 65 spigot;
#X obj 9 86 unpack f f;
#X obj 9 127 s \$0-Xpos;
#X obj 66 107 s \$0-Ypos;
#X obj 9 21 spigot;
#X text 13 149 Left Mouse => Position XY;
#X obj 9 -18 r mouseXYpos;
#X obj 42 2 r mouseLeftButt;
#X obj 199 65 spigot;
#X obj 199 86 unpack f f;
#X obj 199 21 spigot;
#X obj 199 -18 r mouseXYpos;
#X text 203 179 Middle Mouse => Rotation;
#X obj 389 65 spigot;
#X obj 389 86 unpack f f;
#X obj 389 21 spigot;
#X obj 389 -18 r mouseXYpos;
#X text 403 139 Right Mouse => Scale XY;
#X obj 422 2 r mouseRightButt;
#X obj 232 2 r mouseMiddButt;
#X obj 199 106 expr ($f1 + 4) / 8 * 360;
#X text 7 202 Gestion de l'affichage OnScreenDisplay;
#X obj 42 42 r \$0-s_mousecontrol;
#X obj 232 42 r \$0-s_mousecontrol;
#X obj 422 42 r \$0-s_mousecontrol;
#X obj 436 103 expr pow($f1/8+0.5 \, 2)*10;
#X obj 199 124 moses 0;
#X obj 231 143 moses 361;
#X obj 436 120 s \$0-Scale;
#X obj 199 163 s \$0-Rotate;
#N canvas 972 578 279 121 OSD 0;
#N canvas 174 84 864 459 PositionOSD 0;
#X obj -32 6 r mouseLeftButt;
#X obj -116 308 r \$0-Xpos;
#X obj -32 31 spigot;
#X obj -116 327 expr int($f1*100)/100;
#X obj 67 8 inlet Control;
#X obj 147 9 loadbang;
#X msg 6 34 0;
#X obj -116 364 text2d Xpos;
#X obj -32 205 curve 2;
#X obj -32 295 triangle 0.1;
#X obj -32 226 separator;
#X obj 88 226 separator;
#X obj 88 253 translateXYZ 0 0 0;
#X obj 146 227 r \$0-Xpos;
#X obj -145 226 separator;
#X obj -32 101 color 1 0 0;
#X obj 35 136 / 2;
#X obj 35 154 * -1;
#X msg -16 169 \$1 0 0;
#X msg 0 187 \$1 0 0;
#X obj 88 275 rectangle 0.01 0.1;
#X obj -145 291 translateXYZ 0 -0.2 0;
#X obj 274 327 expr int($f1*100)/100;
#X obj 358 275 triangle 0.1;
#X obj 358 226 separator;
#X obj 478 226 separator;
#X obj 245 254 separator;
#X obj 358 101 color 0 1 0;
#X obj 536 227 r \$0-Ypos;
#X obj -32 79 separator;
#X obj 358 74 separator;
#X obj 478 253 translateXYZ 0 0 0;
#X obj 478 275 rectangle 0.1 0.01;
#X obj 358 253 translateXYZ 0 3.9 0;
#X obj 348 205 curve 2;
#X msg 364 169 0 4 0;
#X msg 380 187 0 -4 0;
#X obj 274 308 r \$0-Ypos;
#X obj 284 273 r \$0-Ypos;
#X obj -111 268 r \$0-Xpos;
#X msg 398 349 justify left middle;
#X obj 398 330 loadbang;
#X msg 451 331 12;
#X obj 0 330 loadbang;
#X msg 0 349 12;
#X obj 245 291 translateXYZ 0.2 0 0;
#X obj 35 81 t b;
#X obj -32 245 translateXYZ 0 0 0;
#X obj -13 270 rotateXYZ 0 0 -90;
#X obj 33 224 - 0.1;
#X obj 435 154 loadbang;
#X obj 274 364 text2d Ypos;
#X obj -32 59 gemhead -99;
#X obj 35 108 value globGEMampXcoord;
#X msg -116 346 symbol Xpos:\$1;
#X msg 274 346 symbol Ypos:\$1;
#X connect 0 0 2 0;
#X connect 1 0 3 0;
#X connect 2 0 52 0;
#X connect 3 0 54 0;
#X connect 4 0 2 1;
#X connect 5 0 6 0;
#X connect 6 0 52 0;
#X connect 8 0 10 0;
#X connect 8 0 11 0;
#X connect 8 0 14 0;
#X connect 10 0 47 0;
#X connect 11 0 12 0;
#X connect 12 0 20 0;
#X connect 13 0 12 1;
#X connect 14 0 21 0;
#X connect 15 0 8 0;
#X connect 16 0 17 0;
#X connect 16 0 19 0;
#X connect 16 0 49 0;
#X connect 17 0 18 0;
#X connect 18 0 8 1;
#X connect 19 0 8 2;
#X connect 21 0 7 0;
#X connect 22 0 55 0;
#X connect 24 0 33 0;
#X connect 25 0 31 0;
#X connect 26 0 45 0;
#X connect 27 0 34 0;
#X connect 28 0 31 2;
#X connect 29 0 15 0;
#X connect 30 0 27 0;
#X connect 31 0 32 0;
#X connect 33 0 23 0;
#X connect 34 0 26 0;
#X connect 34 0 24 0;
#X connect 34 0 25 0;
#X connect 35 0 34 1;
#X connect 36 0 34 2;
#X connect 37 0 22 0;
#X connect 38 0 45 2;
#X connect 39 0 21 1;
#X connect 40 0 51 0;
#X connect 41 0 40 0;
#X connect 41 0 42 0;
#X connect 42 0 51 1;
#X connect 43 0 44 0;
#X connect 44 0 7 1;
#X connect 45 0 51 0;
#X connect 46 0 53 0;
#X connect 47 0 48 0;
#X connect 48 0 9 0;
#X connect 49 0 47 1;
#X connect 50 0 36 0;
#X connect 50 0 35 0;
#X connect 52 0 29 0;
#X connect 52 0 30 0;
#X connect 52 0 46 0;
#X connect 53 0 16 0;
#X connect 54 0 7 0;
#X connect 55 0 51 0;
#X restore 35 92 pd PositionOSD;
#N canvas 131 62 916 422 EchelleOSD 0;
#X obj -32 31 spigot;
#X obj 67 8 inlet Control;
#X obj 147 9 loadbang;
#X msg 6 34 0;
#X obj 35 146 / 2;
#X obj 35 164 * -1;
#X obj 274 327 expr int($f1*100)/100;
#X obj 362 285 triangle 0.1;
#X obj 362 236 separator;
#X obj 478 226 separator;
#X obj 245 254 separator;
#X obj 358 101 color 0 1 0;
#X obj 358 74 separator;
#X obj 478 253 translateXYZ 0 0 0;
#X obj 478 275 rectangle 0.1 0.01;
#X obj 362 263 translateXYZ 0 3.9 0;
#X obj 348 205 curve 2;
#X msg 398 349 justify left middle;
#X obj 398 330 loadbang;
#X msg 451 331 12;
#X obj 245 291 translateXYZ 0.2 0 0;
#X obj 35 81 t b;
#X obj -32 6 r mouseRightButt;
#X obj 198 79 r mouseXYpos;
#X obj 198 98 unpack f f;
#X msg 364 169 \$1 4 0;
#X msg 380 187 \$1 -4 0;
#X obj 370 146 + 0.01;
#X obj 645 74 separator;
#X obj 635 205 curve 2;
#X obj 645 101 color 0.5 0.5 1;
#X msg 667 187 \$1 4 0;
#X msg 651 169 \$1 -4 0;
#X text 408 146 pour pouvoir la distinguer sur le cote;
#X obj 275 273 + 0.2;
#X obj 274 364 text2d Yscale;
#X obj -32 59 gemhead -99;
#X obj 35 116 value globGEMampXcoord;
#X obj 274 308 r \$0-Scale;
#X msg 274 346 symbol Scale:\$1;
#X connect 0 0 36 0;
#X connect 1 0 0 1;
#X connect 2 0 3 0;
#X connect 3 0 36 0;
#X connect 4 0 5 0;
#X connect 4 0 31 0;
#X connect 5 0 15 1;
#X connect 5 0 27 0;
#X connect 5 0 32 0;
#X connect 5 0 34 0;
#X connect 6 0 39 0;
#X connect 8 0 15 0;
#X connect 9 0 13 0;
#X connect 10 0 20 0;
#X connect 11 0 16 0;
#X connect 12 0 11 0;
#X connect 13 0 14 0;
#X connect 15 0 7 0;
#X connect 16 0 10 0;
#X connect 16 0 9 0;
#X connect 16 0 8 0;
#X connect 17 0 35 0;
#X connect 18 0 17 0;
#X connect 18 0 19 0;
#X connect 19 0 35 1;
#X connect 20 0 35 0;
#X connect 21 0 37 0;
#X connect 22 0 0 0;
#X connect 23 0 24 0;
#X connect 24 1 20 2;
#X connect 24 1 13 2;
#X connect 25 0 16 1;
#X connect 26 0 16 2;
#X connect 27 0 25 0;
#X connect 27 0 26 0;
#X connect 27 0 13 1;
#X connect 28 0 30 0;
#X connect 30 0 29 0;
#X connect 31 0 29 2;
#X connect 32 0 29 1;
#X connect 34 0 20 1;
#X connect 36 0 21 0;
#X connect 36 0 12 0;
#X connect 36 0 28 0;
#X connect 37 0 4 0;
#X connect 38 0 6 0;
#X connect 39 0 35 0;
#X restore 48 70 pd EchelleOSD;
#N canvas 68 145 708 599 RotationOSD 0;
#X obj -32 31 spigot;
#X obj 67 8 inlet Control;
#X obj 147 9 loadbang;
#X msg 6 34 0;
#X obj -116 336 expr int($f1*100)/100;
#X obj -32 284 triangle 0.1;
#X obj -32 235 separator;
#X obj 88 235 separator;
#X obj -145 263 separator;
#X obj -32 83 separator;
#X obj 88 262 translateXYZ 0 0 0;
#X obj 88 284 rectangle 0.1 0.01;
#X obj -32 262 translateXYZ 0 3.9 0;
#X obj -32 180 curve 2;
#X msg -16 144 0 4 0;
#X msg 0 162 0 -4 0;
#X msg 8 358 justify left middle;
#X obj 8 339 loadbang;
#X msg 61 340 12;
#X obj -145 300 translateXYZ 0.2 0 0;
#X obj 55 129 loadbang;
#X obj -32 6 r mouseMiddButt;
#X obj -32 110 color 0 1 1;
#X obj -116 373 text2d R;
#X obj -191 121 r mouseXYpos;
#X obj -177 159 unpack f f;
#X obj -63 459 separator;
#X obj -28 478 translateXYZ 0 0 0;
#X obj 164 538 curve 2;
#X obj 188 493 loadbang;
#X msg 180 519 0 0 0;
#X obj 0 440 float;
#X obj 38 456 float;
#X obj 61 498 rotateXYZ;
#X obj 115 519 color 0 1 0;
#X obj 386 513 curve 2;
#X obj 410 468 loadbang;
#X msg 402 494 0 0 0;
#X obj 337 494 color 1 0 0;
#X obj -32 59 gemhead -99;
#X obj 234 568 triangle 0.1;
#X obj 250 449 separator;
#X obj 38 518 separator;
#X obj 234 546 translateXYZ 0 0.9 0;
#X msg 445 495 1 0 0;
#X msg 223 520 0 1 0;
#X obj 386 569 triangle 0.1;
#X obj 386 531 translateXYZ 0.9 0 0;
#X obj 386 549 rotateXYZ 0 0 -90;
#N canvas 330 147 542 413 graduation 0;
#X obj -34 77 separator;
#X obj -34 221 text2d R;
#X obj 17 179 loadbang;
#X msg 70 180 12;
#X obj -34 114 translateXYZ 0 -4 0;
#X obj -34 136 rectangle 0.05 0.01;
#X msg -34 203 0;
#X obj -34 161 translateXYZ -0.2 0 0;
#X msg 16 200 justify right bottom;
#X obj 139 75 separator;
#X obj 139 219 text2d R;
#X obj 190 177 loadbang;
#X msg 243 178 12;
#X obj 139 134 rectangle 0.05 0.01;
#X obj 139 159 translateXYZ -0.2 0 0;
#X obj 139 112 translateXYZ 0 -2 0;
#X msg 139 201 90;
#X msg 189 198 justify right middle;
#X obj 306 71 separator;
#X obj 306 215 text2d R;
#X obj 357 173 loadbang;
#X msg 410 174 12;
#X obj 306 130 rectangle 0.05 0.01;
#X obj 306 155 translateXYZ -0.2 0 0;
#X msg 356 194 justify right bottom;
#X obj 46 241 separator;
#X obj 46 385 text2d R;
#X obj 97 343 loadbang;
#X msg 150 344 12;
#X obj 46 300 rectangle 0.05 0.01;
#X obj 46 325 translateXYZ -0.2 0 0;
#X msg 96 364 justify right middle;
#X obj 306 108 translateXYZ 0 0 0;
#X msg 306 197 180;
#X msg 46 367 270;
#X obj 46 278 translateXYZ 0 2 0;
#X obj 241 235 separator;
#X obj 241 379 text2d R;
#X obj 292 337 loadbang;
#X msg 345 338 12;
#X obj 241 294 rectangle 0.05 0.01;
#X obj 241 319 translateXYZ -0.2 0 0;
#X obj 241 272 translateXYZ 0 4 0;
#X msg 241 359 360;
#X msg 291 358 justify right top;
#X obj 139 45 separator;
#X obj 139 5 separator;
#X obj 139 25 color 0 1 1;
#X obj 8 36 inlet gemList;
#X connect 0 0 4 0;
#X connect 2 0 3 0;
#X connect 2 0 8 0;
#X connect 2 0 6 0;
#X connect 3 0 1 1;
#X connect 4 0 5 0;
#X connect 5 0 7 0;
#X connect 6 0 1 0;
#X connect 7 0 1 0;
#X connect 8 0 1 0;
#X connect 9 0 15 0;
#X connect 11 0 12 0;
#X connect 11 0 17 0;
#X connect 11 0 16 0;
#X connect 12 0 10 1;
#X connect 13 0 14 0;
#X connect 14 0 10 0;
#X connect 15 0 13 0;
#X connect 16 0 10 0;
#X connect 17 0 10 0;
#X connect 18 0 32 0;
#X connect 20 0 21 0;
#X connect 20 0 24 0;
#X connect 20 0 33 0;
#X connect 21 0 19 1;
#X connect 22 0 23 0;
#X connect 23 0 19 0;
#X connect 24 0 19 0;
#X connect 25 0 35 0;
#X connect 27 0 28 0;
#X connect 27 0 31 0;
#X connect 27 0 34 0;
#X connect 28 0 26 1;
#X connect 29 0 30 0;
#X connect 30 0 26 0;
#X connect 31 0 26 0;
#X connect 32 0 22 0;
#X connect 33 0 19 0;
#X connect 34 0 26 0;
#X connect 35 0 29 0;
#X connect 36 0 42 0;
#X connect 38 0 39 0;
#X connect 38 0 44 0;
#X connect 38 0 43 0;
#X connect 39 0 37 1;
#X connect 40 0 41 0;
#X connect 41 0 37 0;
#X connect 42 0 40 0;
#X connect 43 0 37 0;
#X connect 44 0 37 0;
#X connect 45 0 18 0;
#X connect 45 0 25 0;
#X connect 45 0 36 0;
#X connect 45 0 0 0;
#X connect 45 0 9 0;
#X connect 46 0 47 0;
#X connect 47 0 45 0;
#X connect 48 0 46 0;
#X restore 240 236 pd graduation;
#X obj 41 436 r \$0-Ypos;
#X obj 6 417 r \$0-Xpos;
#X obj -116 318 r \$0-Rotate;
#X obj 103 460 r \$0-Rotate;
#X msg -116 355 list Rotate:\$1 deg;
#X connect 0 0 39 0;
#X connect 1 0 0 1;
#X connect 2 0 3 0;
#X connect 3 0 39 0;
#X connect 4 0 54 0;
#X connect 6 0 12 0;
#X connect 7 0 10 0;
#X connect 8 0 19 0;
#X connect 9 0 22 0;
#X connect 10 0 11 0;
#X connect 12 0 5 0;
#X connect 13 0 8 0;
#X connect 13 0 6 0;
#X connect 13 0 7 0;
#X connect 13 0 26 0;
#X connect 13 0 49 0;
#X connect 14 0 13 1;
#X connect 15 0 13 2;
#X connect 16 0 23 0;
#X connect 17 0 16 0;
#X connect 17 0 18 0;
#X connect 18 0 23 1;
#X connect 19 0 23 0;
#X connect 20 0 15 0;
#X connect 20 0 14 0;
#X connect 21 0 0 0;
#X connect 22 0 13 0;
#X connect 24 0 25 0;
#X connect 25 1 19 2;
#X connect 25 1 10 2;
#X connect 26 0 27 0;
#X connect 27 0 33 0;
#X connect 28 0 43 0;
#X connect 29 0 45 0;
#X connect 29 0 30 0;
#X connect 30 0 28 1;
#X connect 31 0 27 1;
#X connect 32 0 27 2;
#X connect 33 0 41 0;
#X connect 33 0 42 0;
#X connect 34 0 28 0;
#X connect 35 0 47 0;
#X connect 36 0 44 0;
#X connect 36 0 37 0;
#X connect 37 0 35 1;
#X connect 38 0 35 0;
#X connect 39 0 9 0;
#X connect 41 0 38 0;
#X connect 42 0 34 0;
#X connect 43 0 40 0;
#X connect 44 0 35 2;
#X connect 45 0 28 2;
#X connect 47 0 48 0;
#X connect 48 0 46 0;
#X connect 50 0 32 0;
#X connect 51 0 31 0;
#X connect 52 0 4 0;
#X connect 53 0 33 3;
#X connect 54 0 23 0;
#X restore 58 45 pd RotationOSD;
#X obj 35 5 r \$0-s_mousecontrol;
#X connect 3 0 0 0;
#X connect 3 0 1 0;
#X connect 3 0 2 0;
#X restore 10 217 pd OSD;
#X connect 0 0 1 0;
#X connect 1 0 2 0;
#X connect 1 1 3 0;
#X connect 4 0 0 0;
#X connect 6 0 4 0;
#X connect 7 0 4 1;
#X connect 8 0 9 0;
#X connect 9 1 20 0;
#X connect 10 0 8 0;
#X connect 11 0 10 0;
#X connect 13 0 14 0;
#X connect 14 1 25 0;
#X connect 15 0 13 0;
#X connect 16 0 15 0;
#X connect 18 0 15 1;
#X connect 19 0 10 1;
#X connect 20 0 26 0;
#X connect 22 0 0 1;
#X connect 23 0 8 1;
#X connect 24 0 13 1;
#X connect 25 0 28 0;
#X connect 26 1 27 0;
#X connect 27 0 29 0;
#X restore 211 74 pd mousecontrol;
#N canvas 51 198 286 112 PRESET 0;
#X obj 21 13 r \$0-PRESET_SAVE;
#N canvas 720 177 326 415 PRESET_PACK 0;
#X obj 4 3 inlet get;
#X obj 8 35 bang;
#X obj 8 62 float;
#X obj 34 100 r \$0-Xpos;
#X obj 47 118 r \$0-Ypos;
#X obj 62 137 r \$0-Alpha;
#X obj 37 40 r \$0-Scale;
#X obj 8 341 s PRESET_ANIM_DATA;
#X obj 101 202 r \$0-modeAlpha;
#X obj 20 81 r \$0-Rotate;
#X obj 73 159 r \$0-Play;
#X obj 86 180 r \$0-Loop;
#X obj 121 225 r \$0-RenderOrder;
#X obj 133 245 r \$0-Activate;
#X obj 146 277 r \$0-File;
#X obj 90 61 r \$0-Red;
#X obj 103 79 r \$0-Green;
#X obj 116 97 r \$0-Blue;
#X obj 128 116 r \$0-Contrast;
#X obj 141 137 r \$0-Gain;
#X obj 160 156 r \$0-Masque;
#X obj 160 178 symbol;
#X obj 8 320 pack f f f f f f f f f f s f f f f f s;
#X connect 0 0 1 0;
#X connect 1 0 2 0;
#X connect 2 0 22 0;
#X connect 3 0 22 2;
#X connect 4 0 22 3;
#X connect 5 0 22 4;
#X connect 6 0 2 1;
#X connect 8 0 22 7;
#X connect 9 0 22 1;
#X connect 10 0 22 5;
#X connect 11 0 22 6;
#X connect 12 0 22 8;
#X connect 13 0 22 9;
#X connect 14 0 22 10;
#X connect 15 0 22 11;
#X connect 16 0 22 12;
#X connect 17 0 22 13;
#X connect 18 0 22 14;
#X connect 19 0 22 15;
#X connect 20 0 21 0;
#X connect 21 0 22 16;
#X connect 22 0 7 0;
#X restore 21 32 pd PRESET_PACK;
#N canvas 418 177 291 414 PRESET_UNPACK 0;
#X obj 4 3 inlet get;
#X obj 8 25 bang;
#X obj 8 43 list;
#X obj 107 176 s \$0-modeAlpha;
#X obj 63 241 s \$0-Alpha;
#X obj 50 262 s \$0-Ypos;
#X obj 36 281 s \$0-Xpos;
#X obj 82 17 r PRESET_ANIM_DATA;
#X obj 8 320 s \$0-Scale;
#X obj 139 132 s \$0-Activate;
#X obj 124 153 s \$0-RenderOrder;
#X obj 90 198 s \$0-Loop;
#X obj 76 221 s \$0-Play;
#X obj 19 301 s \$0-Rotate;
#X obj 155 96 s \$0-File;
#X obj 82 326 s \$0-Red;
#X obj 96 307 s \$0-Green;
#X obj 110 286 s \$0-Blue;
#X obj 138 245 s \$0-Gain;
#X obj 123 265 s \$0-Contrast;
#X obj 155 225 s \$0-Masque;
#X obj 8 62 unpack f f f f f f f f f f s f f f f f s;
#X connect 0 0 1 0;
#X connect 1 0 2 0;
#X connect 2 0 21 0;
#X connect 7 0 2 1;
#X connect 21 0 8 0;
#X connect 21 1 13 0;
#X connect 21 2 6 0;
#X connect 21 3 5 0;
#X connect 21 4 4 0;
#X connect 21 5 12 0;
#X connect 21 6 11 0;
#X connect 21 7 3 0;
#X connect 21 8 10 0;
#X connect 21 9 9 0;
#X connect 21 10 14 0;
#X connect 21 11 15 0;
#X connect 21 12 16 0;
#X connect 21 13 17 0;
#X connect 21 14 19 0;
#X connect 21 15 18 0;
#X connect 21 16 20 0;
#X restore 139 32 pd PRESET_UNPACK;
#X obj 139 13 r \$0-PRESET_LOAD;
#X connect 0 0 1 0;
#X connect 3 0 2 0;
#X restore 211 92 pd PRESET;
#X obj 6 46 hsl 150 8 -20 20 0 1 \$0-Xpos \$0-Xpos Xpos 5 4 0 8 -228856
-1 -1 7450 1;
#X obj 6 56 hsl 150 8 -10 10 0 1 \$0-Ypos \$0-Ypos Ypos 5 4 0 8 -228856
-1 -1 7450 1;
#X obj 160 46 nbx 5 8 -20 20 0 1 \$0-Xpos \$0-Xpos empty 0 -8 0 8 -262144
-1 -1 0 256;
#X obj 160 56 nbx 5 8 -10 10 0 1 \$0-Ypos \$0-Ypos empty 0 -8 0 8 -262144
-1 -1 0 256;
#X obj 113 16 tgl 8 0 \$0-s_mousecontrol \$0-mousecontrol ctl. 10 4
0 8 -4034 -1 -258113 0 1;
#X obj 68 16 bng 8 250 50 0 \$0-PRESET_SAVE empty preset 12 4 0 8 -258113
-1 -1;
#X obj 58 16 bng 8 250 50 0 \$0-PRESET_LOAD empty empty 12 4 0 8 -4034
-1 -1;
#X obj 345 404 s \$0-Xpos;
#X obj 405 404 s \$0-Ypos;
#X obj 355 441 s \$0-VideoPos;
#X obj 355 422 line;
#X obj 148 411 line;
#X obj 52 408 line;
#X obj 21 369 line;
#X obj 345 386 line;
#X obj 405 384 line;
#X obj 35 480 image data/logo_vsl.gif;
#X obj 244 419 s \$0-Activate;
#X obj 84 388 s \$0-File;
#X obj 309 365 s \$0-Rewind;
#X obj 212 367 s \$0-Loop;
#X obj 276 388 s \$0-Play;
#X obj 3 180 cnv 10 199 10 empty \$0-File-label File: 0 5 0 8 -233017
-1 0;
#X obj 52 428 s \$0-Rotate;
#X obj 6 76 hsl 150 8 0 1 0 1 \$0-Red \$0-Red Red 5 4 0 8 -261234 -1
-1 14900 1;
#X obj 6 86 hsl 150 8 0 1 0 1 \$0-Green \$0-Green Green 5 4 0 8 -204786
-1 -1 14900 1;
#X obj 6 96 hsl 150 8 0 1 0 1 \$0-Blue \$0-Blue Blue 5 4 0 8 -203904
-1 -1 14900 1;
#X obj 160 76 nbx 5 8 0 1 0 1 \$0-Red \$0-Red empty 0 -8 0 8 -262144
-1 -1 1 256;
#X obj 160 86 nbx 5 8 0 1 0 1 \$0-Green \$0-Green empty 0 -8 0 8 -262144
-1 -1 1 256;
#X obj 160 96 nbx 5 8 0 1 0 1 \$0-Blue \$0-Blue empty 0 -8 0 8 -262144
-1 -1 1 256;
#X obj 484 416 line;
#X obj 454 436 line;
#X obj 454 455 s \$0-Red;
#X obj 514 397 line;
#X obj 484 435 s \$0-Green;
#X obj 514 416 s \$0-Blue;
#X obj 212 448 symbol;
#X obj 212 467 s \$0-Masque;
#X obj 282 449 line;
#X obj 282 467 s \$0-Contrast;
#X obj 366 468 line;
#X obj 366 486 s \$0-Gain;
#X obj 3 193 cnv 10 199 10 empty \$0-Masque-label Masque: 0 5 0 8 -233017
-1 0;
#X obj 6 106 hsl 150 8 0.01 10 1 1 \$0-Contrast \$0-Contrast Contrast
5 4 0 8 -1 -262144 -262144 9933 1;
#X obj 160 106 nbx 5 8 0 10 0 1 \$0-Contrast \$0-Contrast empty 0 -8
0 8 -262144 -1 -1 1 256;
#X obj 6 116 hsl 150 8 0.255 255 1 1 \$0-Gain \$0-Gain Gain 5 4 0 8
-1 -262144 -262144 2948 1;
#X obj 160 116 nbx 5 8 0 255 0 1 \$0-Gain \$0-Gain empty 0 -8 0 8 -262144
-1 -1 1 256;
#X obj 112 226 loadbang;
#X obj 360 331 s \$0-FPS;
#X obj 21 282 routeOSC /Scale /Rotate /Fichier /File /Alpha /modeAlpha
/Loop /Activate /Play /Xpos /Ypos /VideoPos /Rewind /Red /Green /Blue
/Masque /Contrast /Gain /FPS;
#X msg 112 246 /FPS 25;
#X obj 193 180 bng 10 250 50 0 empty empty empty 13 5 0 8 -262144 -1
-1;
#X obj 193 193 bng 10 250 50 0 empty empty empty 13 5 0 8 -262144 -1
-1;
#X obj 240 227 openpanel;
#X msg 240 246 /File \$1;
#X obj 172 226 openpanel;
#X msg 172 244 /Masque \$1;
#X obj 71 496 zac.copyright;
#X obj 130 142 bng 10 250 50 0 empty empty ColorChooser 13 6 0 8 -262144
-1 -1;
#X obj 125 157 cnv 10 30 10 empty \$0-VideoLength-label / 2 6 0 8 -228856
-66577 0;
#X obj 158 157 cnv 10 45 10 empty \$0-VideoSize-label empty 1 6 0 8
-228856 -66577 0;
#X obj 220 148 symbol \$1;
#X msg 220 169 \; pd-ColorChooser-\$1 vis 1;
#N canvas 45 59 367 126 ColorChooser-\$1 0;
#X obj 89 9 pdp_colorgrid pdp_colorgrid1 256 0 256 50 0 50 0 1 1 10
10 213 70;
#N canvas 700 167 450 300 control2OSC 0;
#X obj 80 255 s OSC_MESSAGES;
#X msg 284 145 \$1/Blue \$2;
#X obj 34 56 inlet;
#X obj 164 56 inlet;
#X obj 285 56 inlet;
#X msg 159 145 \$1/Green \$2;
#X msg 35 145 \$1/Red \$2;
#X obj 35 124 list prepend \$1;
#X obj 159 124 list prepend \$1;
#X obj 284 124 list prepend \$1;
#X obj 5 2 cnv 11 60 11 empty \$0-rlabel R:1 2 6 0 8 -86277 -262144
0;
#X obj 70 2 cnv 11 60 11 empty \$0-glabel G:1 2 6 0 8 -13381 -262144
0;
#X obj 135 2 cnv 11 60 11 empty \$0-blabel B:1 2 6 0 8 -40 -262144
0;
#X msg 17 166 label R:\$1;
#X obj 17 186 s \$0-rlabel;
#X msg 147 166 label G:\$1;
#X msg 267 166 label B:\$1;
#X obj 147 186 s \$0-glabel;
#X obj 267 186 s \$0-blabel;
#X obj -1 84 expr int($f1/255*100)/100;
#X obj 139 84 expr int($f1/255*100)/100;
#X obj 279 84 expr int($f1/255*100)/100;
#X connect 1 0 0 0;
#X connect 2 0 19 0;
#X connect 3 0 20 0;
#X connect 4 0 21 0;
#X connect 5 0 0 0;
#X connect 6 0 0 0;
#X connect 7 0 6 0;
#X connect 8 0 5 0;
#X connect 9 0 1 0;
#X connect 13 0 14 0;
#X connect 15 0 17 0;
#X connect 16 0 18 0;
#X connect 19 0 7 0;
#X connect 19 0 13 0;
#X connect 20 0 15 0;
#X connect 20 0 8 0;
#X connect 21 0 16 0;
#X connect 21 0 9 0;
#X coords 0 -1 1 1 200 15 2 0 0;
#X restore 117 65 pd control2OSC;
#X obj 44 69 image data/logo_vsl.gif;
#X obj 80 85 zac.copyright;
#X connect 0 0 1 0;
#X connect 0 1 1 1;
#X connect 0 2 1 2;
#X restore 220 128 pd ColorChooser-\$1;
#X obj 435 266 outlet VideoPos;
#X obj 435 245 r \$0-VideoPos;
#X connect 12 0 14 0;
#X connect 14 0 29 0;
#X connect 15 0 16 0;
#X connect 16 0 17 0;
#X connect 18 0 19 0;
#X connect 19 0 12 0;
#X connect 19 1 14 0;
#X connect 20 0 11 0;
#X connect 20 0 25 0;
#X connect 29 0 15 0;
#X connect 30 0 54 0;
#X connect 31 0 32 0;
#X connect 32 0 85 0;
#X connect 46 0 45 0;
#X connect 47 0 21 0;
#X connect 48 0 59 0;
#X connect 49 0 23 0;
#X connect 50 0 43 0;
#X connect 51 0 44 0;
#X connect 66 0 70 0;
#X connect 67 0 68 0;
#X connect 69 0 71 0;
#X connect 72 0 73 0;
#X connect 74 0 75 0;
#X connect 76 0 77 0;
#X connect 83 0 86 0;
#X connect 85 0 49 0;
#X connect 85 1 48 0;
#X connect 85 2 30 0;
#X connect 85 3 30 0;
#X connect 85 4 47 0;
#X connect 85 5 22 0;
#X connect 85 6 56 0;
#X connect 85 7 53 0;
#X connect 85 8 57 0;
#X connect 85 9 50 0;
#X connect 85 10 51 0;
#X connect 85 11 46 0;
#X connect 85 12 55 0;
#X connect 85 13 67 0;
#X connect 85 14 66 0;
#X connect 85 15 69 0;
#X connect 85 16 72 0;
#X connect 85 17 74 0;
#X connect 85 18 76 0;
#X connect 85 19 84 0;
#X connect 86 0 85 0;
#X connect 87 0 89 0;
#X connect 88 0 91 0;
#X connect 89 0 90 0;
#X connect 90 0 85 0;
#X connect 91 0 92 0;
#X connect 92 0 85 0;
#X connect 94 0 97 0;
#X connect 97 0 98 0;
#X connect 101 0 100 0;
#X coords 0 0 10 1 205 205 1 0 0;
