#N canvas 533 153 522 204 10;
#X obj 80 173 outlet;
#X obj 31 173 outlet;
#X obj 80 147 del;
#X obj 31 47 t a a;
#X obj 80 73 list split 1;
#X obj 31 20 inlet;
#X obj 127 22 inlet;
#X obj 127 50 t a a;
#X obj 80 100 b;
#X obj 119 124 route float;
#X text 248 17 base sur rtc/line2.pd;
#X obj 31 100 line3;
#X obj 217 75 image data/logo_vsl.gif;
#X obj 253 91 zac.copyright;
#X connect 2 0 0 0;
#X connect 3 0 11 0;
#X connect 3 1 4 0;
#X connect 4 0 8 0;
#X connect 4 1 9 0;
#X connect 5 0 3 0;
#X connect 6 0 7 0;
#X connect 7 0 11 1;
#X connect 7 1 9 0;
#X connect 8 0 2 0;
#X connect 9 0 2 1;
#X connect 11 0 1 0;
