#N canvas 642 22 435 201 10;
#X obj 43 153 pack f f;
#X obj 43 173 s mouseXYpos;
#X obj 28 20 - 1;
#X obj 28 -2 gemmouse 2 2;
#X obj 169 36 - 1;
#X obj 169 56 * -4;
#X obj 28 122 *;
#X obj 43 102 / 2;
#X obj 114 15 s mouseLeftButt;
#X obj 214 15 s mouseMiddButt;
#X obj 314 15 s mouseRightButt;
#X obj 43 81 value globGEMampXcoord;
#X obj 43 61 t b;
#X obj 140 136 image data/logo_vsl.gif;
#X obj 176 152 zac.copyright;
#X connect 0 0 1 0;
#X connect 2 0 6 0;
#X connect 2 0 12 0;
#X connect 3 0 2 0;
#X connect 3 1 4 0;
#X connect 3 2 8 0;
#X connect 3 3 9 0;
#X connect 3 4 10 0;
#X connect 4 0 5 0;
#X connect 5 0 0 1;
#X connect 6 0 0 0;
#X connect 7 0 6 1;
#X connect 11 0 7 0;
#X connect 12 0 11 0;
