#N canvas 446 170 354 149 10;
#X obj 0 33 cnv 15 100 30 empty empty empty 20 12 0 14 -261682 -66577
0;
#X floatatom 0 14 5 0 0 0 - - -;
#X floatatom 34 14 5 0 0 0 - - -;
#X floatatom 68 14 5 0 0 0 - - -;
#X obj 21 42 ctlin;
#X obj 34 104 image data/logo_vsl.gif;
#X obj 70 120 zac.copyright;
#X connect 4 0 3 0;
#X connect 4 1 2 0;
#X connect 4 2 1 0;
#X coords 0 0 1 1 100 30 1 0 0;
