#N canvas 431 92 707 547 10;
#X declare -path ./lib/sssad;
#X obj 9 273 cnv 15 430 170 empty empty empty 20 12 0 14 -233017 -66577
0;
#X obj 9 237 cnv 15 430 30 empty empty empty 20 12 0 14 -195568 -66577
0;
#X text 18 236 Arguments:;
#X obj 8 66 cnv 15 430 165 empty empty empty 20 12 0 14 -233017 -66577
0;
#X text 461 64 Example:;
#X text 18 456 see also:;
#X text 50 21 Synopsis: [zac.lumiere /OSCname];
#X text 452 18 VirtualStageLight object;
#X text 47 475 [zac.animation];
#X text 47 495 [zac.webcamera];
#X obj 457 86 zac.lumiere /demo;
#X text 29 67 Description: a light object with UI controls;
#X text 11 89 [zac.lumiere] is a named light object. Its name should
be an OSC identifier compatible name.;
#X text 64 247 symbol: <object_OSC_name>;
#X obj 51 519 send OSC_MESSAGES;
#X text 40 275 OSC controls (sent to OSC_MESSAGES):;
#X text 12 193 There is no INLET nor OUTLET \, everything's through
OSC_MESSAGES.;
#X text 23 291 /Xscale float : set the Xscale to the float number;
#X text 23 301 /Yscale float : set the Yscale to the float number;
#X text 23 391 /Activate 1/0 : Activate or not the object;
#X text 23 311 /Xpos float : set the Xscale to the float number;
#X text 23 321 /Ypos float : set the Yscale to the float number;
#X text 23 331 /Rotate float : set the Xscale to the float number;
#X text 23 341 /Alpha float : set the Yscale to the float number;
#X text 23 351 /Red float : set the Xscale to the float number;
#X text 23 361 /Green float : set the Yscale to the float number;
#X text 23 371 /Blue float : set the Xscale to the float number;
#X text 23 381 /RenderOrder float : set the Yscale to the float number
;
#X text 23 401 /modeAlpha 1/0 : Activate or not the object;
#X text 23 411 /File symbol : Set the shape from an image filename
(absolute path or relative to the zac.lumiere patch);
#X obj 463 256 loadbang;
#X obj 463 277 tgl 15 0 empty empty empty 17 7 0 10 -262144 -1 -1 1
1;
#X obj 491 496 send OSC_MESSAGES;
#X obj 463 321 float 0;
#X obj 514 321 + 1;
#X obj 542 321 % 100;
#X msg 463 368 /demo/Alpha \$1;
#X obj 463 344 / 100;
#X obj 463 297 metro 150;
#X obj 509 403 tgl 15 0 empty empty empty 17 7 0 10 -262144 -1 -1 1
1;
#X obj 509 423 metro 1500;
#X msg 509 448 /demo/Red 0 \, /demo/Red 1 1500;
#X text 12 133 The object integer all the User Interface needed to
controls the behavior of the object \, but the selection of the FILE
to be projected if not a standard one (cercle.tif \, carre.tif \, triangle.tif).
;
#X obj 303 511 image data/logo_vsl.gif;
#X obj 339 527 zac.copyright;
#X connect 30 0 31 0;
#X connect 30 0 39 0;
#X connect 31 0 38 0;
#X connect 33 0 34 0;
#X connect 33 0 37 0;
#X connect 34 0 35 0;
#X connect 35 0 33 1;
#X connect 36 0 32 0;
#X connect 37 0 36 0;
#X connect 38 0 33 0;
#X connect 39 0 40 0;
#X connect 40 0 41 0;
#X connect 41 0 32 0;
