#N canvas 172 30 879 646 8;
#X declare -path ./lib/sssad;
#X obj 53 601 image data/logo_vsl.gif;
#X obj 9 273 cnv 15 860 170 empty empty empty 20 12 0 14 -233017 -66577
0;
#X obj 9 237 cnv 15 430 30 empty empty empty 20 12 0 14 -195568 -66577
0;
#X text 18 236 Arguments:;
#X obj 8 66 cnv 15 430 165 empty empty empty 20 12 0 14 -233017 -66577
0;
#X text 461 64 Example:;
#X text 18 456 see also:;
#X text 452 18 VirtualStageLight object;
#X text 47 495 [zac.webcamera];
#X text 64 247 symbol: <object_OSC_name>;
#X obj 51 519 send OSC_MESSAGES;
#X text 40 275 OSC controls (sent to OSC_MESSAGES):;
#X text 12 193 There is no INLET nor OUTLET \, everything's through
OSC_MESSAGES.;
#X text 23 381 /Activate 1/0 : Activate or not the object;
#X text 23 301 /Xpos float : set the Xscale to the float number;
#X text 23 311 /Ypos float : set the Yscale to the float number;
#X text 23 321 /Rotate float : set the Xscale to the float number;
#X text 23 331 /Alpha float : set the Yscale to the float number;
#X text 23 341 /Red float : set the Xscale to the float number;
#X text 23 351 /Green float : set the Yscale to the float number;
#X text 23 361 /Blue float : set the Xscale to the float number;
#X text 23 371 /RenderOrder float : set the Yscale to the float number
;
#X text 23 391 /modeAlpha 1/0 : Activate or not the object;
#X text 23 401 /File symbol : Set the shape from an image filename
(absolute path or relative to the zac.lumiere patch);
#X obj 236 454 loadbang;
#X obj 236 475 tgl 15 0 empty empty empty 17 7 0 10 -262144 -1 -1 1
1;
#X obj 345 592 send OSC_MESSAGES;
#X obj 236 519 float 0;
#X obj 287 519 + 1;
#X obj 315 519 % 100;
#X obj 236 542 / 100;
#X obj 236 495 metro 150;
#X obj 363 499 tgl 15 0 empty empty empty 17 7 0 10 -262144 -1 -1 1
1;
#X obj 363 519 metro 1500;
#X obj 457 86 zac.particules /demo-part;
#X msg 236 566 /demo-part/Alpha \$1;
#X msg 363 544 /demo-part/Red 0 \, /demo-part/Red 1 1500;
#X text 47 475 [zac.lumiere];
#X text 50 21 Synopsis: [zac.particules /OSCname];
#X text 29 67 Description: a particules generator object with UI controls
;
#X text 11 89 [zac.particules] is a named particules generator object.
Its name should be an OSC identifier compatible name.;
#X text 12 133 The object integer all the User Interface needed to
controls the behavior of the object \, but the selection of the FILE
to be used as particule if not standard one (cercle.tif \, carre.tif
\, triangle.tif).;
#X text 23 291 /Scale float : set the Scale to the float number;
#X text 463 291 /Size float : set the initial Size of the particule
;
#X text 463 301 /TargetSize float : set the TargetSize of the particule
(should grow or not);
#X text 463 321 /Speed float : set the Speed of the system;
#X text 463 331 /EmitterSize float : set the EmitterSize (control the
size of spread);
#X text 463 351 /Number float : set the Number of emitted particules
;
#X text 464 361 /Age float : set the Age of the particule;
#X text 463 371 /PartFollow float : set how the particules follows
each others;
#X text 463 391 /TargetAlpha float : set the TargetAlpha;
#X text 463 401 /TargetRed float : set the TargetRed to the float number
;
#X text 463 411 /TargetGreen float : set the TargetGreen to the float
number;
#X text 463 421 /TargetBlue float : set the TargetBlue to the float
number;
#X obj 89 617 zac.copyright;
#X connect 24 0 25 0;
#X connect 24 0 32 0;
#X connect 25 0 31 0;
#X connect 27 0 28 0;
#X connect 27 0 30 0;
#X connect 28 0 29 0;
#X connect 29 0 27 1;
#X connect 30 0 35 0;
#X connect 31 0 27 0;
#X connect 32 0 33 0;
#X connect 33 0 36 0;
#X connect 35 0 26 0;
#X connect 36 0 26 0;
#X coords 0 0 1 1 400 150 0;
