#N canvas 92 23 1029 608 10;
#X declare -path ./lib/sssad;
#X obj 9 243 cnv 15 430 250 empty empty empty 20 12 0 14 -233017 -66577
0;
#X obj 9 207 cnv 15 430 30 empty empty empty 20 12 0 14 -195568 -66577
0;
#X text 18 206 Arguments:;
#X obj 8 36 cnv 15 430 165 empty empty empty 20 12 0 14 -233017 -66577
0;
#X text 461 34 Example:;
#X text 18 496 see also:;
#X text 452 -12 VirtualStageLight object;
#X text 64 217 symbol: <object_OSC_name>;
#X obj 51 559 send OSC_MESSAGES;
#X text 40 241 OSC controls (sent to OSC_MESSAGES):;
#X text 12 163 There is no INLET nor OUTLET \, everything's through
OSC_MESSAGES.;
#X text 23 361 /Activate 1/0 : Activate or not the object;
#X text 23 371 /modeAlpha 1/0 : Activate or not the object;
#X text 23 427 /File symbol : Set the shape from an image filename
(absolute path or relative to the zac.lumiere patch);
#X obj 463 276 loadbang;
#X obj 463 297 tgl 15 0 empty empty empty 17 7 0 10 -262144 -1 -1 1
1;
#X obj 491 516 send OSC_MESSAGES;
#X obj 463 341 float 0;
#X obj 514 341 + 1;
#X obj 542 341 % 100;
#X obj 463 364 / 100;
#X obj 463 317 metro 150;
#X obj 457 56 zac.animation /demo-animation;
#X msg 463 388 /demo-animation/Alpha \$1;
#X text 47 515 [zac.lumiere];
#X text 50 -9 Synopsis: [zac.animation /OSCname];
#X text 29 37 Description: an animation object with UI controls;
#X text 11 59 [zac.animation] is a named animation object. Its name
should be an OSC identifier compatible name.;
#X text 12 103 The object integer all the User Interface needed to
controls the behavior of the object \, but the selection of the FILE
and the MASQUE.;
#X text 23 251 /Scale float : set the Scale to the float number;
#X text 23 451 /Masque symbol : Set the file of the image used as the
animation mask (absolute path or relative to the zac.animation patch)
;
#X text 23 331 /Contrast float : set the Contrast to the float number
;
#X text 23 341 /Gain float : set the Gain to the float number;
#X text 23 321 /Blue float : set the Blue component to the float number
;
#X text 23 311 /Green float : set the Green component to the float
number;
#X text 23 301 /Red float : set the Red component to the float number
;
#X text 23 291 /Alpha float : set the Alpha (transparency) to float
value;
#X text 23 271 /Xpos float : set the Xpos to the float number;
#X text 23 261 /Rotate float : set the Rotate to the float number (0-360)
;
#X text 23 281 /Ypos float : set the Ypos to the float number;
#X text 23 351 /RenderOrder float : set the RenderOrder (layer position)
;
#X text 23 381 /Play 1/0 : Start playing or pause;
#X text 23 391 /Loop 1/0 : Set the loop flag or not to the animation
;
#X text 23 401 /VideoPos int : Set video cursor to value;
#X msg 716 304 /demo-animation/Activate 1;
#X msg 701 388 /demo-anim*/Play 1 \, /demo-anim*/Loop 1;
#X msg 703 347 /demo-anim*/File data/motion_ville.mov;
#X obj 557 416 tgl 15 0 empty empty empty 17 7 0 10 -262144 -1 -1 1
1;
#X obj 557 436 metro 1500;
#X msg 557 461 /demo-anim*/Red 0 \, /demo-anim*/Green 1 \, /demo-anim*/Blue
0 \, /demo-anim*/Red 1 1500 \, /demo-anim*/Green 0 1500 \, /demo-anim*/Blue
1 750;
#X obj 719 37 image data/logo_vsl.gif;
#X text 47 535 [zac.camera];
#X text 23 411 /FPS int : Set the number of frame(s) per second;
#X obj 755 53 zac.copyright;
#X connect 14 0 15 0;
#X connect 14 0 44 0;
#X connect 14 0 46 0;
#X connect 14 0 45 0;
#X connect 14 0 47 0;
#X connect 15 0 21 0;
#X connect 17 0 18 0;
#X connect 17 0 20 0;
#X connect 18 0 19 0;
#X connect 19 0 17 1;
#X connect 20 0 23 0;
#X connect 21 0 17 0;
#X connect 23 0 16 0;
#X connect 44 0 16 0;
#X connect 45 0 16 0;
#X connect 46 0 16 0;
#X connect 47 0 48 0;
#X connect 48 0 49 0;
#X connect 49 0 16 0;
