#N canvas 496 369 360 282 10;
#X obj 3 2 cnv 15 100 15 empty empty metronome: 2 7 0 10 -262144 -1
0;
#X obj 52 131 s metro_global;
#X obj 3 2 cnv 15 100 15 empty empty metronome: 2 7 0 10 -262144 -1
0;
#X obj 71 0 tgl 20 1 empty empty empty 17 7 0 10 -262144 -1 -1 1 1
;
#X obj 94 0 nbx 5 20 0 10000 0 0 metro-intervalle metro-intervalle
empty 0 -8 0 10 -1 -262144 -262144 0 256;
#X obj 153 3 bng 15 250 50 0 empty empty empty 17 7 0 10 -262144 -1
-1;
#X obj 71 -43 r activate_metro;
#X obj 71 29 t a b;
#X obj 95 81 float 100;
#X obj 67 108 metro;
#X obj 146 33 r metro-intervalle;
#X obj 190 -7 s metro-intervalle;
#X obj 192 -38 loadbang;
#X obj 146 53 route float;
#X obj 111 58 t b;
#X obj 40 187 image data/logo_vsl.gif;
#X obj 76 203 zac.copyright;
#X connect 3 0 7 0;
#X connect 5 0 1 0;
#X connect 6 0 3 0;
#X connect 7 0 9 0;
#X connect 7 1 8 0;
#X connect 8 0 9 1;
#X connect 9 0 1 0;
#X connect 10 0 13 0;
#X connect 12 0 11 0;
#X connect 13 0 8 1;
#X connect 13 0 14 0;
#X connect 14 0 8 0;
#X coords 0 -1 1 1 170 20 2 0 0;
